<?xml version="1.0" encoding="UTF-8" standalone="no"?>
<svg width="64px" height="64px" viewBox="0 0 64 64" version="1.1" xmlns="http://www.w3.org/2000/svg" xmlns:xlink="http://www.w3.org/1999/xlink" xmlns:sketch="http://www.bohemiancoding.com/sketch/ns">
    <!-- Generator: Sketch 3.0.4 (8053) - http://www.bohemiancoding.com/sketch -->
    <title>icon1</title>
    <desc>Created with Sketch.</desc>
    <defs></defs>
    <g id="Page-1" stroke="none" stroke-width="1" fill="none" fill-rule="evenodd" sketch:type="MSPage">
        <g id="icon1" sketch:type="MSArtboardGroup" fill="#FFFFFF">
            <path d="M54.919,40.87 L54.919,14.105 C54.919,12.992 54.548,12.568 53.435,12.568 L11.618,12.568 C10.505,12.568 10.081,12.992 10.081,14.105 L10.081,40.87 L3.456,48.025 L3.456,49.35 C3.456,51.417 4.039,52 6.318,52 L58.682,52 C60.961,52 61.544,51.417 61.544,49.35 L61.544,48.025 L54.919,40.87 Z M53.382,14.105 L53.382,40.34 L11.618,40.34 L11.618,14.105 L53.382,14.105 Z M11.141,41.824 L53.859,41.824 L58.788,47.336 L6.212,47.336 L11.141,41.824 Z M6.106,50.516 C5.205,50.516 4.94,50.304 4.94,49.456 L4.94,48.873 L60.06,48.873 L60.06,49.456 C60.06,50.304 59.795,50.516 58.894,50.516 L6.106,50.516 Z M50.361,38.803 C51.474,38.803 51.845,38.432 51.845,37.266 L51.845,16.914 C51.845,15.748 51.474,15.377 50.361,15.377 L14.639,15.377 C13.526,15.377 13.155,15.748 13.155,16.914 L13.155,37.266 C13.155,38.432 13.526,38.803 14.639,38.803 L50.361,38.803 Z M14.639,16.914 L50.361,16.914 L50.361,37.266 L14.639,37.266 L14.639,16.914 Z M26.617,44.739 C26.246,44.739 26.087,44.845 25.928,45.216 L25.769,45.587 C25.61,46.011 25.769,46.17 26.352,46.17 L38.648,46.17 C39.231,46.17 39.39,46.011 39.231,45.587 L39.072,45.216 C38.913,44.845 38.754,44.739 38.383,44.739 L26.617,44.739 Z M18.19,42.566 C17.766,42.566 17.607,42.619 17.448,42.937 L17.236,43.361 C17.077,43.732 17.289,43.891 17.872,43.891 L19.091,43.891 C19.727,43.891 19.939,43.732 20.098,43.414 L20.257,43.096 C20.469,42.672 20.204,42.566 19.727,42.566 L18.19,42.566 Z M23.013,42.566 C22.43,42.566 22.324,42.672 22.218,42.99 L22.059,43.361 C21.953,43.679 22.165,43.891 22.589,43.891 L24.073,43.891 C24.709,43.891 24.921,43.785 25.027,43.361 L25.08,43.149 C25.186,42.725 25.027,42.566 24.497,42.566 L23.013,42.566 Z M31.97,42.566 C31.44,42.566 31.175,42.725 31.175,43.043 L31.175,43.414 C31.175,43.732 31.44,43.891 31.97,43.891 L33.083,43.891 C33.56,43.891 33.878,43.732 33.878,43.414 L33.878,43.043 C33.878,42.725 33.56,42.566 33.083,42.566 L31.97,42.566 Z M13.367,42.566 C12.943,42.566 12.837,42.672 12.572,42.99 L12.413,43.202 C12.095,43.626 12.36,43.891 12.89,43.891 L14.321,43.891 C14.904,43.891 15.063,43.785 15.275,43.414 L15.487,43.096 C15.752,42.725 15.54,42.566 15.063,42.566 L13.367,42.566 Z M27.783,42.566 C27.147,42.566 27.041,42.725 26.988,43.043 L26.935,43.308 C26.829,43.785 26.988,43.891 27.465,43.891 L28.896,43.891 C29.373,43.891 29.585,43.732 29.585,43.414 L29.585,43.043 C29.585,42.725 29.426,42.566 29.002,42.566 L27.783,42.566 Z M45.326,42.566 C44.849,42.566 44.584,42.672 44.796,43.096 L44.955,43.414 C45.114,43.732 45.326,43.891 45.962,43.891 L47.181,43.891 C47.764,43.891 47.976,43.732 47.817,43.361 L47.605,42.937 C47.446,42.619 47.287,42.566 46.863,42.566 L45.326,42.566 Z M40.556,42.566 C40.026,42.566 39.867,42.725 39.973,43.149 L40.026,43.361 C40.132,43.785 40.344,43.891 40.98,43.891 L42.464,43.891 C42.888,43.891 43.1,43.679 42.994,43.361 L42.835,42.99 C42.729,42.672 42.623,42.566 42.04,42.566 L40.556,42.566 Z M49.99,42.566 C49.513,42.566 49.301,42.725 49.566,43.096 L49.778,43.414 C49.99,43.785 50.149,43.891 50.732,43.891 L52.163,43.891 C52.693,43.891 52.958,43.626 52.64,43.202 L52.481,42.99 C52.216,42.672 52.11,42.566 51.686,42.566 L49.99,42.566 Z M36.051,42.566 C35.627,42.566 35.468,42.725 35.468,43.043 L35.468,43.414 C35.468,43.732 35.68,43.891 36.157,43.891 L37.588,43.891 C38.065,43.891 38.224,43.785 38.118,43.308 L38.065,43.043 C38.012,42.725 37.906,42.566 37.27,42.566 L36.051,42.566 Z" id="x" sketch:type="MSShapeGroup"></path>
        </g>
    </g>
</svg>