<?xml version="1.0" encoding="UTF-8" standalone="no"?>
<svg width="64px" height="64px" viewBox="0 0 64 64" version="1.1" xmlns="http://www.w3.org/2000/svg" xmlns:xlink="http://www.w3.org/1999/xlink" xmlns:sketch="http://www.bohemiancoding.com/sketch/ns">
    <!-- Generator: Sketch 3.0.4 (8053) - http://www.bohemiancoding.com/sketch -->
    <title>icon-id1</title>
    <desc>Created with Sketch.</desc>
    <defs></defs>
    <g id="Page-1" stroke="none" stroke-width="1" fill="none" fill-rule="evenodd" sketch:type="MSPage">
        <g id="icon-id1" sketch:type="MSArtboardGroup" fill="#FFFFFF">
            <path d="M46.327202,28.405 C46.682202,28.405 46.970202,28.118 46.970202,27.763 C46.970202,27.578 46.892202,27.411 46.767202,27.294 L32.507202,6.264 C32.269202,5.912 31.682202,5.912 31.444202,6.264 L17.111202,27.401 C16.977202,27.6 16.963202,27.853 17.075202,28.063 C17.186202,28.274 17.405202,28.405 17.643202,28.405 L27.669202,28.405 L17.095202,45.581 C16.974202,45.78 16.968202,46.028 17.082202,46.233 C17.195202,46.435 17.410202,46.561 17.643202,46.561 L30.085202,46.561 L30.085202,56.012 C30.085202,57.055 30.931202,57.903 31.975202,57.903 C33.019202,57.903 33.866202,57.055 33.866202,56.012 L33.866202,46.561 L46.308202,46.561 L46.327202,46.561 C46.682202,46.561 46.970202,46.273 46.970202,45.918 C46.970202,45.743 46.900202,45.584 46.786202,45.468 L36.281202,28.405 L46.308202,28.405 C46.315202,28.405 46.322202,28.406 46.327202,28.405" id="Imported-Layers" sketch:type="MSShapeGroup"></path>
        </g>
    </g>
</svg>