<?xml version="1.0" encoding="UTF-8" standalone="no"?>
<svg width="64px" height="64px" viewBox="0 0 64 64" version="1.1" xmlns="http://www.w3.org/2000/svg" xmlns:xlink="http://www.w3.org/1999/xlink" xmlns:sketch="http://www.bohemiancoding.com/sketch/ns">
    <!-- Generator: Sketch 3.0.4 (8053) - http://www.bohemiancoding.com/sketch -->
    <title>icon4</title>
    <desc>Created with Sketch.</desc>
    <defs></defs>
    <g id="Page-1" stroke="none" stroke-width="1" fill="none" fill-rule="evenodd" sketch:type="MSPage">
        <g id="icon4" sketch:type="MSArtboardGroup" fill="#FFFFFF">
            <path d="M57.316,29.36 C57.316,26.144 55.78,23.312 53.38,21.584 C52.804,18.128 51.412,16.784 49.396,16.784 L45.94,16.784 C43.252,16.784 42.292,18.8 42.004,21.584 C41.572,21.92 41.14,22.256 40.756,22.64 L24.244,22.64 C23.86,22.256 23.428,21.92 22.996,21.584 C22.708,18.848 21.748,16.784 19.156,16.784 L15.604,16.784 C13.588,16.784 12.148,18.128 11.62,21.584 C9.22,23.312 7.684,26.144 7.684,29.36 L7.684,45.536 C7.684,48.848 9.316,50.48 12.052,50.48 C15.124,50.48 17.188,48.704 21.796,41.072 C22.756,41.936 24.148,42.512 25.444,42.512 C28.132,42.512 30.34,40.496 30.628,38.144 L34.372,38.144 C34.66,40.496 36.868,42.512 39.556,42.512 C40.852,42.512 42.244,41.936 43.204,41.072 C47.812,48.704 49.876,50.48 52.948,50.48 C55.684,50.48 57.316,48.848 57.316,45.536 L57.316,29.36 Z M39.556,41.12 C37.396,41.12 35.524,39.536 35.668,36.752 L29.332,36.752 C29.476,39.536 27.604,41.12 25.444,41.12 C23.284,41.12 21.364,39.44 21.604,36.656 C19.636,37.52 18.436,37.568 17.332,37.568 C12.82,37.568 9.076,33.92 9.076,29.36 C9.076,24.8 12.916,21.152 17.332,21.152 C19.588,21.152 21.604,22.064 23.572,24.032 L41.428,24.032 C43.396,22.064 45.412,21.152 47.668,21.152 C52.084,21.152 55.924,24.8 55.924,29.36 C55.924,33.92 52.18,37.568 47.668,37.568 C46.564,37.568 45.364,37.52 43.396,36.656 C43.636,39.44 41.716,41.12 39.556,41.12 Z M12.052,49.088 C10.18,49.088 9.028,47.936 9.028,45.248 L9.028,34.208 C10.516,37.184 13.684,38.912 17.14,38.96 C18.532,38.96 19.492,38.768 20.356,38.432 C20.452,38.912 20.644,39.392 20.884,39.776 C16.228,48.032 14.164,49.088 12.052,49.088 Z M55.972,45.248 C55.972,47.936 54.82,49.088 52.948,49.088 C50.836,49.088 48.772,48.032 44.116,39.776 C44.356,39.392 44.548,38.912 44.644,38.432 C45.508,38.768 46.468,38.96 47.86,38.96 C51.316,38.912 54.484,37.184 55.972,34.208 L55.972,45.248 Z M39.556,34.928 C38.212,34.928 37.108,36.032 37.108,37.424 C37.108,38.816 38.212,39.92 39.556,39.92 C40.996,39.92 42.052,38.816 42.052,37.424 C42.052,36.032 40.996,34.928 39.556,34.928 Z M25.444,34.928 C24.004,34.928 22.948,36.032 22.948,37.424 C22.948,38.816 24.004,39.92 25.444,39.92 C26.788,39.92 27.892,38.816 27.892,37.424 C27.892,36.032 26.788,34.928 25.444,34.928 Z M19.012,18.176 C20.356,18.176 21.124,18.8 21.46,20.672 C20.212,20.048 18.82,19.712 17.332,19.712 C15.892,19.712 14.548,20 13.348,20.576 C13.78,18.8 14.452,18.176 15.7,18.176 L19.012,18.176 Z M49.3,18.176 C50.5,18.176 51.172,18.8 51.604,20.576 C50.404,20 49.06,19.712 47.668,19.712 C46.18,19.712 44.788,20.048 43.492,20.672 C43.828,18.848 44.596,18.176 45.988,18.176 L49.3,18.176 Z M16.084,31.424 C15.796,31.712 15.748,31.904 15.748,32.336 L15.748,33.44 C15.748,33.824 16.036,34.16 16.516,34.16 L18.244,34.16 C18.724,34.16 19.012,33.824 19.012,33.44 L19.012,32.336 C19.012,31.904 18.964,31.712 18.676,31.424 L18.004,30.752 C17.62,30.32 17.188,30.32 16.756,30.752 L16.084,31.424 Z M15.316,28.016 C15.028,27.728 14.836,27.68 14.404,27.68 L13.3,27.68 C12.916,27.68 12.58,27.968 12.58,28.448 L12.58,30.176 C12.58,30.656 12.916,30.944 13.3,30.944 L14.404,30.944 C14.836,30.944 15.028,30.896 15.316,30.608 L15.988,29.936 C16.42,29.552 16.42,29.12 15.988,28.688 L15.316,28.016 Z M18.82,28.688 C18.388,29.12 18.388,29.552 18.82,29.936 L19.492,30.608 C19.78,30.896 19.972,30.944 20.404,30.944 L21.508,30.944 C21.892,30.944 22.228,30.656 22.228,30.176 L22.228,28.448 C22.228,27.968 21.892,27.68 21.508,27.68 L20.404,27.68 C19.972,27.68 19.78,27.728 19.492,28.016 L18.82,28.688 Z M16.756,27.92 C17.188,28.352 17.62,28.352 18.004,27.92 L18.676,27.248 C18.964,26.96 19.012,26.768 19.012,26.336 L19.012,25.232 C19.012,24.848 18.724,24.512 18.244,24.512 L16.516,24.512 C16.036,24.512 15.748,24.848 15.748,25.232 L15.748,26.336 C15.748,26.768 15.796,26.96 16.084,27.248 L16.756,27.92 Z M47.764,34.64 C48.676,34.64 49.396,33.92 49.396,32.96 C49.396,32.048 48.676,31.28 47.764,31.28 C46.804,31.28 46.036,32.048 46.036,32.96 C46.036,33.92 46.804,34.64 47.764,34.64 Z M47.764,27.44 C48.676,27.44 49.396,26.672 49.396,25.808 C49.396,24.848 48.676,24.128 47.764,24.128 C46.804,24.128 46.036,24.848 46.036,25.808 C46.036,26.672 46.804,27.44 47.764,27.44 Z M51.364,31.04 C52.228,31.04 52.948,30.272 52.948,29.36 C52.948,28.448 52.228,27.728 51.364,27.728 C50.404,27.728 49.684,28.448 49.684,29.36 C49.684,30.272 50.404,31.04 51.364,31.04 Z M45.796,29.36 C45.796,28.448 45.028,27.728 44.164,27.728 C43.252,27.728 42.532,28.448 42.532,29.36 C42.532,30.272 43.252,31.04 44.164,31.04 C45.028,31.04 45.796,30.272 45.796,29.36 Z" id="L" sketch:type="MSShapeGroup"></path>
        </g>
    </g>
</svg>