<?xml version="1.0" encoding="UTF-8" standalone="no"?>
<svg width="64px" height="64px" viewBox="0 0 64 64" version="1.1" xmlns="http://www.w3.org/2000/svg" xmlns:xlink="http://www.w3.org/1999/xlink" xmlns:sketch="http://www.bohemiancoding.com/sketch/ns">
    <!-- Generator: Sketch 3.0.4 (8053) - http://www.bohemiancoding.com/sketch -->
    <title>icon2</title>
    <desc>Created with Sketch.</desc>
    <defs></defs>
    <g id="Page-1" stroke="none" stroke-width="1" fill="none" fill-rule="evenodd" sketch:type="MSPage">
        <g id="icon2" sketch:type="MSArtboardGroup" fill="#FFFFFF">
            <path d="M20.816,12.976 C19.184,13.504 18.752,13.984 18.752,15.376 L18.752,48.64 C18.752,50.032 19.232,50.56 20.816,51.04 C22.64,51.616 27.968,52.48 32,52.48 C36.032,52.48 41.36,51.616 43.184,51.04 C44.768,50.56 45.248,50.032 45.248,48.64 L45.248,15.376 C45.248,13.984 44.768,13.456 43.184,12.976 C41.36,12.4 36.032,11.536 32,11.536 C27.968,11.536 22.64,12.4 20.816,12.976 Z M21.152,49.648 C20.48,49.408 20.144,49.216 20.144,48.256 L20.144,15.76 C20.144,14.8 20.48,14.608 21.152,14.368 C22.928,13.744 28.016,12.928 32,12.928 C35.984,12.928 41.072,13.744 42.848,14.368 C43.52,14.608 43.856,14.8 43.856,15.712 L43.856,48.256 C43.856,49.216 43.52,49.408 42.848,49.648 C41.072,50.272 35.984,51.088 32,51.088 C28.016,51.088 22.928,50.272 21.152,49.648 Z M22.928,17.056 C21.776,17.056 21.536,17.392 21.536,18.448 L21.536,32.416 C21.536,33.472 21.968,34 23.024,34 L40.976,34 C42.032,34 42.464,33.472 42.464,32.416 L42.464,18.448 C42.464,17.392 42.08,17.056 41.072,17.056 L22.928,17.056 Z M41.072,32.608 L22.928,32.608 L22.928,18.448 L41.072,18.448 L41.072,32.608 Z M32,38.08 C32.864,38.08 33.488,37.456 33.488,36.64 C33.488,35.776 32.864,35.152 32,35.152 C31.184,35.152 30.56,35.776 30.56,36.64 C30.56,37.456 31.184,38.08 32,38.08 Z M36.896,35.536 C36.368,35.536 36.128,35.776 36.128,36.256 L36.128,37.072 C36.128,37.552 36.368,37.744 36.896,37.744 L37.808,37.744 C38.288,37.744 38.576,37.552 38.576,37.072 L38.576,36.256 C38.576,35.776 38.288,35.536 37.808,35.536 L36.896,35.536 Z M40.496,35.536 C39.968,35.536 39.728,35.776 39.728,36.256 L39.728,37.072 C39.728,37.552 39.968,37.744 40.496,37.744 L41.408,37.744 C41.888,37.744 42.176,37.552 42.176,37.072 L42.176,36.256 C42.176,35.776 41.888,35.536 41.408,35.536 L40.496,35.536 Z M22.544,35.536 C22.016,35.536 21.776,35.776 21.776,36.256 L21.776,37.072 C21.776,37.552 22.016,37.744 22.544,37.744 L23.456,37.744 C23.936,37.744 24.224,37.552 24.224,37.072 L24.224,36.256 C24.224,35.776 23.936,35.536 23.456,35.536 L22.544,35.536 Z M26.144,35.536 C25.616,35.536 25.376,35.776 25.376,36.256 L25.376,37.072 C25.376,37.552 25.616,37.744 26.144,37.744 L27.056,37.744 C27.536,37.744 27.824,37.552 27.824,37.072 L27.824,36.256 C27.824,35.776 27.536,35.536 27.056,35.536 L26.144,35.536 Z M36.896,39.136 C36.368,39.136 36.128,39.376 36.128,39.856 L36.128,40.672 C36.128,41.152 36.368,41.344 36.896,41.344 L37.808,41.344 C38.288,41.344 38.576,41.152 38.576,40.672 L38.576,39.856 C38.576,39.376 38.288,39.136 37.808,39.136 L36.896,39.136 Z M40.496,39.136 C39.968,39.136 39.728,39.376 39.728,39.856 L39.728,40.672 C39.728,41.152 39.968,41.344 40.496,41.344 L41.408,41.344 C41.888,41.344 42.176,41.152 42.176,40.672 L42.176,39.856 C42.176,39.376 41.888,39.136 41.408,39.136 L40.496,39.136 Z M22.544,39.136 C22.016,39.136 21.776,39.376 21.776,39.856 L21.776,40.672 C21.776,41.152 22.016,41.344 22.544,41.344 L23.456,41.344 C23.936,41.344 24.224,41.152 24.224,40.672 L24.224,39.856 C24.224,39.376 23.936,39.136 23.456,39.136 L22.544,39.136 Z M26.144,39.136 C25.616,39.136 25.376,39.376 25.376,39.856 L25.376,40.672 C25.376,41.152 25.616,41.344 26.144,41.344 L27.056,41.344 C27.536,41.344 27.824,41.152 27.824,40.672 L27.824,39.856 C27.824,39.376 27.536,39.136 27.056,39.136 L26.144,39.136 Z M36.896,42.736 C36.368,42.736 36.128,42.976 36.128,43.456 L36.128,44.272 C36.128,44.752 36.368,44.944 36.896,44.944 L37.808,44.944 C38.288,44.944 38.576,44.752 38.576,44.272 L38.576,43.456 C38.576,42.976 38.288,42.736 37.808,42.736 L36.896,42.736 Z M40.496,42.736 C39.968,42.736 39.728,42.976 39.728,43.456 L39.728,44.272 C39.728,44.752 39.968,44.944 40.496,44.944 L41.408,44.944 C41.888,44.944 42.176,44.752 42.176,44.272 L42.176,43.456 C42.176,42.976 41.888,42.736 41.408,42.736 L40.496,42.736 Z M22.544,42.736 C22.016,42.736 21.776,42.976 21.776,43.456 L21.776,44.272 C21.776,44.752 22.016,44.944 22.544,44.944 L23.456,44.944 C23.936,44.944 24.224,44.752 24.224,44.272 L24.224,43.456 C24.224,42.976 23.936,42.736 23.456,42.736 L22.544,42.736 Z M26.144,42.736 C25.616,42.736 25.376,42.976 25.376,43.456 L25.376,44.272 C25.376,44.752 25.616,44.944 26.144,44.944 L27.056,44.944 C27.536,44.944 27.824,44.752 27.824,44.272 L27.824,43.456 C27.824,42.976 27.536,42.736 27.056,42.736 L26.144,42.736 Z M36.896,46.336 C36.368,46.336 36.128,46.576 36.128,47.056 L36.128,47.872 C36.128,48.352 36.368,48.544 36.896,48.544 L37.808,48.544 C38.288,48.544 38.576,48.352 38.576,47.872 L38.576,47.056 C38.576,46.576 38.288,46.336 37.808,46.336 L36.896,46.336 Z M40.496,46.336 C39.968,46.336 39.728,46.576 39.728,47.056 L39.728,47.872 C39.728,48.352 39.968,48.544 40.496,48.544 L41.408,48.544 C41.888,48.544 42.176,48.352 42.176,47.872 L42.176,47.056 C42.176,46.576 41.888,46.336 41.408,46.336 L40.496,46.336 Z M22.544,46.336 C22.016,46.336 21.776,46.576 21.776,47.056 L21.776,47.872 C21.776,48.352 22.016,48.544 22.544,48.544 L23.456,48.544 C23.936,48.544 24.224,48.352 24.224,47.872 L24.224,47.056 C24.224,46.576 23.936,46.336 23.456,46.336 L22.544,46.336 Z M26.144,46.336 C25.616,46.336 25.376,46.576 25.376,47.056 L25.376,47.872 C25.376,48.352 25.616,48.544 26.144,48.544 L27.056,48.544 C27.536,48.544 27.824,48.352 27.824,47.872 L27.824,47.056 C27.824,46.576 27.536,46.336 27.056,46.336 L26.144,46.336 Z M29.744,42.736 C29.216,42.736 28.976,42.976 28.976,43.456 L28.976,44.272 C28.976,44.752 29.216,44.944 29.744,44.944 L30.656,44.944 C31.136,44.944 31.424,44.752 31.424,44.272 L31.424,43.456 C31.424,42.976 31.136,42.736 30.656,42.736 L29.744,42.736 Z M33.296,42.736 C32.768,42.736 32.528,42.976 32.528,43.456 L32.528,44.272 C32.528,44.752 32.768,44.944 33.296,44.944 L34.208,44.944 C34.688,44.944 34.976,44.752 34.976,44.272 L34.976,43.456 C34.976,42.976 34.688,42.736 34.208,42.736 L33.296,42.736 Z M29.744,46.336 C29.216,46.336 28.976,46.576 28.976,47.056 L28.976,47.872 C28.976,48.352 29.216,48.544 29.744,48.544 L34.208,48.544 C34.688,48.544 34.976,48.352 34.976,47.872 L34.976,47.056 C34.976,46.576 34.688,46.336 34.208,46.336 L29.744,46.336 Z M29.744,39.136 C29.216,39.136 28.976,39.376 28.976,39.856 L28.976,40.672 C28.976,41.152 29.216,41.344 29.744,41.344 L30.656,41.344 C31.136,41.344 31.424,41.152 31.424,40.672 L31.424,39.856 C31.424,39.376 31.136,39.136 30.656,39.136 L29.744,39.136 Z M33.296,39.136 C32.768,39.136 32.528,39.376 32.528,39.856 L32.528,40.672 C32.528,41.152 32.768,41.344 33.296,41.344 L34.208,41.344 C34.688,41.344 34.976,41.152 34.976,40.672 L34.976,39.856 C34.976,39.376 34.688,39.136 34.208,39.136 L33.296,39.136 Z M29.312,14.992 C29.312,15.376 29.6,15.664 29.984,15.664 L34.064,15.664 C34.448,15.664 34.736,15.376 34.736,14.992 C34.736,14.608 34.448,14.32 34.064,14.32 L29.984,14.32 C29.6,14.32 29.312,14.608 29.312,14.992 Z" id="a" sketch:type="MSShapeGroup"></path>
        </g>
    </g>
</svg>