<?xml version="1.0" encoding="UTF-8" standalone="no"?>
<svg width="64px" height="64px" viewBox="0 0 64 64" version="1.1" xmlns="http://www.w3.org/2000/svg" xmlns:xlink="http://www.w3.org/1999/xlink" xmlns:sketch="http://www.bohemiancoding.com/sketch/ns">
    <!-- Generator: Sketch 3.0.4 (8053) - http://www.bohemiancoding.com/sketch -->
    <title>icon-id2</title>
    <desc>Created with Sketch.</desc>
    <defs></defs>
    <g id="Page-1" stroke="none" stroke-width="1" fill="none" fill-rule="evenodd" sketch:type="MSPage">
        <g id="icon-id2" sketch:type="MSArtboardGroup" fill="#FFFFFF">
            <path d="M33.9258182,9.665 L33.9258182,8.891 C33.9258182,7.847 33.0788182,7 32.0348182,7 C30.9908182,7 30.1448182,7.847 30.1448182,8.891 L30.1448182,9.649 C12.7448182,10.797 7.08481816,28.411 7.02881816,28.594 C6.94681816,28.861 7.04381816,29.148 7.26881816,29.309 C7.38081816,29.388 7.51181816,29.428 7.64281816,29.428 C7.77581816,29.428 7.90881816,29.388 8.02081816,29.305 C10.3778182,27.588 12.6028182,26.718 14.6328182,26.718 C17.3618182,26.718 18.7768182,28.292 18.8338182,28.357 C18.9488182,28.491 19.1138182,28.571 19.2908182,28.58 C19.4598182,28.578 19.6388182,28.523 19.7658182,28.402 C21.0558182,27.164 22.4088182,26.537 23.7878182,26.537 C25.9508182,26.537 27.5118182,28.09 27.5258182,28.105 C27.7598182,28.344 28.1398182,28.364 28.3978182,28.148 C28.9758182,27.665 29.5588182,27.305 30.1448182,27.033 L30.1448182,52.655 C30.1148182,53.683 29.6028182,54.203 28.6208182,54.203 C27.6388182,54.203 27.1268182,53.683 27.0968182,52.68 L27.0968182,51.423 C27.0968182,50.379 26.2508182,49.533 25.2068182,49.533 C24.1628182,49.533 23.3158182,50.379 23.3158182,51.423 L23.3158182,52.68 C23.3158182,54.813 24.7288182,57.984 28.6208182,57.984 C32.5118182,57.984 33.9258182,54.813 33.9258182,52.68 L33.9258182,26.744 C35.6178182,27.286 36.7108182,28.525 36.7248182,28.542 C36.8438182,28.682 37.0178182,28.765 37.2028182,28.769 C37.3498182,28.756 37.5638182,28.698 37.6878182,28.561 C38.9148182,27.223 40.3308182,26.544 41.8958182,26.544 C44.0828182,26.544 45.8478182,27.869 45.8648182,27.884 C46.0888182,28.054 46.4038182,28.059 46.6318182,27.893 C47.6858182,27.132 48.8568182,26.745 50.1148182,26.745 C52.8128182,26.745 55.0608182,28.516 55.0838182,28.534 C55.3008182,28.708 55.6068182,28.724 55.8398182,28.567 C56.0728182,28.413 56.1798182,28.127 56.1048182,27.858 C56.0548182,27.682 51.1338182,10.88 33.9258182,9.665 Z M17.1588182,37.226 C15.3438182,37.226 13.8728182,38.697 13.8728182,40.512 C13.8728182,42.326 15.3438182,43.797 17.1588182,43.797 C18.9728182,43.797 20.4438182,42.326 20.4438182,40.512 C20.4438182,38.697 18.9728182,37.226 17.1588182,37.226 Z" id="Fill-1" sketch:type="MSShapeGroup"></path>
        </g>
    </g>
</svg>