<?xml version="1.0" encoding="UTF-8" standalone="no"?>
<svg width="64px" height="64px" viewBox="0 0 64 64" version="1.1" xmlns="http://www.w3.org/2000/svg" xmlns:xlink="http://www.w3.org/1999/xlink" xmlns:sketch="http://www.bohemiancoding.com/sketch/ns">
    <!-- Generator: Sketch 3.0.4 (8053) - http://www.bohemiancoding.com/sketch -->
    <title>icon3</title>
    <desc>Created with Sketch.</desc>
    <defs></defs>
    <g id="Page-1" stroke="none" stroke-width="1" fill="none" fill-rule="evenodd" sketch:type="MSPage">
        <g id="icon3" sketch:type="MSArtboardGroup" fill="#FFFFFF">
            <path d="M25.18,9.88 C21.82,9.88 20.524,11.128 20.524,14.632 L20.524,50.2 C20.524,53.752 21.82,55 25.132,55 L39.868,55 C43.18,55 44.476,53.752 44.476,50.248 L44.476,14.632 C44.476,11.128 43.18,9.88 39.868,9.88 L25.18,9.88 Z M21.916,17.512 L43.084,17.512 L43.084,45.88 L21.916,45.88 L21.916,17.512 Z M24.652,53.608 C22.684,53.608 21.916,52.648 21.916,50.584 L21.916,47.224 L43.084,47.224 L43.084,50.584 C43.084,52.648 42.316,53.608 40.3,53.608 L24.652,53.608 Z M21.916,14.296 C21.916,12.232 22.684,11.272 24.7,11.272 L40.3,11.272 C42.316,11.272 43.084,12.232 43.084,14.296 L43.084,16.168 L21.916,16.168 L21.916,14.296 Z M29.788,13.768 C29.788,14.152 30.076,14.44 30.46,14.44 L34.54,14.44 C34.924,14.44 35.212,14.152 35.212,13.768 C35.212,13.384 34.924,13.096 34.54,13.096 L30.46,13.096 C30.076,13.096 29.788,13.384 29.788,13.768 Z M30.412,50.584 C30.412,51.736 31.324,52.648 32.476,52.648 C33.628,52.648 34.54,51.736 34.54,50.584 C34.54,49.432 33.628,48.52 32.476,48.52 C31.324,48.52 30.412,49.432 30.412,50.584 Z M32.764,49.768 C33.1,49.768 33.292,49.912 33.292,50.296 L33.292,50.92 C33.292,51.304 33.1,51.4 32.764,51.4 L32.188,51.4 C31.804,51.4 31.66,51.304 31.66,50.92 L31.66,50.248 C31.66,49.912 31.804,49.768 32.188,49.768 L32.764,49.768 Z" id="o" sketch:type="MSShapeGroup"></path>
        </g>
    </g>
</svg>