<?xml version="1.0" encoding="UTF-8" standalone="no"?>
<svg width="64px" height="64px" viewBox="0 0 64 64" version="1.1" xmlns="http://www.w3.org/2000/svg" xmlns:xlink="http://www.w3.org/1999/xlink" xmlns:sketch="http://www.bohemiancoding.com/sketch/ns">
    <!-- Generator: Sketch 3.0.4 (8053) - http://www.bohemiancoding.com/sketch -->
    <title>icon7</title>
    <desc>Created with Sketch.</desc>
    <defs></defs>
    <g id="Page-1" stroke="none" stroke-width="1" fill="none" fill-rule="evenodd" sketch:type="MSPage">
        <g id="icon7" sketch:type="MSArtboardGroup" fill="#FFFFFF">
            <path d="M46.065,55 C46.645,55 46.935,54.652 46.935,54.13 L46.935,51.462 L47.051,51.462 C48.327,51.462 48.675,51.056 48.675,49.78 L48.675,11.964 C48.675,10.746 48.269,10.282 47.051,10.282 L17.007,10.282 C15.673,10.282 15.325,10.746 15.325,11.964 L15.325,49.78 C15.325,50.998 15.905,51.462 17.007,51.462 L17.413,51.462 L17.413,54.13 C17.413,54.652 17.703,55 18.283,55 L46.065,55 Z M17.007,11.964 L47.051,11.964 L47.051,49.78 L17.007,49.78 L17.007,11.964 Z M20.313,13.646 C19.095,13.646 18.689,13.936 18.689,15.328 L18.689,32.96 C18.689,34.352 19.095,34.642 20.313,34.642 L43.745,34.642 C44.963,34.642 45.369,34.236 45.369,32.96 L45.369,15.212 C45.369,13.994 45.021,13.646 43.745,13.646 L20.313,13.646 Z M43.745,32.96 L20.313,32.96 L20.313,15.328 L43.745,15.328 L43.745,32.96 Z M45.253,51.462 L45.253,53.318 L19.095,53.318 L19.095,51.462 L45.253,51.462 Z M34.117,43.69 C33.595,43.69 33.305,43.98 33.305,44.502 C33.305,45.024 33.595,45.372 34.117,45.372 L43.223,45.372 C43.861,45.372 44.209,45.082 44.209,44.502 C44.209,43.98 43.861,43.69 43.281,43.69 L34.117,43.69 Z" id="c" sketch:type="MSShapeGroup"></path>
        </g>
    </g>
</svg>