<?xml version="1.0" encoding="UTF-8" standalone="no"?>
<svg width="64px" height="64px" viewBox="0 0 64 64" version="1.1" xmlns="http://www.w3.org/2000/svg" xmlns:xlink="http://www.w3.org/1999/xlink" xmlns:sketch="http://www.bohemiancoding.com/sketch/ns">
    <!-- Generator: Sketch 3.0.4 (8053) - http://www.bohemiancoding.com/sketch -->
    <title>icon6</title>
    <desc>Created with Sketch.</desc>
    <defs></defs>
    <g id="Page-1" stroke="none" stroke-width="1" fill="none" fill-rule="evenodd" sketch:type="MSPage">
        <g id="icon6" sketch:type="MSArtboardGroup" fill="#FFFFFF">
            <path d="M12.971,16.895 C11.732,16.895 11.319,17.19 11.319,18.606 L11.319,50.289 C11.319,51.705 11.732,52 12.971,52 L52.029,52 C53.268,52 53.681,51.587 53.681,50.289 L53.681,18.488 C53.681,17.249 53.327,16.895 52.029,16.895 L12.971,16.895 Z M52.029,50.289 L12.971,50.289 L12.971,25.45 L52.029,25.45 L52.029,50.289 Z M12.971,23.739 L12.971,18.606 L52.029,18.606 L52.029,23.739 L12.971,23.739 Z M23.296,20.317 C22.706,20.317 22.352,20.612 22.352,21.143 C22.352,21.733 22.706,22.028 23.355,22.028 L41.468,22.028 C41.999,22.028 42.294,21.674 42.294,21.143 C42.294,20.612 41.999,20.317 41.468,20.317 L23.296,20.317 Z M44.949,20.317 C44.359,20.317 44.005,20.612 44.005,21.143 C44.005,21.733 44.359,22.028 45.008,22.028 L49.492,22.028 C50.023,22.028 50.318,21.674 50.318,21.143 C50.318,20.612 50.023,20.317 49.492,20.317 L44.949,20.317 Z M14.918,20.907 C14.623,21.025 14.623,21.32 14.918,21.497 L16.157,22.146 C16.57,22.323 16.747,22.205 16.747,21.792 L16.747,20.494 C16.747,20.14 16.57,20.022 16.157,20.199 L14.918,20.907 Z M19.048,20.199 C18.635,20.022 18.458,20.14 18.458,20.494 L18.458,21.792 C18.458,22.205 18.635,22.323 19.048,22.146 L20.287,21.497 C20.582,21.32 20.582,21.084 20.287,20.907 L19.048,20.199 Z" id="n" sketch:type="MSShapeGroup"></path>
        </g>
    </g>
</svg>