<?xml version="1.0" encoding="UTF-8" standalone="no"?>
<svg width="64px" height="64px" viewBox="0 0 64 64" version="1.1" xmlns="http://www.w3.org/2000/svg" xmlns:xlink="http://www.w3.org/1999/xlink" xmlns:sketch="http://www.bohemiancoding.com/sketch/ns">
    <!-- Generator: Sketch 3.0.4 (8053) - http://www.bohemiancoding.com/sketch -->
    <title>icon5</title>
    <desc>Created with Sketch.</desc>
    <defs></defs>
    <g id="Page-1" stroke="none" stroke-width="1" fill="none" fill-rule="evenodd" sketch:type="MSPage">
        <g id="icon5" sketch:type="MSArtboardGroup" fill="#FFFFFF">
            <path d="M46.348,49 C46.828,49 47.068,48.712 47.068,48.28 C47.068,47.848 46.828,47.608 46.348,47.608 L35.308,47.608 L35.308,46.072 L54.172,46.072 C55.228,46.072 55.516,45.736 55.516,44.68 L55.516,20.536 C55.516,19.528 55.18,19.144 54.172,19.144 L10.876,19.144 C9.772,19.144 9.484,19.528 9.484,20.536 L9.484,44.68 C9.484,45.688 9.964,46.072 10.876,46.072 L29.74,46.072 L29.74,47.608 L17.788,47.608 C17.308,47.608 17.068,47.848 17.068,48.28 C17.068,48.712 17.308,49 17.788,49 L46.348,49 Z M10.876,20.536 L54.172,20.536 L54.172,44.68 L10.876,44.68 L10.876,20.536 Z M16.012,21.928 C15.004,21.928 14.668,22.168 14.668,23.32 L14.668,41.896 C14.668,43.048 15.004,43.288 16.012,43.288 L49.036,43.288 C50.044,43.288 50.38,42.952 50.38,41.896 L50.38,23.224 C50.38,22.216 50.092,21.928 49.036,21.928 L16.012,21.928 Z M49.036,41.896 L16.012,41.896 L16.012,23.32 L49.036,23.32 L49.036,41.896 Z M33.916,46.072 L33.916,47.608 L31.132,47.608 L31.132,46.072 L33.916,46.072 Z" id="F" sketch:type="MSShapeGroup"></path>
        </g>
    </g>
</svg>