<?xml version="1.0" encoding="UTF-8" standalone="no"?>
<svg width="1000px" height="600px" viewBox="0 0 1000 600" version="1.1" xmlns="http://www.w3.org/2000/svg" xmlns:xlink="http://www.w3.org/1999/xlink" xmlns:sketch="http://www.bohemiancoding.com/sketch/ns">
    <!-- Generator: Sketch 3.0.4 (8053) - http://www.bohemiancoding.com/sketch -->
    <title>bigtext</title>
    <desc>Created with Sketch.</desc>
    <defs></defs>
    <g id="Page-1" stroke="none" stroke-width="1" fill="none" fill-rule="evenodd" sketch:type="MSPage">
        <g id="柯P-unlimited-desktop" sketch:type="MSArtboardGroup" transform="translate(-12.000000, -52.000000)" fill="#FFFFFF">
            <g id="title" sketch:type="MSLayerGroup" transform="translate(12.000000, 52.000000)">
                <g id="柯-+-P-+-Unlimited" sketch:type="MSShapeGroup">
                    <path d="M206.47619,23.8647045 L206.47619,129.070886 C206.47619,136.898727 206.47619,150.988837 206.47619,150.988837 C206.47619,150.988837 217.428571,150.988841 223.687075,150.988841 L254.040816,150.988841 L254.040816,160.695364 L229.632653,160.695364 C223.061224,160.695364 210.231292,160.695364 210.231292,160.695364 C210.231292,160.695364 210.231293,176.664159 210.231293,185.118227 C210.231293,192.946068 210.231292,209.541095 210.231292,209.541095 C210.231292,209.541095 223.37415,209.541091 229.632653,209.541091 L254.040816,209.541091 L254.040816,223.318091 C237.455782,224.883659 202.721088,225.509886 202.721088,225.509886 C202.721088,232.480182 205.22449,283.122795 205.22449,283.122795 C277.711173,274.537154 300.979592,272.163818 345.727891,265.901545 C344.163265,257.760591 343.537415,232.7115 344.163265,227.701682 C354.802721,247.740955 361.687075,266.840886 365.442177,285.627705 L396.421769,285.627705 C406.748299,285.627705 414.884354,282.496568 420.829932,276.234295 C426.14966,270.911364 428.965986,263.083523 428.965986,252.437659 L428.965986,206.409955 C439.605442,210.793545 449.931973,216.742705 459.632653,224.257432 C477.156463,198.895227 485.918367,169.462545 486.544218,135.959386 C486.544218,124.374182 486.544219,105.587366 486.544219,105.587366 C486.544219,105.587366 472.77551,105.587364 465.578231,105.587364 L447.741497,105.587364 C456.190476,89.6185682 465.265306,72.0842045 475.278912,52.9842727 L475.278912,27.3089545 C475.278912,17.9155455 475.278924,1.63363637 475.278924,1.63363637 C475.278924,1.63363637 456.816327,1.63363636 447.428571,1.63363636 L376.394558,1.63363636 C368.571429,1.63363636 350.73469,1.63363637 350.73469,1.63363637 C350.73469,1.63363637 350.734694,19.4811136 350.734694,27.3089545 C350.734694,34.8236818 350.73469,54.2367284 350.73469,54.2367284 C350.73469,54.2367284 364.190476,54.5498409 370.44898,54.2367273 C363.877551,64.8825909 356.367347,74.5891136 348.231293,83.6694091 C356.993197,90.2447955 365.755102,97.4464091 374.517007,105.587364 C366.380952,105.587364 348.231288,105.587366 348.231288,105.587366 C348.231288,105.587366 348.231293,123.434841 348.231293,131.262682 C348.231293,138.777409 348.231288,158.190455 348.231288,158.190455 C348.231288,158.190455 366.693878,158.190455 373.891156,158.190455 L375.142857,158.190455 L375.142857,223.004977 C375.142857,227.388568 372.639456,229.26725 367.945578,229.26725 C359.809524,229.26725 351.986395,228.641023 344.163265,226.762341 C344.47619,222.691864 345.102041,218.308273 345.727891,213.298455 C336.340136,214.864023 326.639456,216.116477 317.251701,217.055818 C310.054422,217.995159 303.170068,218.621386 296.911565,219.247614 L296.911565,209.541091 L318.816327,209.541091 C326.326531,209.541091 338.530617,209.541095 338.530617,209.541095 C338.530617,209.541095 338.530612,193.572295 338.530612,185.118227 C338.530612,176.977273 338.530617,160.695364 338.530617,160.695364 C338.530617,160.695364 325.70068,160.695364 318.816327,160.695364 L296.911565,160.695364 L296.911565,150.988841 L326.326531,150.988841 C332.272109,150.988841 343.53742,150.988837 343.53742,150.988837 C343.53742,150.988837 343.537415,136.898727 343.537415,129.070886 L343.537415,23.8647045 C343.537415,16.0368636 343.53742,1.63363637 343.53742,1.63363637 C343.53742,1.63363637 332.272109,1.63363636 326.326531,1.63363636 L223.687075,1.63363636 C217.428571,1.63363636 206.47619,1.63363637 206.47619,1.63363637 C206.47619,1.63363637 206.47619,16.0368636 206.47619,23.8647045 Z M309.115646,106.839818 L296.911565,106.839818 L296.911565,97.1332955 L309.115646,97.1332955 L309.115646,106.839818 Z M254.040816,106.839818 L240.585034,106.839818 L240.585034,97.1332955 L254.040816,97.1332955 L254.040816,106.839818 Z M240.585034,56.7416364 L240.585034,45.7826591 L254.040816,45.7826591 L254.040816,56.7416364 L240.585034,56.7416364 Z M296.911565,45.7826591 L309.115646,45.7826591 L309.115646,56.7416364 L296.911565,56.7416364 L296.911565,45.7826591 Z M428.965986,158.190455 L443.673469,158.190455 C440.544218,169.149432 435.85034,179.482182 428.965986,188.875591 L428.965986,158.190455 Z M387.034014,54.2367273 L418.013605,54.2367273 C414.884354,59.5596591 411.442177,64.5694773 408.312925,69.2661818 C401.428571,63.94325 394.231293,58.9334318 387.034014,54.2367273 Z M530.666667,56.1154091 C524.408163,72.3973182 516.897959,85.8612045 508.44898,97.1332955 C520.776694,110.625731 530.979592,120.303705 541.619048,134.706932 C536.612245,134.706932 526.598639,135.02005 526.598639,135.02005 L526.598639,191.380496 L625.795918,191.3805 L625.795918,226.762341 L514.394558,226.76235 L514.394558,283.122796 L799.469379,283.122796 L799.469379,226.76235 L691.823129,226.762341 L691.823129,191.3805 L786.952372,191.380496 L786.952372,135.02005 L691.823129,135.020045 L691.823129,99.6382045 L794.462576,99.6382029 C794.462576,99.6382029 794.462585,80.8513864 794.462585,71.4579773 C794.462585,61.7514545 794.462576,43.2777502 794.462576,43.2777502 L691.823129,43.27775 L691.823129,22.61225 C691.823129,17.6024318 691.823125,1.63363636 691.823125,1.63363636 L625.795918,1.63363634 L625.795918,43.27775 L593.877551,43.27775 C595.755102,37.0154773 599.101964,19.5689681 600.761905,11.9663864 C578.231293,8.83525 559.768707,5.391 545.061224,1.63363636 C541.931973,21.3597955 536.92517,39.5203864 530.666667,56.1154091 Z M625.795918,135.020045 L552.884354,135.020045 C559.768707,123.121727 566.340136,111.536523 571.972789,99.6382045 L625.795918,99.6382045 L625.795918,135.020045 Z M315.061224,325.70625 L201.469388,325.70625 L201.469388,417.448545 C201.469388,417.448545 218.680272,417.448545 228.380952,417.448545 L228.380953,598.741352 L288.775508,598.741352 L288.77551,591.226614 L405.183673,591.226614 L405.183668,598.741352 L464.326526,598.741352 L464.326526,491.030252 L287.210884,491.03025 L287.210884,481.323727 L447.428559,481.323725 L447.428571,417.448545 L484.040804,417.448545 L484.040804,325.70625 L372.326531,325.70625 L372.326525,303.420727 L315.061224,303.420727 C315.061224,303.420727 314.748299,320.070205 315.061224,325.70625 Z M287.210884,544.885795 L287.210884,534.866159 L405.809524,534.866159 L405.809524,544.885795 L287.210884,544.885795 Z M260.29932,388.328977 L260.29932,378.309341 L423.959184,378.309341 L423.959184,388.328977 L260.29932,388.328977 Z M287.210884,439.679614 L287.210884,429.659977 L389.85034,429.659977 L389.85034,439.679614 L287.210884,439.679614 Z M538.176871,348.876659 C535.047619,346.684864 532.231293,344.179955 529.102041,341.675045 C520.844014,361.347427 516.585034,374.551977 508.44898,389.581432 C521.591837,398.974841 533.482993,409.307591 544.748299,420.266568 C539.741497,426.215727 534.108844,432.164886 528.47619,438.427159 L512.204082,438.427159 C513.455782,447.194341 515.915958,486.214301 515.915958,486.214301 C515.915958,486.214301 540.680272,482.263068 550.068027,481.323727 L550.068027,597.48889 L593.877548,597.48889 L593.877551,477.566364 C599.197279,476.940136 604.517007,476.627023 610.14966,476.000795 C610.77551,481.010614 611.714286,486.020432 612.340136,491.03025 C618.285714,486.959773 624.857143,483.515523 631.741497,480.6975 L631.7415,597.48889 C631.7415,597.48889 646.136054,597.488886 653.959184,597.488886 C661.469388,597.488886 675.86395,598.741332 675.86395,598.741332 L675.863946,492.282705 L684.312925,492.282705 L684.312925,525.159636 C684.312925,536.744841 690.258503,542.380886 702.77551,542.380886 L730.938776,542.380886 C736.884354,542.380886 747.836725,542.380886 747.836725,542.380886 L747.836725,507.93839 C747.836725,507.93839 738.44898,507.938386 732.816327,507.938386 C725.619048,507.938386 722.176871,504.494136 722.176871,498.231864 L722.176871,492.282705 L751.591837,492.282705 L751.591837,549.5825 C751.591837,553.02675 749.401361,554.592318 745.646259,554.592318 C737.510204,554.592318 723.910153,554.592309 723.910153,554.592309 C723.910153,554.592309 729.061224,580.58075 730.938776,597.488886 L766.92517,597.488886 C786.013605,597.488886 795.714286,586.216795 795.714286,564.298841 L795.71429,318.504636 L631.7415,318.504636 L631.741497,363.593 C620.47619,357.017614 610.462585,349.816 601.387755,341.675045 C592.938776,355.452045 584.176871,368.602818 574.789116,381.753591 C572.911565,379.874909 570.721088,377.996227 568.530612,375.804432 C578.440747,359.949361 597.03639,324.658158 597.03639,324.658158 C597.03639,324.658158 569.516693,314.211475 558.877237,309.827884 C552.879261,322.534061 545.061224,336.352114 538.176871,348.876659 Z M675.863946,451.891045 L675.863946,433.417341 L691.823129,433.417341 L691.823129,451.891045 L675.863946,451.891045 Z M735.632653,433.417341 L751.591837,433.417341 L751.591837,451.891045 L735.632653,451.891045 L735.632653,433.417341 Z M675.863946,394.278136 L675.863946,369.855273 L681.809524,369.855273 L685.251701,394.278136 L675.863946,394.278136 Z M712.163265,394.278136 L708.721088,369.855273 L721.238095,369.855273 L717.795918,394.278136 L712.163265,394.278136 Z M743.455782,394.278136 L746.897959,369.855273 L751.591837,369.855273 L751.591837,394.278136 L743.455782,394.278136 Z M631.741497,439.992727 C628.612245,428.720636 624.857143,418.074773 620.789116,407.742023 C613.591837,411.499386 606.081633,414.317409 597.945578,416.822318 C608.897959,402.419091 620.163265,387.076523 631.741497,371.107727 L631.741497,439.992727 Z M600.761905,432.164886 L599.197279,432.164886 C594.816327,432.791114 590.122449,433.104227 585.428571,433.417341 C589.183673,428.720636 592.938776,423.710818 596.693878,418.387886 C597.945578,422.771477 599.197279,427.468182 600.761905,432.164886 Z M511.944968,582.431071 C521.958574,583.683526 528.346634,585.306405 540.613807,587.447304 C543.403453,567.917611 544.748299,495.726955 544.748299,495.726955 C544.748299,495.726955 523.782313,493.848273 515.646259,492.282705 C517.210884,504.80725 515.646259,562.584575 511.944968,582.431071 Z M620.789116,492.282705 C612.965986,494.787614 604.829932,496.666295 596.380952,498.231864 C600.44898,522.0285 603.265306,546.764477 604.829932,573.066023 C614.843537,569.621773 623.605442,567.429977 630.489796,565.551295 C627.986395,542.380886 624.544218,517.958023 620.789116,492.282705 Z" id="野生"></path>
                </g>
            </g>
        </g>
    </g>
</svg>