<?xml version="1.0" encoding="UTF-8" standalone="no"?>
<svg width="225px" height="45px" viewBox="0 0 225 45" version="1.1" xmlns="http://www.w3.org/2000/svg" xmlns:xlink="http://www.w3.org/1999/xlink" xmlns:sketch="http://www.bohemiancoding.com/sketch/ns">
    <!-- Generator: Sketch 3.0.4 (8053) - http://www.bohemiancoding.com/sketch -->
    <title>designers_en</title>
    <desc>Created with Sketch.</desc>
    <defs></defs>
    <g id="Page-1" stroke="none" stroke-width="1" fill="none" fill-rule="evenodd" sketch:type="MSPage">
        <g id="柯P-unlimited-desktop" sketch:type="MSArtboardGroup" transform="translate(-31.000000, -1534.000000)" fill="#FFFFFF">
            <g id="Designer-and-Developers" sketch:type="MSLayerGroup" transform="translate(0.000000, 1498.000000)">
                <g id="title" transform="translate(29.000000, 36.000000)" sketch:type="MSShapeGroup">
                    <path d="M3.01600082,1.39999449 L3.01600082,35 L15.2800028,35 C26.4640047,35 33.4480058,28.5199989 33.4480058,18.1999972 C33.4480058,7.87999555 26.4640047,1.39999449 15.2800028,1.39999449 L3.01600082,1.39999449 Z M15.2800028,4.18399495 C25.0480044,4.18399495 30.3760053,9.65599585 30.3760053,18.1999972 C30.3760053,26.7199986 25.0480044,32.2159995 15.2800028,32.2159995 L5.9440013,32.2159995 L5.9440013,4.18399495 L15.2800028,4.18399495 Z M50.2000023,12.0559962 C43.8400012,12.0559962 39.0160004,16.903997 39.0160004,23.7199982 C39.0160004,30.6079993 43.7680012,35.3600001 50.3680023,35.3600001 C53.6320028,35.3600001 56.7760033,34.5439999 59.6320038,31.6399994 L58.1680036,29.7679991 C56.1760032,31.7359995 53.6800028,32.9839997 50.5360023,32.9839997 C45.9040015,32.9839997 42.2080009,29.9599992 41.8000009,24.7039983 L60.736004,24.7039983 C60.760004,24.3679983 60.784004,23.9839982 60.784004,23.5759981 C60.712004,16.831997 56.2240032,12.0559962 50.2000023,12.0559962 Z M50.1520022,14.4799966 C54.4000029,14.4799966 57.5920035,17.6719972 58.0000035,22.3519979 L41.8480009,22.3519979 C42.376001,17.7679972 45.5680015,14.4799966 50.1520022,14.4799966 Z M83.9440034,14.5999967 C81.904003,13.1359964 78.6640025,12.0559962 75.0880019,12.0559962 C69.8800011,12.0559962 66.3040005,14.5279966 66.3040005,18.6799973 C66.3040005,21.8959979 68.5120008,24.1279982 73.6240017,24.7039983 L76.5280022,25.0159984 C80.0080027,25.3999984 81.736003,26.6719986 81.736003,28.759999 C81.736003,31.5919994 78.9280026,32.9839997 74.8480019,32.9839997 C70.9600012,32.9839997 68.5600009,31.8079995 66.8080006,30.4399993 L65.5360004,32.4799996 C68.1520008,34.4719999 71.5360013,35.3600001 74.8240019,35.3600001 C80.6320028,35.3600001 84.5440035,32.8639996 84.5440035,28.5919989 C84.5440035,25.0159984 81.832003,23.071998 77.1280023,22.519998 L74.2480018,22.1839979 C70.7680012,21.7759978 69.1120009,20.6239976 69.1120009,18.5359973 C69.1120009,15.9919969 71.5840013,14.4559966 75.1120019,14.4559966 C78.2800024,14.4559966 81.2320029,15.6319968 82.7680032,16.711997 L83.9440034,14.5999967 Z M93.8320012,12.4159963 L91.0960007,12.4159963 L91.0960007,35 L93.8320012,35 L93.8320012,12.4159963 Z M92.4640009,2.31199464 C91.3600008,2.31199464 90.5200006,3.19999479 90.5200006,4.30399497 C90.5200006,5.40799515 91.3600008,6.24799529 92.4640009,6.24799529 C93.5680011,6.24799529 94.4320013,5.40799515 94.4320013,4.30399497 C94.4320013,3.19999479 93.5680011,2.31199464 92.4640009,2.31199464 Z M111.952002,12.0559962 C105.592001,12.0559962 100.744,16.831997 100.744,23.5759981 C100.744,30.3439992 105.592001,35.12 111.952002,35.12 C116.008003,35.12 119.008003,33.2479997 120.760004,30.3679992 L120.760004,33.5839998 C120.760004,39.4880007 116.704003,42.3920012 111.640002,42.3920012 C108.472002,42.3920012 105.664001,41.312001 103.528001,39.6320008 L102.136001,41.6240011 C104.368001,43.6640014 107.920002,44.8880016 111.640002,44.8880016 C118.288003,44.8880016 123.496004,40.976001 123.496004,33.4639997 L123.496004,12.4159963 L120.760004,12.4159963 L120.760004,16.831997 C119.008003,13.9519965 116.008003,12.0559962 111.952002,12.0559962 Z M112.240002,14.6239967 C117.304003,14.6239967 120.976004,18.4879973 120.976004,23.5759981 C120.976004,28.687999 117.304003,32.5519996 112.240002,32.5519996 C107.104001,32.5519996 103.528001,28.615999 103.528001,23.5759981 C103.528001,18.5839973 107.104001,14.6239967 112.240002,14.6239967 Z M142.984002,12.0559962 C139.864002,12.0559962 136.696001,13.3519965 134.920001,16.3759969 L134.920001,12.4159963 L132.208001,12.4159963 L132.208001,35 L134.944001,35 L134.944001,22.1359979 C134.944001,17.6959972 138.256002,14.6479967 142.504002,14.6479967 C147.112003,14.6479967 149.752004,17.4319971 149.752004,21.9919979 L149.752004,35 L152.488004,35 L152.488004,21.1519977 C152.488004,15.5599968 148.648003,12.0559962 142.984002,12.0559962 Z M170.344002,12.0559962 C163.984001,12.0559962 159.16,16.903997 159.16,23.7199982 C159.16,30.6079993 163.912001,35.3600001 170.512002,35.3600001 C173.776003,35.3600001 176.920003,34.5439999 179.776004,31.6399994 L178.312004,29.7679991 C176.320003,31.7359995 173.824003,32.9839997 170.680002,32.9839997 C166.048002,32.9839997 162.352001,29.9599992 161.944001,24.7039983 L180.880004,24.7039983 C180.904004,24.3679983 180.928004,23.9839982 180.928004,23.5759981 C180.856004,16.831997 176.368003,12.0559962 170.344002,12.0559962 Z M170.296002,14.4799966 C174.544003,14.4799966 177.736003,17.6719972 178.144004,22.3519979 L161.992001,22.3519979 C162.520001,17.7679972 165.712001,14.4799966 170.296002,14.4799966 Z M197.512002,12.0319962 C194.536002,12.0319962 192.016001,13.6159965 190.552001,16.2559969 L190.552001,12.4159963 L187.864001,12.4159963 L187.864001,35 L190.576001,35 L190.576001,22.2559979 C190.576001,17.6959972 193.264002,14.6479967 197.032002,14.6479967 C198.400002,14.6479967 199.936003,14.9599967 201.040003,15.5599968 L201.736003,12.8959964 C200.512003,12.2959963 199.120003,12.0319962 197.512002,12.0319962 L197.512002,12.0319962 Z M223.624003,14.5999967 C221.584003,13.1359964 218.344003,12.0559962 214.768002,12.0559962 C209.560001,12.0559962 205.984,14.5279966 205.984,18.6799973 C205.984,21.8959979 208.192001,24.1279982 213.304002,24.7039983 L216.208002,25.0159984 C219.688003,25.3999984 221.416003,26.6719986 221.416003,28.759999 C221.416003,31.5919994 218.608003,32.9839997 214.528002,32.9839997 C210.640001,32.9839997 208.240001,31.8079995 206.488001,30.4399993 L205.216,32.4799996 C207.832001,34.4719999 211.216001,35.3600001 214.504002,35.3600001 C220.312003,35.3600001 224.224003,32.8639996 224.224003,28.5919989 C224.224003,25.0159984 221.512003,23.071998 216.808002,22.519998 L213.928002,22.1839979 C210.448001,21.7759978 208.792001,20.6239976 208.792001,18.5359973 C208.792001,15.9919969 211.264001,14.4559966 214.792002,14.4559966 C217.960002,14.4559966 220.912003,15.6319968 222.448003,16.711997 L223.624003,14.5999967 Z" id="Designers"></path>
                </g>
            </g>
        </g>
    </g>
</svg>