<?xml version="1.0" encoding="UTF-8" standalone="no"?>
<svg width="289px" height="45px" viewBox="0 0 289 45" version="1.1" xmlns="http://www.w3.org/2000/svg" xmlns:xlink="http://www.w3.org/1999/xlink" xmlns:sketch="http://www.bohemiancoding.com/sketch/ns">
    <!-- Generator: Sketch 3.0.4 (8053) - http://www.bohemiancoding.com/sketch -->
    <title>developers_en</title>
    <desc>Created with Sketch.</desc>
    <defs></defs>
    <g id="Page-1" stroke="none" stroke-width="1" fill="none" fill-rule="evenodd" sketch:type="MSPage">
        <g id="柯P-unlimited-desktop" sketch:type="MSArtboardGroup" transform="translate(-700.000000, -1534.000000)" fill="#FFFFFF">
            <g id="Designer-and-Developers" sketch:type="MSLayerGroup" transform="translate(0.000000, 1498.000000)">
                <g id="title" transform="translate(29.000000, 36.000000)" sketch:type="MSShapeGroup">
                    <path d="M671.490909,36 L671.490909,32.0727273 L676.727273,32.0727273 L676.727273,5.01818182 L671.490909,5.01818182 L671.490909,1.09090909 L687.68,1.09090909 C692.450933,1.09090909 696.181805,2.24726116 698.872727,4.56 C701.56365,6.87273884 702.909091,9.94907171 702.909091,13.7890909 L702.909091,23.4763636 C702.909091,27.2872918 701.556377,30.3272614 698.850909,32.5963636 C696.145441,34.8654659 692.407297,36 687.636364,36 L671.490909,36 Z M681.090909,32.16 L687.636364,32.16 C691.330928,32.16 694.072718,31.3527353 695.861818,29.7381818 C697.650918,28.1236283 698.545455,26.0363764 698.545455,23.4763636 L698.545455,13.7890909 C698.545455,11.2581692 697.650918,9.16364465 695.861818,7.50545455 C694.072718,5.84726444 691.330928,5.01818182 687.636364,5.01818182 L681.090909,5.01818182 L681.090909,32.16 Z M730.541818,30.24 C729.75636,32.4218291 728.512736,33.9999951 726.810909,34.9745455 C725.109082,35.9490958 722.701834,36.4363636 719.589091,36.4363636 C716.127255,36.4363636 713.436373,35.6000084 711.516364,33.9272727 C709.596354,32.2545371 708.636364,29.7745619 708.636364,26.4872727 L708.636364,19.4618182 C708.636364,16.0872559 709.647263,13.5636447 711.669091,11.8909091 C713.690919,10.2181735 716.330893,9.38181818 719.589091,9.38181818 C722.87638,9.38181818 725.509081,10.2327188 727.487273,11.9345455 C729.465464,13.6363721 730.454545,16.2472551 730.454545,19.7672727 L730.454545,23.7818182 L713,23.7818182 L713,26.5309091 C713,28.7127382 713.545449,30.2909042 714.636364,31.2654545 C715.727278,32.2400049 717.363625,32.7272727 719.545455,32.7272727 C721.64001,32.7272727 723.167268,32.4363665 724.127273,31.8545455 C725.087278,31.2727244 725.814543,30.3272793 726.309091,29.0181818 L730.541818,30.24 Z M713,19.4618182 L713,20.5090909 L726.090909,20.5090909 L726.090909,19.8545455 C726.090909,17.49817 725.54546,15.7818236 724.454545,14.7054545 C723.363631,13.6290855 721.727284,13.0909091 719.545455,13.0909091 C717.363625,13.0909091 715.727278,13.6072676 714.636364,14.64 C713.545449,15.6727324 713,17.2799891 713,19.4618182 Z M751.76,36 L746.741818,36 L737.665455,13.7454545 L734,13.7454545 L734,9.81818182 L747.178182,9.81818182 L747.178182,13.7454545 L742.16,13.7454545 L749.36,32.2472727 L756.56,13.7454545 L751.541818,13.7454545 L751.541818,9.81818182 L764.545455,9.81818182 L764.545455,13.7454545 L760.836364,13.7454545 L751.76,36 Z M789.996364,30.24 C789.210905,32.4218291 787.967281,33.9999951 786.265455,34.9745455 C784.563628,35.9490958 782.156379,36.4363636 779.043636,36.4363636 C775.581801,36.4363636 772.890919,35.6000084 770.970909,33.9272727 C769.050899,32.2545371 768.090909,29.7745619 768.090909,26.4872727 L768.090909,19.4618182 C768.090909,16.0872559 769.101808,13.5636447 771.123636,11.8909091 C773.145465,10.2181735 775.785438,9.38181818 779.043636,9.38181818 C782.330926,9.38181818 784.963626,10.2327188 786.941818,11.9345455 C788.92001,13.6363721 789.909091,16.2472551 789.909091,19.7672727 L789.909091,23.7818182 L772.454545,23.7818182 L772.454545,26.5309091 C772.454545,28.7127382 772.999995,30.2909042 774.090909,31.2654545 C775.181824,32.2400049 776.818171,32.7272727 779,32.7272727 C781.094556,32.7272727 782.621813,32.4363665 783.581818,31.8545455 C784.541823,31.2727244 785.269088,30.3272793 785.763636,29.0181818 L789.996364,30.24 Z M772.454545,19.4618182 L772.454545,20.5090909 L785.545455,20.5090909 L785.545455,19.8545455 C785.545455,17.49817 785.000005,15.7818236 783.909091,14.7054545 C782.818176,13.6290855 781.181829,13.0909091 779,13.0909091 C776.818171,13.0909091 775.181824,13.6072676 774.090909,14.64 C772.999995,15.6727324 772.454545,17.2799891 772.454545,19.4618182 Z M795.636364,36 L795.636364,32.0727273 L804.363636,32.0727273 L804.363636,5.01818182 L795.636364,5.01818182 L795.636364,1.09090909 L808.727273,1.09090909 L808.727273,32.0727273 L817.454545,32.0727273 L817.454545,36 L795.636364,36 Z M834.090909,36.4363636 C830.832711,36.4363636 828.20001,35.629099 826.192727,34.0145455 C824.185445,32.3999919 823.181818,29.9054714 823.181818,26.5309091 L823.181818,19.4618182 C823.181818,16.0581648 824.192717,13.527281 826.214545,11.8690909 C828.236374,10.2109008 830.876347,9.38181818 834.134545,9.38181818 C837.392744,9.38181818 840.018172,10.2109008 842.010909,11.8690909 C844.003646,13.527281 845,16.0581648 845,19.4618182 L845,26.5309091 C845,29.9054714 843.996374,32.3999919 841.989091,34.0145455 C839.981808,35.629099 837.349107,36.4363636 834.090909,36.4363636 Z M834.090909,32.5090909 C836.272738,32.5090909 837.909085,32.043641 839,31.1127273 C840.090915,30.1818135 840.636364,28.6545561 840.636364,26.5309091 L840.636364,19.4618182 C840.636364,17.3672623 840.090915,15.8181868 839,14.8145455 C837.909085,13.8109041 836.272738,13.3090909 834.090909,13.3090909 C831.90908,13.3090909 830.272733,13.8109041 829.181818,14.8145455 C828.090904,15.8181868 827.545455,17.3672623 827.545455,19.4618182 L827.545455,26.5309091 C827.545455,28.6545561 828.090904,30.1818135 829.181818,31.1127273 C830.272733,32.043641 831.90908,32.5090909 834.090909,32.5090909 Z M865.563636,40.8 L865.563636,44.7272727 L849.854545,44.7272727 L849.854545,40.8 L855.090909,40.8 L855.090909,13.7454545 L849.854545,13.7454545 L849.854545,9.81818182 L859.454545,9.81818182 L859.454545,14.1818182 L860.763636,14.1818182 C861.490913,12.6981744 862.538175,11.527277 863.905455,10.6690909 C865.272734,9.8109048 866.770901,9.38181818 868.4,9.38181818 C871.047286,9.38181818 873.127265,10.2618094 874.64,12.0218182 C876.152735,13.781827 876.909091,16.2181663 876.909091,19.3309091 L876.909091,26.4436364 C876.909091,29.4109239 875.912737,31.745446 873.92,33.4472727 C871.927263,35.1490994 869.170927,36 865.650909,36 C864.487267,35.9709089 863.367278,35.8690918 862.290909,35.6945455 C861.21454,35.5199991 860.269095,35.2727289 859.454545,34.9527273 L859.454545,40.8 L865.563636,40.8 Z M865.607273,32.16 C868.02183,32.16 869.781813,31.6945501 870.887273,30.7636364 C871.992733,29.8327226 872.545455,28.3636464 872.545455,26.3563636 L872.545455,19.3309091 C872.545455,17.3236263 872.130913,15.8545501 871.301818,14.9236364 C870.472723,13.9927226 869.141827,13.5272727 867.309091,13.5272727 C865.854538,13.5272727 864.501824,13.8981781 863.250909,14.64 C861.999994,15.3818219 860.734552,16.538174 859.454545,18.1090909 L859.454545,30.5018182 C860.356368,31.0545482 861.301813,31.4690895 862.290909,31.7454545 C863.280005,32.0218196 864.385448,32.16 865.607273,32.16 Z M904.541818,30.24 C903.75636,32.4218291 902.512736,33.9999951 900.810909,34.9745455 C899.109082,35.9490958 896.701834,36.4363636 893.589091,36.4363636 C890.127255,36.4363636 887.436373,35.6000084 885.516364,33.9272727 C883.596354,32.2545371 882.636364,29.7745619 882.636364,26.4872727 L882.636364,19.4618182 C882.636364,16.0872559 883.647263,13.5636447 885.669091,11.8909091 C887.690919,10.2181735 890.330893,9.38181818 893.589091,9.38181818 C896.87638,9.38181818 899.509081,10.2327188 901.487273,11.9345455 C903.465464,13.6363721 904.454545,16.2472551 904.454545,19.7672727 L904.454545,23.7818182 L887,23.7818182 L887,26.5309091 C887,28.7127382 887.545449,30.2909042 888.636364,31.2654545 C889.727278,32.2400049 891.363625,32.7272727 893.545455,32.7272727 C895.64001,32.7272727 897.167268,32.4363665 898.127273,31.8545455 C899.087278,31.2727244 899.814543,30.3272793 900.309091,29.0181818 L904.541818,30.24 Z M887,19.4618182 L887,20.5090909 L900.090909,20.5090909 L900.090909,19.8545455 C900.090909,17.49817 899.54546,15.7818236 898.454545,14.7054545 C897.363631,13.6290855 895.727284,13.0909091 893.545455,13.0909091 C891.363625,13.0909091 889.727278,13.6072676 888.636364,14.64 C887.545449,15.6727324 887,17.2799891 887,19.4618182 Z M909.309091,36 L909.309091,32.0727273 L914.545455,32.0727273 L914.545455,13.7454545 L909.309091,13.7454545 L909.309091,9.81818182 L918.909091,9.81818182 L918.909091,14.1818182 L920.218182,14.1818182 C920.858185,12.5236281 921.716358,11.3090948 922.792727,10.5381818 C923.869096,9.76726887 925.076357,9.38181818 926.414545,9.38181818 C928.101827,9.38181818 929.490904,10.0290844 930.581818,11.3236364 C931.672733,12.6181883 932.218182,14.4436246 932.218182,16.8 L932.218182,20.7272727 L928.072727,20.7272727 L928.072727,17.4109091 C928.072727,16.1599937 927.803639,15.2000033 927.265455,14.5309091 C926.72727,13.8618148 926.007277,13.5272727 925.105455,13.5272727 C923.941812,13.5272727 922.836369,13.8909055 921.789091,14.6181818 C920.741813,15.3454582 919.781823,16.3636298 918.909091,17.6727273 L918.909091,32.0727273 L925.454545,32.0727273 L925.454545,36 L909.309091,36 Z M948.985455,36.4363636 C946.774534,36.4363636 944.636374,36.1090942 942.570909,35.4545455 C940.505444,34.7999967 938.600009,33.7890977 936.854545,32.4218182 L938.818182,28.9745455 C940.243643,30.1381876 941.836355,31.0181788 943.596364,31.6145455 C945.356372,32.2109121 947.152718,32.5090909 948.985455,32.5090909 C950.498189,32.5090909 951.945448,32.276366 953.327273,31.8109091 C954.709098,31.3454522 955.4,30.3563712 955.4,28.8436364 C955.4,27.592721 954.832733,26.7054572 953.698182,26.1818182 C952.563631,25.6581792 950.483651,25.2072746 947.458182,24.8290909 C944.258166,24.4509072 941.836372,23.7018238 940.192727,22.5818182 C938.549083,21.4618126 937.727273,19.6945575 937.727273,17.28 C937.727273,14.6618051 938.716354,12.6909157 940.694545,11.3672727 C942.672737,10.0436297 944.970896,9.38181818 947.589091,9.38181818 C949.654556,9.38181818 951.63999,9.7309056 953.545455,10.4290909 C955.450919,11.1272762 957.218174,12.1163572 958.847273,13.3963636 L956.883636,16.8436364 C955.545448,15.7672673 954.090917,14.9090941 952.52,14.2690909 C950.949083,13.6290877 949.305463,13.3090909 947.589091,13.3090909 C946.19272,13.3090909 944.920006,13.5709065 943.770909,14.0945455 C942.621812,14.6181844 942.047273,15.5781748 942.047273,16.9745455 C942.047273,18.1672787 942.578177,19.0327246 943.64,19.5709091 C944.701823,20.1090936 946.745439,20.5672708 949.770909,20.9454545 C953.087289,21.3236383 955.574537,22.1309029 957.232727,23.3672727 C958.890917,24.6036425 959.72,26.3272617 959.72,28.5381818 C959.72,31.2727409 958.614557,33.2727209 956.403636,34.5381818 C954.192716,35.8036427 951.720014,36.4363636 948.985455,36.4363636 L948.985455,36.4363636 Z" id="Developers"></path>
                </g>
            </g>
        </g>
    </g>
</svg>