<?xml version="1.0" encoding="UTF-8" standalone="no"?>
<svg width="186px" height="210px" viewBox="0 0 186 210" version="1.1" xmlns="http://www.w3.org/2000/svg" xmlns:xlink="http://www.w3.org/1999/xlink" xmlns:sketch="http://www.bohemiancoding.com/sketch/ns">
    <!-- Generator: Sketch 3.0.4 (8053) - http://www.bohemiancoding.com/sketch -->
    <title>footer-g0v-mini-logo</title>
    <desc>Created with Sketch.</desc>
    <defs></defs>
    <g id="Page-1" stroke="none" stroke-width="1" fill="none" fill-rule="evenodd" sketch:type="MSPage">
        <g id="柯P-unlimited-desktop" sketch:type="MSArtboardGroup" transform="translate(-746.000000, -2868.000000)" fill="#FFFFFF">
            <g id="逛了一個官網..." sketch:type="MSLayerGroup" transform="translate(-1.000000, 2868.000000)">
                <g id="logos" transform="translate(105.000000, 0.000000)">
                    <g id="g0v-mini" transform="translate(642.000000, 0.000000)">
                        <g id="0" transform="translate(18.000000, 22.000000)" sketch:type="MSShapeGroup">
                            <path d="M150,0 L130.074613,0 L0,166 L20.2257698,166 L150,0 Z" id="/" fill-opacity="0.5"></path>
                            <path d="M121.848672,57.3453291 C115.304731,50.7436835 102.712601,44.7421875 75.0495753,44.7421875 C48.3780562,44.7421875 34.7944201,50.6436586 28.1513279,57.3453291 C22.1031396,63.4468501 18.8311688,71.048745 18.8311688,82.3515625 C18.8311688,93.65438 22.1031396,101.15625 28.1513279,107.257771 C34.6952694,113.859417 47.882303,119.960938 75.0495753,119.960938 C102.216848,119.960938 115.304731,113.959441 121.848672,107.357796 C127.89686,101.256275 131.168831,93.65438 131.168831,82.3515625 C131.168831,70.9487201 127.89686,63.4468501 121.848672,57.3453291 Z M75.0493009,103.75 C57.3009754,103.75 48.1310072,100.108329 44.1869348,96.1713867 C41.1302787,93.1202567 38.961039,89.1833147 38.961039,81.703125 C38.961039,74.2229353 40.8344733,70.1875698 44.088333,66.9395926 C48.1310072,62.9042271 57.3009754,59.65625 75.0493009,59.65625 C92.7976265,59.65625 101.671789,63.0026507 105.813065,67.1364397 C109.066925,70.3844169 111.038961,74.2229353 111.038961,81.703125 C111.038961,89.1833147 109.165527,93.2186802 105.911667,96.4666574 C101.770391,100.600446 92.7976265,103.75 75.0493009,103.75 Z" id="Path"></path>
                        </g>
                        <text id="零時前端教學松" sketch:type="MSTextLayer" font-family="Noto Sans Japanese" font-size="21" font-weight="260">
                            <tspan x="20" y="174">零時前端教學松</tspan>
                        </text>
                    </g>
                </g>
            </g>
        </g>
    </g>
</svg>