<?xml version="1.0" encoding="UTF-8" standalone="no"?>
<svg width="186px" height="210px" viewBox="0 0 186 210" version="1.1" xmlns="http://www.w3.org/2000/svg" xmlns:xlink="http://www.w3.org/1999/xlink" xmlns:sketch="http://www.bohemiancoding.com/sketch/ns">
    <!-- Generator: Sketch 3.0.4 (8053) - http://www.bohemiancoding.com/sketch -->
    <title>footer-kp-logo</title>
    <desc>Created with Sketch.</desc>
    <defs></defs>
    <g id="Page-1" stroke="none" stroke-width="1" fill="none" fill-rule="evenodd" sketch:type="MSPage">
        <g id="柯P-unlimited-desktop" sketch:type="MSArtboardGroup" transform="translate(-104.000000, -2868.000000)">
            <g id="逛了一個官網..." sketch:type="MSLayerGroup" transform="translate(-1.000000, 2868.000000)">
                <g id="logos" transform="translate(105.000000, 0.000000)" sketch:type="MSShapeGroup">
                    <g id="kp">
                        <g id="Fill-1-+-Fill-2" transform="translate(19.000000, 23.000000)">
                            <path d="M0.1275,44.49675 C0.1275,41.67975 2.148,38.268 4.61475,36.90825 L70.257,0.774 C72.72375,-0.5835 76.761,-0.5835 79.22925,0.774 L144.86925,36.90825 C147.3375,38.268 149.358,41.67975 149.358,44.49675 L149.358,116.367 C149.358,119.181 147.3375,122.59875 144.87525,123.957 L79.22925,160.119 C76.761,161.478 72.72375,161.478 70.2615,160.119 L4.61475,123.957 C2.148,122.59875 0.1275,119.181 0.1275,116.367 L0.1275,44.49675" id="Fill-1" stroke="#FFFFFF" stroke-width="3"></path>
                            <path d="M54.8865,109.4775 C53.8785,110.90025 52.45425,111.84375 51.1185,111.84375 C48.117,111.84375 46.36425,109.566 46.36425,107.178 C46.36425,105.579 47.196,104.02275 48.57675,102.99375 C50.02275,101.94225 51.447,101.634 52.2795,101.634 L52.3005,101.634 C53.09025,101.634 53.8125,101.87475 54.18525,102.183 C54.51375,102.402 54.6015,102.66375 54.579,102.972 C54.579,103.60725 54.00975,104.1765 53.63775,104.1765 C53.484,104.1765 53.352,104.1105 53.15475,103.935 C52.25625,103.1475 51.55575,102.79575 50.943,102.79575 C50.08875,102.79575 49.1025,103.62825 49.1025,105.9735 C49.1025,108.885 51.2055,109.8495 52.12575,109.8495 C53.04525,109.8495 53.682,109.63125 54.47025,108.95325 L54.8865,109.4775 M61.45275,111.582 L61.45275,110.87925 C62.505,110.72625 62.571,110.574 62.571,109.3695 L62.571,105.513 C62.571,103.8255 61.84725,103.2555 60.99375,103.2555 C60.468,103.2555 59.898,103.40925 59.4165,103.869 L59.4165,109.3695 C59.4165,110.574 59.5035,110.748 60.42375,110.87925 L60.42375,111.582 L55.2315,111.582 L55.2315,110.87925 C56.48025,110.748 56.61225,110.682 56.61225,109.2795 L56.61225,99.07125 C56.61225,97.73625 56.52375,97.75725 55.3845,97.626 L55.3845,96.96975 C56.5455,96.8145 58.10175,96.50775 59.4165,96.18 L59.4165,103.0365 C60.16125,102.291 61.2345,101.634 62.3295,101.634 C64.236,101.634 65.35275,102.861 65.35275,105.27075 L65.35275,109.2795 C65.35275,110.682 65.48475,110.70375 66.6015,110.87925 L66.6015,111.582 L61.45275,111.582 M77.87775,106.5645 C77.87775,110.09025 75.3585,111.84375 72.79425,111.84375 C69.35625,111.84375 67.66875,109.34625 67.66875,106.95975 C67.66875,103.431 70.452,101.634 72.906,101.634 C75.95025,101.634 77.87775,103.935 77.87775,106.5645 L77.87775,106.5645 Z M70.80075,106.17 C70.80075,108.864 71.6565,110.99025 73.035,110.99025 C73.869,110.99025 74.745,110.463 74.745,107.2215 C74.745,104.1765 73.9785,102.4875 72.576,102.4875 C71.67825,102.4875 70.80075,103.671 70.80075,106.17 L70.80075,106.17 Z M78.90225,111.582 L78.90225,110.87925 C80.172,110.72625 80.30475,110.63925 80.30475,109.08225 L80.30475,104.74725 C80.30475,103.29975 80.15025,103.23375 79.0995,103.05825 L79.0995,102.42375 C80.43525,102.26925 81.882,101.98575 83.109,101.634 L83.109,109.08225 C83.109,110.59575 83.217,110.72625 84.5325,110.87925 L84.5325,111.582 L78.90225,111.582 L78.90225,111.582 Z M79.9965,98.721 C79.9965,97.84425 80.72025,97.188 81.55275,97.188 C82.4295,97.188 83.109,97.84425 83.109,98.721 C83.109,99.555 82.4295,100.254 81.531,100.254 C80.72025,100.254 79.9965,99.555 79.9965,98.721 L79.9965,98.721 Z M94.03575,109.4775 C93.0285,110.90025 91.605,111.84375 90.26925,111.84375 C87.267,111.84375 85.51575,109.566 85.51575,107.178 C85.51575,105.579 86.3475,104.02275 87.72825,102.99375 C89.17275,101.94225 90.597,101.634 91.4295,101.634 L91.4505,101.634 C92.2395,101.634 92.96325,101.87475 93.336,102.183 C93.663,102.402 93.75225,102.66375 93.7305,102.972 C93.7305,103.60725 93.1605,104.1765 92.78775,104.1765 C92.634,104.1765 92.50275,104.1105 92.3055,103.935 C91.407,103.1475 90.7065,102.79575 90.093,102.79575 C89.238,102.79575 88.25175,103.62825 88.25175,105.9735 C88.25175,108.885 90.35625,109.8495 91.2765,109.8495 C92.19675,109.8495 92.83125,109.63125 93.62025,108.95325 L94.03575,109.4775 M103.32075,109.41225 C102.0045,111.4065 100.2975,111.84375 99.3765,111.84375 C96.441,111.84375 94.84125,109.674 94.84125,107.15625 C94.84125,105.48975 95.5425,104.1105 96.46275,103.19025 C97.42725,102.22575 98.63175,101.634 99.81375,101.634 L99.837,101.634 C101.8755,101.634 103.40625,103.3665 103.40625,105.16275 C103.38525,105.60075 103.254,105.88425 102.7725,105.9525 C102.378,106.01625 99.68475,106.2135 97.53675,106.30125 C97.6245,108.645 98.9175,109.8285 100.49475,109.8285 C101.34825,109.8285 102.18,109.54275 102.948,108.885 L103.32075,109.41225 L103.32075,109.41225 Z M97.6245,105.27075 C98.54475,105.24975 99.35475,105.228 100.2525,105.2055 C100.581,105.2055 100.71375,105.1395 100.71375,104.76825 C100.7355,103.65 100.2315,102.51075 99.3765,102.51075 C98.523,102.51075 97.77675,103.5405 97.6245,105.27075 Z M30.52875,87.73525 L118.95675,87.73525 L118.95675,89.11375 L30.52875,89.11375 L30.52875,87.73525 Z M38.21325,58.7805 C38.21325,58.7805 33.4365,58.6815 32.019,58.50975 C30.603,58.3365 29.92125,58.70775 30.39,59.3865 C30.858,60.063 31.33575,60.88875 31.872,61.311 C32.40675,61.734 34.074,61.5975 34.9185,61.545 C35.76375,61.4925 36.6405,61.54875 36.6405,61.54875 C36.6405,61.54875 36.06,64.44675 35.139,66 C34.2195,67.55325 31.39875,71.41725 30.894,71.81025 C30.894,71.81025 31.7955,72.66675 32.7375,71.904 C33.6825,71.14275 36.60375,68.07075 36.85725,67.5015 C36.85725,67.5015 37.15875,66.56925 37.14825,67.67625 C37.1355,68.784 36.97875,74.88375 37.06275,76.392 C37.14825,77.89875 36.83025,78.96675 37.71375,78.96675 L39.05775,78.96675 C39.44775,78.96675 39.519,78.04125 39.519,75.70575 C39.519,73.3725 39.8715,65.66025 39.978,65.34075 C40.08375,65.02275 40.33575,65.19675 40.8435,65.63475 C41.34975,66.072 43.7115,67.48425 44.14575,68.1015 C44.57625,68.718 45.8055,69.51525 45.987,67.641 C46.1685,65.766 45.27975,65.03175 44.3895,64.812 C43.497,64.59 40.566,64.0215 40.21725,63.6195 C39.8715,63.21975 40.092,62.283 40.14075,61.6185 C40.18875,60.9555 40.9125,60.75075 41.97075,60.7695 C43.02825,60.78825 45.564,60.504 46.01025,60.4185 C46.45725,60.3315 46.69125,59.96925 46.22475,59.4795 C45.759,58.98975 45.594,58.2705 44.223,58.46625 C42.85125,58.66275 40.7205,58.72725 40.7205,58.72725 C40.7205,58.72725 40.68525,58.479 40.75575,57.594 C40.82775,56.7105 41.706,54.76875 41.8875,54.3255 C42.06975,53.88525 42.2325,53.58225 41.40375,53.43075 C40.5735,53.2815 39.38325,52.81875 38.7255,52.482 C38.067,52.146 37.69725,52.55025 37.85475,53.40975 C38.01075,54.27 38.2155,58.54875 38.21325,58.7805 Z M46.22775,54.6735 C46.22775,54.6735 47.0775,57.3555 48.33375,57.432 C49.5885,57.50775 53.544,57.17775 54.78825,57.009 C56.03175,56.83875 58.24125,56.96175 58.24125,56.96175 C58.24125,56.96175 59.037,61.46625 58.91625,66.62025 C58.797,71.775 58.76175,76.79625 57.6165,77.175 C56.4705,77.55375 55.3215,77.6235 55.3215,77.6235 L55.46175,77.9175 C55.46175,77.9175 57.141,78.89775 58.08075,79.46025 C59.022,80.0235 59.901,80.532 60.234,80.142 C60.56475,79.75425 61.03575,77.11275 60.9375,73.545 C60.8415,69.981 61.317,59.988 61.42275,58.64175 C61.52775,57.2955 61.67475,56.80575 61.67475,56.80575 L63.84375,56.919 C63.84375,56.919 63.73125,55.155 63.3555,54.6735 C62.97675,54.19125 61.755,54.1575 60.95325,54.342 C60.1515,54.52425 50.32875,55.137 49.16925,54.8625 C48.00975,54.5895 46.03275,53.86425 46.22775,54.6735 Z M56.118,60.216 C55.569,59.80725 55.119,59.2395 54.204,59.63925 C53.292,60.0375 52.95225,60.29475 51.64575,60.2625 C50.33925,60.2295 48.05325,59.78025 48.05325,59.78025 C48.05325,59.78025 47.10525,59.784 47.44725,60.222 C47.78925,60.65925 48.099,63.20325 48.04425,65.1045 C47.99025,67.00425 47.79525,68.208 47.71425,68.46 C47.6325,68.71275 48.627,69.207 48.93975,68.77125 C49.254,68.334 50.388,68.0745 51.56175,68.22525 C52.73475,68.37675 54.80475,68.082 55.02975,68.71275 C55.2555,69.34275 55.944,68.85375 56.16,68.21925 C56.37825,67.58475 56.18925,63.25125 56.3715,62.12325 C56.553,60.996 56.6655,60.624 56.118,60.216 Z M54.252,65.985 C54.27,66.8265 53.6715,66.525 53.31975,66.53025 C52.97025,66.53325 51.21375,66.669 50.697,66.76275 C50.18025,66.85275 50.27175,66.66075 50.25975,66.01275 C50.24625,65.3625 50.1615,63.08925 50.157,62.4585 C50.15175,61.82925 50.697,62.03475 50.697,62.03475 C50.697,62.03475 52.52625,61.9995 53.1135,62.00175 C53.70225,62.00475 54.33075,62.08125 54.252,62.62725 C54.17325,63.17325 54.2355,65.14425 54.252,65.985 L54.252,65.985 Z M93.10425,78.1245 C92.65125,78.0945 92.31825,78.46575 90.0405,77.24925 C87.7605,76.032 81.89325,72.0045 80.99625,70.464 C80.99625,70.464 84.54675,63.18975 85.07325,61.08225 C85.07325,61.08225 89.3505,60.83025 89.97225,61.07775 C90.59475,61.32675 90.58275,60.867 90.3915,60.48075 C90.2025,60.0945 89.21625,58.365 89.127,58.13775 C89.037,57.9075 88.9095,57.64875 88.0935,58.0575 C87.27675,58.46625 81.021,59.37075 80.0565,59.32125 C79.095,59.271 79.04775,59.15475 79.332,58.43325 C79.61925,57.71475 79.81575,56.745 79.38,55.98075 C78.94725,55.22175 78.9435,54.666 78.26325,54.70575 C77.58,54.74475 76.60875,54.51975 76.929,56.51775 C77.2485,58.51575 77.286,59.11425 76.56075,59.31375 C75.83325,59.514 73.26525,59.29425 71.24925,59.10975 C69.23175,58.92525 66.58575,58.84275 66.58575,58.84275 C66.58575,58.842 65.2695,58.614 65.67075,59.583 C66.07275,60.55425 66.74925,62.21325 68.307,62.229 C69.864,62.2425 71.181,62.13675 71.181,62.13675 C71.181,62.13675 71.33475,62.16675 72.37725,63.29475 C73.422,64.42275 77.283,70.1025 77.40375,70.75275 C77.52075,71.4045 77.6745,71.2335 76.932,72.27075 C76.19025,73.30875 73.0695,76.827 70.9935,76.98075 C68.919,77.13375 66.792,76.8975 66.54225,76.83375 C66.29325,76.77075 66.378,77.0325 66.378,77.0325 C66.378,77.0325 66.843,78.26325 68.58225,78.546 C70.323,78.82875 72.564,78.6495 74.9355,76.69125 C77.30475,74.73375 79.0275,73.02675 79.0275,73.02675 C79.0275,73.02675 81.27525,75.966 83.355,77.09925 C85.434,78.2325 88.25025,79.2255 90.21675,79.06125 C92.1825,78.89775 93.1995,78.51375 93.1995,78.51375 C93.1995,78.51375 93.55725,78.15675 93.10425,78.1245 L93.10425,78.1245 Z M79.46475,68.17575 C79.146,68.817 78.8055,68.1285 78.0585,67.28925 C77.31,66.44925 73.764,61.8 73.764,61.8 L73.935,61.48575 C74.81775,61.64475 81.144,61.0725 81.7575,61.02975 C82.368,60.987 82.158,61.1175 81.7575,62.22525 C81.354,63.3315 79.782,67.53225 79.46475,68.17575 Z M99.74775,56.37675 C99.74775,56.37675 96.0525,56.0895 95.23575,55.79025 C94.4175,55.49325 94.29,55.67625 94.37925,56.06475 C94.4685,56.457 94.6125,58.27575 95.523,58.425 C96.432,58.575 98.88525,58.28925 99.2835,58.365 C99.68625,58.43925 99.81675,58.6005 99.87075,59.0175 C99.92325,59.4375 100.21275,60.81825 99.7185,61.0245 C99.222,61.23 95.57175,62.8425 94.953,62.7975 C94.3335,62.75325 94.32675,63.70125 94.65675,63.90825 C94.98975,64.11675 96.62925,65.31675 97.179,65.2455 C97.72875,65.172 98.73675,64.2165 99.14025,63.82575 C99.5445,63.435 99.7395,63.057 99.825,63.804 C99.9075,64.55025 99.969,66.32325 99.92325,66.5805 C99.87525,66.84075 100.60425,67.76775 101.27325,67.7805 C101.9445,67.79175 102.01425,67.83 102.099,66.19575 C102.18375,64.5615 102.051,62.2545 102.051,62.2545 C102.051,62.2545 103.248,61.1355 103.61625,60.9585 C103.9875,60.7815 104.043,59.34 103.87125,59.27625 C103.6965,59.2125 102.09225,60.345 102.09225,60.345 L102.18825,58.3365 C102.18825,58.3365 104.1645,58.1535 104.706,58.12275 C105.24525,58.09275 106.04625,57.9285 105.64575,57.04575 C105.24525,56.1645 105.045,56.36475 104.22225,56.37675 C103.39725,56.39175 102.19725,56.27775 102.19725,56.27775 C102.19725,56.27775 101.89425,55.269 102.24675,54.70425 C102.59775,54.138 102.495,53.01075 101.5845,52.26375 C100.67325,51.516 99.954,50.89725 99.6,51.36375 C99.24225,51.82875 99.4065,52.77675 99.53475,53.508 C99.6645,54.2385 99.69825,56.208 99.69825,56.208 L99.74775,56.37675 Z M113.4915,52.101 C113.4915,52.101 112.65,54.13125 111.64425,54.6735 C110.63775,55.215 109.596,56.193 109.086,56.01525 C108.57675,55.83525 107.7795,54.8625 107.427,54.97575 C107.07225,55.08975 106.84125,55.44975 107.094,56.0355 C107.34825,56.62125 107.79525,58.2675 107.5845,59.8215 C107.3715,61.37475 107.0355,63.8805 106.36425,64.40775 C105.6885,64.93425 105.13575,65.25 105.504,65.6385 C105.87525,66.02925 107.07225,65.54625 107.9535,64.4625 C108.8385,63.37725 109.647,61.92525 109.67025,60.84975 L111.963,60.75525 C111.963,60.75525 111.753,66.56175 111.7935,67.49025 C111.8355,68.42025 112.8105,68.457 113.2695,67.78425 C113.7315,67.11 114.804,66.42375 114.8715,65.23875 C114.94275,64.0545 114.594,60.73125 115.341,60.483 C116.0865,60.23625 118.725,59.9235 118.97925,59.82825 C119.2335,59.73675 119.3265,59.60025 118.97925,58.8465 C118.63275,58.095 118.62225,56.772 117.63,56.943 C116.63775,57.114 115.39275,57.5535 114.0795,57.759 C112.767,57.966 110.028,58.35525 110.0295,58.2045 C110.031,58.05525 109.77375,57.639 110.87475,57.18825 C111.978,56.73675 114.56625,55.26525 115.194,55.16925 C115.82175,55.07325 115.68825,54.25425 115.58025,53.94525 C115.473,53.63625 114.26925,52.2765 114.14475,52.101 C114.018,51.92625 113.62125,51.80775 113.4915,52.101 Z M115.4415,72.912 C115.494,71.865 115.377,70.33575 115.19175,70.173 C115.0125,70.01175 114.21225,69.41175 114.03075,69.49125 C113.84925,69.56925 112.62225,69.7845 112.296,70.24425 C111.969,70.7055 111.20775,70.587 110.36475,70.665 C109.5255,70.743 105.3315,70.881 103.2045,70.8855 C101.079,70.88775 99.41775,70.9155 98.6385,70.69575 C97.8585,70.47675 97.93875,69.56475 96.40875,69.70575 L96.28725,70.13175 C96.28725,70.13175 96.63375,71.09025 96.71775,71.93925 C96.80175,72.78675 97.03275,76.7085 97.04175,77.382 C97.05075,78.05625 96.4875,79.7565 96.58875,79.7805 C96.69,79.80525 96.882,79.8765 97.04175,80.01 C97.20225,80.142 98.16675,79.2615 99.34125,78.942 C100.515,78.62175 106.539,77.8305 108.82275,78.36075 C111.1035,78.89025 113.74875,79.731 114.32025,79.77 C114.89325,79.80825 115.425,79.965 115.4415,79.06125 C115.46025,78.15825 115.3905,73.95675 115.4415,72.912 L115.4415,72.912 Z M112.72425,73.11975 C112.73625,73.61625 112.467,75.97275 112.50675,76.39425 C112.545,76.81425 112.16625,76.9395 112.16625,76.9395 C112.16625,76.9395 111.49725,77.0235 110.1135,76.8975 C108.7275,76.77075 101.75025,76.88925 100.962,76.97175 C100.17,77.05425 99.24225,77.27475 99.31275,77.1075 C99.3825,76.9395 99.282,74.115 99.222,73.37025 C99.165,72.624 99.41175,72.60375 99.41175,72.60375 C100.293,72.33675 102.14025,72.375 103.2315,72.3615 C104.3205,72.34875 111.75,72.2205 112.296,72.207 C112.84425,72.192 112.7115,72.624 112.72425,73.11975 L112.72425,73.11975 Z" id="Fill-2" fill="#FFFFFF"></path>
                        </g>
                    </g>
                </g>
            </g>
        </g>
    </g>
</svg>