<?xml version="1.0" encoding="UTF-8" standalone="no"?>
<svg width="73px" height="86px" viewBox="0 0 73 86" version="1.1" xmlns="http://www.w3.org/2000/svg" xmlns:xlink="http://www.w3.org/1999/xlink" xmlns:sketch="http://www.bohemiancoding.com/sketch/ns">
    <!-- Generator: Sketch 3.0.4 (8053) - http://www.bohemiancoding.com/sketch -->
    <title>logo</title>
    <desc>Created with Sketch.</desc>
    <defs></defs>
    <g id="Page-1" stroke="none" stroke-width="1" fill="none" fill-rule="evenodd" sketch:type="MSPage">
        <g id="柯P-unlimited-desktop" sketch:type="MSArtboardGroup" transform="translate(-476.000000, -64.000000)" fill="#FFFFFF">
            <g id="logo" sketch:type="MSLayerGroup" transform="translate(477.000000, 65.000000)">
                <path d="M5.0671844,7.35 L5.0671844,10.498628 L8.63480851,14.6445 L7.39306383,15.699 L5.0671844,12.9964988 L5.0671844,12.9964988 L5.0671844,22.6785 L3.43267376,22.6785 L3.43267376,13.4385359 L1.29058865,16.571 L-0.0619361702,15.6585 L3.43267376,10.5493683 L3.43267376,7.35 L0.096177305,7.35 L0.096177305,5.727 L3.43267376,5.727 L3.43267376,0.262 L5.0671844,0.262 L5.0671844,5.727 L8.40368085,5.727 L8.40368085,7.35 L5.0671844,7.35 L5.0671844,7.35 Z M0.866099291,34.594 L70.3136667,34.594 L70.3136667,38.8385 L0.866099291,38.8385 L0.866099291,34.594 Z M0.866099291,79.0105 L70.3136667,79.0105 L70.3136667,83.255 L0.866099291,83.255 L0.866099291,79.0105 Z M10.2058723,8.3425 L16.6578085,8.3425 L16.6578085,16.6725 L10.2058723,16.6725 L10.2058723,8.3425 Z M53.9982695,8.44408365 L53.9982695,5.2825 L49.9427092,5.2825 L49.9427092,3.6595 L53.9982695,3.6595 L53.9982695,3.6595 L53.9982695,0.8005 L55.6327801,0.8005 L55.6327801,3.6595 L59.2442128,3.6595 L59.2442128,5.2825 L55.6327801,5.2825 L55.6327801,8.01943232 L58.6752057,7.229 L59.0896241,8.7995 L55.6327801,9.69735569 L55.6327801,12.905 L53.9982695,12.905 L53.9982695,10.1218917 L50.1496667,11.1215 L49.7357518,9.5515 L53.9982695,8.44408365 L53.9982695,8.44408365 Z M11.840383,15.0495 L15.0227943,15.0495 L15.0227943,9.9655 L11.840383,9.9655 L11.840383,15.0495 Z M54.2847872,14.7865 L66.4927589,14.7865 L66.4927589,22.324 L54.2847872,22.324 L54.2847872,14.7865 Z M35.8577239,13.0014974 L29.1875461,20.995 L30.4464113,22.0305 L36.969483,14.2132886 L44.167539,22.059 L45.3750426,20.9665 L38.0221867,12.9517346 L41.710234,8.532 L40.4513688,7.4965 L36.9104492,11.7399176 L32.9913333,7.468 L31.7833262,8.5605 L35.8577239,13.0014974 L35.8577239,13.0014974 Z M21.5311277,3.1835 L23.3182128,3.1835 L23.3182128,1.5605 L9.24712057,1.5605 L9.24712057,3.1835 L19.896617,3.1835 L19.896617,21.0645 L18.280234,21.0645 L18.280234,22.6875 L21.5311277,22.6875 L21.5311277,3.1835 L21.5311277,3.1835 Z M62.3974184,6.717 L70.3509291,6.717 L70.3509291,8.34 L67.1891631,8.34 L67.1891631,8.34 L67.1891631,12.905 L65.5546525,12.905 L65.5546525,8.34 L62.3974184,8.34 L62.3974184,12.905 L60.7629078,12.905 L60.7629078,2.95 L68.7521702,0.914 L69.1585319,2.4865 L62.3974184,4.209 L62.3974184,6.717 L62.3974184,6.717 Z M55.9192979,20.701 L64.8582482,20.701 L64.8582482,16.4095 L55.9192979,16.4095 L55.9192979,20.701 Z M27.3828369,4.7415 L45.6343688,4.7415 L45.6343688,6.3645 L27.3828369,6.3645 L27.3828369,4.7415 Z M35.6913475,-0.2435 L37.3258582,-0.2435 L37.3258582,2.8485 L35.6913475,2.8485 L35.6913475,-0.2435 Z M63.7836809,47.8705 L56.2853759,47.8705 C55.7455745,47.8705 55.3387092,48.2745 55.3387092,48.811 L55.3387092,70.65 C55.3387092,71.169 55.7631986,71.5905 56.2853759,71.5905 C56.7899291,71.5905 57.2325461,71.151 57.2325461,70.65 L57.2325461,49.7515 L63.7836809,49.7515 C66.2354468,49.7515 68.2294894,51.715 68.2294894,54.129 C68.2294894,56.563 66.2354468,58.5435 63.7836809,58.5435 L59.5730284,58.5435 C59.0503475,58.5435 58.6258582,58.965 58.6258582,59.484 C58.6258582,59.9845 59.0679716,60.424 59.5730284,60.424 L63.7836809,60.424 C67.259156,60.424 70.0865674,57.6 70.0865674,54.129 C70.0865674,50.678 67.259156,47.8705 63.7836809,47.8705 Z M37.1833546,46.9235 L37.1833546,46.525 C37.1833546,45.987 36.7442624,45.551 36.2024468,45.551 C35.6611348,45.551 35.2220426,45.987 35.2220426,46.525 L35.2220426,46.916 C26.1964823,47.507 23.2608085,56.579 23.2316028,56.674 C23.1888014,56.8105 23.239156,56.9585 23.3559787,57.0415 C23.4138865,57.0825 23.4818652,57.103 23.549844,57.103 C23.6188298,57.103 23.6878156,57.082 23.746227,57.0395 C24.9688369,56.155 26.122461,55.707 27.1758794,55.707 C28.5913475,55.707 29.3255177,56.518 29.3547234,56.5515 C29.4146454,56.62 29.5002482,56.6615 29.5918936,56.6665 C29.6795106,56.6655 29.7721631,56.637 29.8386312,56.5745 C30.5073404,55.937 31.2092837,55.614 31.9248227,55.614 C33.0467234,55.614 33.8564255,56.414 33.8634752,56.4215 C33.9853333,56.5445 34.1817163,56.555 34.3161631,56.444 C34.615773,56.195 34.9184043,56.01 35.2220426,55.869 L35.2220426,69.0665 C35.2064326,69.5955 34.9410638,69.8635 34.4314752,69.8635 C33.9223901,69.8635 33.6565177,69.5955 33.6414113,69.079 L33.6414113,68.4315 C33.6414113,67.894 33.2023191,67.458 32.6605035,67.458 C32.1191915,67.458 31.6800993,67.894 31.6800993,68.4315 L31.6800993,69.079 C31.6800993,70.1775 32.4127589,71.811 34.4314752,71.811 C36.4501915,71.811 37.1833546,70.1775 37.1833546,69.079 L37.1833546,55.7205 C38.0610355,55.9995 38.6280284,56.638 38.635078,56.6465 C38.6970142,56.7185 38.7871489,56.7615 38.8828227,56.7635 C38.9598652,56.7565 39.0701418,56.7265 39.1350993,56.6565 C39.7715816,55.967 40.5057518,55.6175 41.3174681,55.6175 C42.4519574,55.6175 43.3674043,56.3 43.3764681,56.3075 C43.4927872,56.396 43.6559362,56.398 43.7742695,56.3125 C44.320617,55.9205 44.9283972,55.721 45.5809929,55.721 C46.979844,55.721 48.1465603,56.633 48.1586454,56.6425 C48.2709362,56.732 48.4295532,56.74 48.5509078,56.6595 C48.6712553,56.5805 48.7266454,56.433 48.6883759,56.2945 C48.6621915,56.204 46.1092128,47.55 37.1833546,46.9235 Z M16.281156,57.105 C16.4654539,57.105 16.6150071,56.9575 16.6150071,56.7745 C16.6150071,56.679 16.5742199,56.593 16.509766,56.533 L9.11267376,45.702 C8.98930496,45.52 8.68465957,45.52 8.56129078,45.702 L1.12693617,56.5885 C1.05744681,56.69 1.05039716,56.821 1.10830496,56.9295 C1.16570922,57.0375 1.27900709,57.105 1.40237589,57.105 L6.60350355,57.105 L1.11887943,65.952 C1.05543262,66.0545 1.05241135,66.182 1.11132624,66.287 C1.17024113,66.392 1.28202837,66.4565 1.40237589,66.4565 L7.85632624,66.4565 L7.85632624,71.3245 C7.85632624,71.862 8.29541844,72.298 8.8367305,72.298 C9.3785461,72.298 9.8176383,71.862 9.8176383,71.3245 L9.8176383,66.4565 L16.2715887,66.4565 L16.281156,66.4565 C16.4654539,66.4565 16.6150071,66.3085 16.6150071,66.1255 C16.6150071,66.0355 16.5787518,65.9535 16.5193333,65.8935 L11.070461,57.105 L16.2715887,57.105 C16.2751135,57.105 16.2786383,57.1055 16.281156,57.105 Z M28.4861064,61.119 C27.5444752,61.119 26.7816028,61.877 26.7816028,62.8115 C26.7816028,63.7465 27.5444752,64.504 28.4861064,64.504 C29.427234,64.504 30.1901064,63.7465 30.1901064,62.8115 C30.1901064,61.877 29.427234,61.119 28.4861064,61.119 Z" id="Fill-1" sketch:type="MSShapeGroup"></path>
            </g>
        </g>
    </g>
</svg>