<?xml version="1.0" encoding="UTF-8" standalone="no"?>
<svg width="509px" height="89px" viewBox="0 0 509 89" version="1.1" xmlns="http://www.w3.org/2000/svg" xmlns:xlink="http://www.w3.org/1999/xlink" xmlns:sketch="http://www.bohemiancoding.com/sketch/ns">
    <!-- Generator: Sketch 3.0.4 (8053) - http://www.bohemiancoding.com/sketch -->
    <title>logo_s</title>
    <desc>Created with Sketch.</desc>
    <defs></defs>
    <g id="Page-1" stroke="none" stroke-width="1" fill="none" fill-rule="evenodd" sketch:type="MSPage">
        <g id="Artboard-2" sketch:type="MSArtboardGroup" transform="translate(-289.000000, -66.000000)">
            <g id="title" sketch:type="MSLayerGroup" transform="translate(289.000000, 66.000000)">
                <g id="柯文哲野生官網" transform="translate(1.000000, 1.000000)" fill="#FFFFFF" sketch:type="MSShapeGroup">
                    <path d="M368.291313,13.3831224 C367.357316,12.7292653 366.516719,11.982 365.582722,11.2347347 C363.117925,17.1034059 361.846735,21.0425918 359.418343,25.5261837 C363.34113,28.3284286 366.890318,31.410898 370.252707,34.6801837 C368.758312,36.4549388 367.077117,38.2296939 365.395923,40.0978571 L360.539139,40.0978571 C360.912738,42.7132857 361.647034,54.3537332 361.647034,54.3537332 C361.647034,54.3537332 369.038511,53.175 371.840501,52.8947755 L371.840501,87.5492053 L384.916456,87.5492053 L384.916457,51.7738776 C386.504252,51.5870612 388.092047,51.4936531 389.773241,51.3068367 C389.96004,52.8013673 390.240239,54.295898 390.427039,55.7904286 C392.201633,54.5761224 394.163026,53.5486327 396.217819,52.7079592 L396.21782,87.5492053 C396.21782,87.5492053 400.514205,87.5492041 402.849197,87.5492041 C405.090789,87.5492041 409.387176,87.9228341 409.387176,87.9228341 L409.387175,56.1640612 L411.908966,56.1640612 L411.908966,65.9719184 C411.908966,69.4280204 413.68356,71.1093673 417.419548,71.1093673 L425.825519,71.1093673 C427.600113,71.1093673 430.869099,71.1093672 430.869099,71.1093672 L430.869099,60.8344703 C430.869099,60.8344703 428.067112,60.8344694 426.385917,60.8344694 C424.237725,60.8344694 423.210328,59.8069796 423.210328,57.9388163 L423.210328,56.1640612 L431.989898,56.1640612 L431.989898,73.2577551 C431.989898,74.2852449 431.336101,74.7522857 430.215304,74.7522857 C427.786913,74.7522857 423.727666,74.752283 423.727666,74.752283 C423.727666,74.752283 425.265121,82.5051633 425.825519,87.5492041 L436.566483,87.5492041 C442.263864,87.5492041 445.159254,84.1865102 445.159254,77.6479388 L445.159255,4.3225305 L396.21782,4.3225305 L396.217819,17.7733061 C392.85543,15.8117347 389.866641,13.6633469 387.15805,11.2347347 C384.636258,15.3446939 382.021067,19.2678367 379.219076,23.1909796 C378.658678,22.6305306 378.004881,22.0700816 377.351083,21.4162245 C380.308989,16.6863346 385.859285,6.15825134 385.859285,6.15825134 C385.859285,6.15825134 377.645401,3.04179325 374.469812,1.73407897 C372.679579,5.52459003 370.346106,9.64679592 368.291313,13.3831224 Z M409.387175,44.1144082 L409.387175,38.6033265 L414.150559,38.6033265 L414.150559,44.1144082 L409.387175,44.1144082 Z M427.226515,38.6033265 L431.989898,38.6033265 L431.989898,44.1144082 L427.226515,44.1144082 L427.226515,38.6033265 Z M409.387175,26.9273061 L409.387175,19.6414694 L411.161769,19.6414694 L412.189165,26.9273061 L409.387175,26.9273061 Z M420.221538,26.9273061 L419.194142,19.6414694 L422.930129,19.6414694 L421.902732,26.9273061 L420.221538,26.9273061 Z M429.561507,26.9273061 L430.588903,19.6414694 L431.989898,19.6414694 L431.989898,26.9273061 L429.561507,26.9273061 Z M396.217819,40.564898 C395.283822,37.2022041 394.163026,34.0263265 392.94883,30.9438571 C390.800637,32.0647551 388.559045,32.9054286 386.130653,33.6526939 C389.399642,29.3559184 392.762031,24.7789184 396.217819,20.015102 L396.217819,40.564898 Z M386.97125,38.2296939 L386.504252,38.2296939 C385.196656,38.4165102 383.795661,38.5099184 382.394666,38.6033265 C383.515462,37.2022041 384.636258,35.7076735 385.757054,34.1197347 C386.130653,35.427449 386.504252,36.8285714 386.97125,38.2296939 Z M360.461801,83.0571518 C363.450591,83.4307844 365.357254,83.9149221 369.018673,84.5535958 C369.851307,78.7274915 370.252707,57.191551 370.252707,57.191551 C370.252707,57.191551 363.994928,56.631102 361.566536,56.1640612 C362.033534,59.9003878 361.566536,77.1365383 360.461801,83.0571518 Z M392.94883,56.1640612 C390.613838,56.9113265 388.185446,57.4717755 385.663655,57.9388163 C386.877851,65.0378367 387.718448,72.4170816 388.185446,80.2633673 C391.174236,79.2358776 393.789427,78.5820204 395.84422,78.0215714 C395.097023,71.1093673 394.069626,63.8235306 392.94883,56.1640612 Z" id="網"></path>
                    <path d="M301.697338,6.47091837 L267.793252,6.4709183 L267.793252,33.83951 C267.793252,33.83951 272.930235,33.8395102 275.825625,33.8395102 L275.825625,87.92284 L293.851764,87.92284 L293.851764,85.6810408 L328.596447,85.6810408 L328.596445,87.92284 L346.248986,87.92284 L346.248986,55.7904291 L293.384766,55.7904286 L293.384766,52.8947755 L341.205401,52.8947749 L341.205405,33.8395102 L352.133164,33.83951 L352.133164,6.4709183 L318.78948,6.47091837 L318.789479,-0.177306106 L301.697338,-0.177306106 C301.697338,-0.177306106 301.603938,4.78957143 301.697338,6.47091837 Z M293.384766,71.8566327 L293.384766,68.8675714 L328.783247,68.8675714 L328.783247,71.8566327 L293.384766,71.8566327 Z M285.352393,25.152551 L285.352393,22.1634898 L334.200428,22.1634898 L334.200428,25.152551 L285.352393,25.152551 Z M293.384766,40.4714898 L293.384766,37.4824286 L324.019863,37.4824286 L324.019863,40.4714898 L293.384766,40.4714898 Z" id="官"></path>
                    <path d="M178.155632,18.5362857 C176.287638,23.3935102 174.046046,27.4100612 171.524255,30.7727551 C175.203743,34.7978229 178.249032,37.6849592 181.424621,41.9817347 C179.930226,41.9817347 176.941436,42.0751442 176.941436,42.0751442 L176.941436,58.8886111 L206.549136,58.8886122 L206.549136,69.4437347 L173.298849,69.4437374 L173.298849,86.2572043 L258.385959,86.2572043 L258.385959,69.4437374 L226.25647,69.4437347 L226.25647,58.8886122 L254.649971,58.8886111 L254.649971,42.0751442 L226.25647,42.0751429 L226.25647,31.5200204 L256.891564,31.5200199 C256.891564,31.5200199 256.891567,25.9155306 256.891567,23.1132857 C256.891567,20.2176327 256.891564,14.7065511 256.891564,14.7065511 L226.25647,14.706551 L226.25647,8.54161224 C226.25647,7.04708163 226.256469,2.28326531 226.256469,2.28326531 L206.549136,2.2832653 L206.549136,14.706551 L197.022369,14.706551 C197.582767,12.8383878 198.581714,7.63373937 199.077162,5.36573469 C192.352384,4.43165306 186.841803,3.40416327 182.452018,2.28326531 C181.518021,8.16797959 180.023626,13.5856531 178.155632,18.5362857 Z M206.549136,42.0751429 L184.78701,42.0751429 C186.841803,38.5256327 188.803196,35.0695306 190.484391,31.5200204 L206.549136,31.5200204 L206.549136,42.0751429 Z" id="生"></path>
                    <path d="M81.3935585,8.9152449 L81.3935585,40.3003878 C81.3935585,42.6355918 81.3935585,46.8389581 81.3935585,46.8389581 C81.3935585,46.8389581 84.6625475,46.8389592 86.5305412,46.8389592 L95.5903106,46.8389592 L95.5903106,49.7346122 L88.3051352,49.7346122 C86.3437418,49.7346122 82.5143547,49.7346123 82.5143547,49.7346123 C82.5143547,49.7346123 82.5143547,54.4984286 82.5143547,57.020449 C82.5143547,59.3556531 82.5143547,64.306287 82.5143547,64.306287 C82.5143547,64.306287 86.4371415,64.3062857 88.3051352,64.3062857 L95.5903106,64.3062857 L95.5903106,68.4162449 C90.6401273,68.8832857 80.2727623,69.070102 80.2727623,69.070102 C80.2727623,71.1494829 81.0199598,86.2572041 81.0199598,86.2572041 C102.655271,83.6959328 109.600263,82.9879184 122.956418,81.1197551 C122.48942,78.6911429 122.302621,71.2184898 122.48942,69.7239592 C125.665009,75.7020816 127.719802,81.3999796 128.840599,87.0044694 L138.087167,87.0044694 C141.169357,87.0044694 143.597749,86.0703878 145.372343,84.2022245 C146.960137,82.6142857 147.800735,80.2790816 147.800735,77.1032041 L147.800735,63.3722041 C150.976324,64.6799184 154.058513,66.4546735 156.953904,68.6964694 C162.184286,61.1304082 164.799477,52.3500408 164.986277,42.3553673 C164.986277,38.8992653 164.986277,33.2947761 164.986277,33.2947761 C164.986277,33.2947761 160.87669,33.2947755 158.728498,33.2947755 L153.404716,33.2947755 C155.926507,28.5309592 158.635098,23.300102 161.623888,17.6022041 L161.623888,9.94273469 C161.623888,7.1404898 161.623892,2.28326531 161.623892,2.28326531 C161.623892,2.28326531 156.113307,2.28326531 153.311316,2.28326531 L132.109587,2.28326531 C129.774595,2.28326531 124.450812,2.28326531 124.450812,2.28326531 C124.450812,2.28326531 124.450813,7.60753061 124.450813,9.94273469 C124.450813,12.1845306 124.450812,17.9758371 124.450812,17.9758371 C124.450812,17.9758371 128.467,18.0692449 130.334993,17.9758367 C128.3736,21.1517143 126.132008,24.0473673 123.703616,26.7562041 C126.318807,28.7177755 128.933998,30.8661633 131.549189,33.2947755 C129.120798,33.2947755 123.703615,33.2947762 123.703615,33.2947762 C123.703615,33.2947762 123.703616,38.6190408 123.703616,40.9542449 C123.703616,43.1960408 123.703615,48.9873469 123.703615,48.9873469 C123.703615,48.9873469 129.214197,48.9873469 131.36239,48.9873469 L131.735989,48.9873469 L131.735989,68.3228367 C131.735989,69.630551 130.988791,70.191 129.587796,70.191 C127.159404,70.191 124.824412,70.0041837 122.48942,69.4437347 C122.58282,68.2294286 122.769619,66.9217143 122.956418,65.4271837 C120.154428,65.8942245 117.259038,66.2678571 114.457047,66.5480816 C112.308854,66.8283061 110.254061,67.0151224 108.386067,67.2019388 L108.386067,64.3062857 L114.924045,64.3062857 C117.165638,64.3062857 120.808227,64.306287 120.808227,64.306287 C120.808227,64.306287 120.808226,59.5424694 120.808226,57.020449 C120.808226,54.5918367 120.808227,49.7346123 120.808227,49.7346123 C120.808227,49.7346123 116.978839,49.7346122 114.924045,49.7346122 L108.386067,49.7346122 L108.386067,46.8389592 L117.165638,46.8389592 C118.940232,46.8389592 122.302622,46.8389581 122.302622,46.8389581 C122.302622,46.8389581 122.302621,42.6355918 122.302621,40.3003878 L122.302621,8.9152449 C122.302621,6.58004082 122.302622,2.28326531 122.302622,2.28326531 C122.302622,2.28326531 118.940232,2.28326531 117.165638,2.28326531 L86.5305412,2.28326531 C84.6625475,2.28326531 81.3935585,2.28326531 81.3935585,2.28326531 C81.3935585,2.28326531 81.3935585,6.58004082 81.3935585,8.9152449 Z M112.028655,33.6684082 L108.386067,33.6684082 L108.386067,30.7727551 L112.028655,30.7727551 L112.028655,33.6684082 Z M95.5903106,33.6684082 L91.5741242,33.6684082 L91.5741242,30.7727551 L95.5903106,30.7727551 L95.5903106,33.6684082 Z M91.5741242,18.723102 L91.5741242,15.4538163 L95.5903106,15.4538163 L95.5903106,18.723102 L91.5741242,18.723102 Z M108.386067,15.4538163 L112.028655,15.4538163 L112.028655,18.723102 L108.386067,18.723102 L108.386067,15.4538163 Z M147.800735,48.9873469 L152.19052,48.9873469 C151.256523,52.2566327 149.855528,55.339102 147.800735,58.1413469 L147.800735,48.9873469 Z M135.285177,17.9758367 L144.531746,17.9758367 C143.597749,19.5637755 142.570352,21.0583061 141.636355,22.4594286 C139.581562,20.8714898 137.43337,19.3769592 135.285177,17.9758367 Z" id="野"></path>
                    <path d="M5.0671844,9.35 L5.0671844,12.498628 L8.63480851,16.6445 L7.39306383,17.699 L5.0671844,14.9964988 L5.0671844,14.9964988 L5.0671844,24.6785 L3.43267376,24.6785 L3.43267376,15.4385359 L1.29058865,18.571 L-0.0619361702,17.6585 L3.43267376,12.5493683 L3.43267376,9.35 L0.096177305,9.35 L0.096177305,7.727 L3.43267376,7.727 L3.43267376,2.262 L5.0671844,2.262 L5.0671844,7.727 L8.40368085,7.727 L8.40368085,9.35 L5.0671844,9.35 L5.0671844,9.35 Z M0.866099291,36.594 L70.3136667,36.594 L70.3136667,40.8385 L0.866099291,40.8385 L0.866099291,36.594 Z M0.866099291,81.0105 L70.3136667,81.0105 L70.3136667,85.255 L0.866099291,85.255 L0.866099291,81.0105 Z M10.2058723,10.3425 L16.6578085,10.3425 L16.6578085,18.6725 L10.2058723,18.6725 L10.2058723,10.3425 Z M53.9982695,10.4440836 L53.9982695,7.2825 L49.9427092,7.2825 L49.9427092,5.6595 L53.9982695,5.6595 L53.9982695,5.6595 L53.9982695,2.8005 L55.6327801,2.8005 L55.6327801,5.6595 L59.2442128,5.6595 L59.2442128,7.2825 L55.6327801,7.2825 L55.6327801,10.0194323 L58.6752057,9.229 L59.0896241,10.7995 L55.6327801,11.6973557 L55.6327801,14.905 L53.9982695,14.905 L53.9982695,12.1218917 L50.1496667,13.1215 L49.7357518,11.5515 L53.9982695,10.4440836 L53.9982695,10.4440836 Z M11.840383,17.0495 L15.0227943,17.0495 L15.0227943,11.9655 L11.840383,11.9655 L11.840383,17.0495 Z M54.2847872,16.7865 L66.4927589,16.7865 L66.4927589,24.324 L54.2847872,24.324 L54.2847872,16.7865 Z M35.8577239,15.0014974 L29.1875461,22.995 L30.4464113,24.0305 L36.969483,16.2132886 L44.167539,24.059 L45.3750426,22.9665 L38.0221867,14.9517346 L41.710234,10.532 L40.4513688,9.4965 L36.9104492,13.7399176 L32.9913333,9.468 L31.7833262,10.5605 L35.8577239,15.0014974 L35.8577239,15.0014974 Z M21.5311277,5.1835 L23.3182128,5.1835 L23.3182128,3.5605 L9.24712057,3.5605 L9.24712057,5.1835 L19.896617,5.1835 L19.896617,23.0645 L18.280234,23.0645 L18.280234,24.6875 L21.5311277,24.6875 L21.5311277,5.1835 L21.5311277,5.1835 Z M62.3974184,8.717 L70.3509291,8.717 L70.3509291,10.34 L67.1891631,10.34 L67.1891631,10.34 L67.1891631,14.905 L65.5546525,14.905 L65.5546525,10.34 L62.3974184,10.34 L62.3974184,14.905 L60.7629078,14.905 L60.7629078,4.95 L68.7521702,2.914 L69.1585319,4.4865 L62.3974184,6.209 L62.3974184,8.717 L62.3974184,8.717 Z M55.9192979,22.701 L64.8582482,22.701 L64.8582482,18.4095 L55.9192979,18.4095 L55.9192979,22.701 Z M27.3828369,6.7415 L45.6343688,6.7415 L45.6343688,8.3645 L27.3828369,8.3645 L27.3828369,6.7415 Z M35.6913475,1.7565 L37.3258582,1.7565 L37.3258582,4.8485 L35.6913475,4.8485 L35.6913475,1.7565 Z M63.7836809,49.8705 L56.2853759,49.8705 C55.7455745,49.8705 55.3387092,50.2745 55.3387092,50.811 L55.3387092,72.65 C55.3387092,73.169 55.7631986,73.5905 56.2853759,73.5905 C56.7899291,73.5905 57.2325461,73.151 57.2325461,72.65 L57.2325461,51.7515 L63.7836809,51.7515 C66.2354468,51.7515 68.2294894,53.715 68.2294894,56.129 C68.2294894,58.563 66.2354468,60.5435 63.7836809,60.5435 L59.5730284,60.5435 C59.0503475,60.5435 58.6258582,60.965 58.6258582,61.484 C58.6258582,61.9845 59.0679716,62.424 59.5730284,62.424 L63.7836809,62.424 C67.259156,62.424 70.0865674,59.6 70.0865674,56.129 C70.0865674,52.678 67.259156,49.8705 63.7836809,49.8705 Z M37.1833546,48.9235 L37.1833546,48.525 C37.1833546,47.987 36.7442624,47.551 36.2024468,47.551 C35.6611348,47.551 35.2220426,47.987 35.2220426,48.525 L35.2220426,48.916 C26.1964823,49.507 23.2608085,58.579 23.2316028,58.674 C23.1888014,58.8105 23.239156,58.9585 23.3559787,59.0415 C23.4138865,59.0825 23.4818652,59.103 23.549844,59.103 C23.6188298,59.103 23.6878156,59.082 23.746227,59.0395 C24.9688369,58.155 26.122461,57.707 27.1758794,57.707 C28.5913475,57.707 29.3255177,58.518 29.3547234,58.5515 C29.4146454,58.62 29.5002482,58.6615 29.5918936,58.6665 C29.6795106,58.6655 29.7721631,58.637 29.8386312,58.5745 C30.5073404,57.937 31.2092837,57.614 31.9248227,57.614 C33.0467234,57.614 33.8564255,58.414 33.8634752,58.4215 C33.9853333,58.5445 34.1817163,58.555 34.3161631,58.444 C34.615773,58.195 34.9184043,58.01 35.2220426,57.869 L35.2220426,71.0665 C35.2064326,71.5955 34.9410638,71.8635 34.4314752,71.8635 C33.9223901,71.8635 33.6565177,71.5955 33.6414113,71.079 L33.6414113,70.4315 C33.6414113,69.894 33.2023191,69.458 32.6605035,69.458 C32.1191915,69.458 31.6800993,69.894 31.6800993,70.4315 L31.6800993,71.079 C31.6800993,72.1775 32.4127589,73.811 34.4314752,73.811 C36.4501915,73.811 37.1833546,72.1775 37.1833546,71.079 L37.1833546,57.7205 C38.0610355,57.9995 38.6280284,58.638 38.635078,58.6465 C38.6970142,58.7185 38.7871489,58.7615 38.8828227,58.7635 C38.9598652,58.7565 39.0701418,58.7265 39.1350993,58.6565 C39.7715816,57.967 40.5057518,57.6175 41.3174681,57.6175 C42.4519574,57.6175 43.3674043,58.3 43.3764681,58.3075 C43.4927872,58.396 43.6559362,58.398 43.7742695,58.3125 C44.320617,57.9205 44.9283972,57.721 45.5809929,57.721 C46.979844,57.721 48.1465603,58.633 48.1586454,58.6425 C48.2709362,58.732 48.4295532,58.74 48.5509078,58.6595 C48.6712553,58.5805 48.7266454,58.433 48.6883759,58.2945 C48.6621915,58.204 46.1092128,49.55 37.1833546,48.9235 Z M16.281156,59.105 C16.4654539,59.105 16.6150071,58.9575 16.6150071,58.7745 C16.6150071,58.679 16.5742199,58.593 16.509766,58.533 L9.11267376,47.702 C8.98930496,47.52 8.68465957,47.52 8.56129078,47.702 L1.12693617,58.5885 C1.05744681,58.69 1.05039716,58.821 1.10830496,58.9295 C1.16570922,59.0375 1.27900709,59.105 1.40237589,59.105 L6.60350355,59.105 L1.11887943,67.952 C1.05543262,68.0545 1.05241135,68.182 1.11132624,68.287 C1.17024113,68.392 1.28202837,68.4565 1.40237589,68.4565 L7.85632624,68.4565 L7.85632624,73.3245 C7.85632624,73.862 8.29541844,74.298 8.8367305,74.298 C9.3785461,74.298 9.8176383,73.862 9.8176383,73.3245 L9.8176383,68.4565 L16.2715887,68.4565 L16.281156,68.4565 C16.4654539,68.4565 16.6150071,68.3085 16.6150071,68.1255 C16.6150071,68.0355 16.5787518,67.9535 16.5193333,67.8935 L11.070461,59.105 L16.2715887,59.105 C16.2751135,59.105 16.2786383,59.1055 16.281156,59.105 Z M28.4861064,63.119 C27.5444752,63.119 26.7816028,63.877 26.7816028,64.8115 C26.7816028,65.7465 27.5444752,66.504 28.4861064,66.504 C29.427234,66.504 30.1901064,65.7465 30.1901064,64.8115 C30.1901064,63.877 29.427234,63.119 28.4861064,63.119 Z" id="Fill-1"></path>
                </g>
                <g id="unlimited" transform="translate(144.500000, 45.000000)" sketch:type="MSShapeGroup">
                    <path d="M54.0497628,-0.333508139 L35.8528274,-0.333508139 L25.4960609,19.1718926 C24.189366,21.5919175 22.8342751,22.5599275 20.6564504,22.5599275 C18.9141906,22.5599275 18.1398529,21.737119 18.1398529,20.8659101 C18.1398529,20.2367036 18.2850412,19.6074971 18.6722101,18.8330891 L28.8837882,-0.333508139 L10.4932683,-0.333508139 L2.07234604,15.4934548 C0.57206678,18.2522832 0.0397096246,20.1399026 0.0397096246,22.0759225 C0.0397096246,27.0611738 4.92771623,30.2556067 19.6885283,30.2556067 C29.4645415,30.2556067 35.6108468,28.3679873 39.385743,24.5927484 C41.8539444,22.124323 43.063847,20.2367036 45.4836523,15.7354572 L54.0497628,-0.333508139 Z" id="Path" fill="#B52829"></path>
                    <path d="M99.6388938,-0.333508139 L84.8780818,-0.333508139 L78.2962115,12.4442234 L75.4892374,-0.333508139 L58.4054123,-0.333508139 L42.5314898,29.4811987 L57.2923019,29.4811987 L64.4549254,15.6386563 L67.4554839,29.4811987 L83.7649713,29.4811987 L99.6388938,-0.333508139 Z" id="Path" fill="#F6AA3C"></path>
                    <path d="M126.837505,21.640318 L111.157167,21.640318 L122.869024,-0.333508139 L104.478504,-0.333508139 L88.6045818,29.4811987 L122.67544,29.4811987 L126.837505,21.640318 Z" id="Path" fill="#E46536"></path>
                    <path d="M160.472798,-0.333508139 L141.598317,-0.333508139 L125.724394,29.4811987 L144.598875,29.4811987 L160.472798,-0.333508139 Z" id="Path" fill="#2D7734"></path>
                    <path d="M219.806423,-0.333508139 L194.979221,-0.333508139 L184.138493,13.9930393 L187.768201,-0.333508139 L165.505993,-0.333508139 L149.63207,29.4811987 L163.666941,29.4811987 L171.942675,13.1702308 L168.603343,29.4811987 L181.912272,29.4811987 L195.60837,13.5574348 L186.993863,29.4811987 L203.9325,29.4811987 L219.806423,-0.333508139 Z" id="Path" fill="#3382B6"></path>
                    <path d="M243.714098,-0.333508139 L224.839618,-0.333508139 L208.965695,29.4811987 L227.840176,29.4811987 L243.714098,-0.333508139 Z" id="Path" fill="#6854B0"></path>
                    <path d="M285.189561,-0.333508139 L247.05343,-0.333508139 L242.988157,7.26537007 L253.199735,7.26537007 L241.342689,29.4811987 L260.21717,29.4811987 L272.074216,7.26537007 L281.124288,7.26537007 L285.189561,-0.333508139 Z" id="Path" fill="#B52829"></path>
                    <path d="M323.809652,-0.333508139 L288.335307,-0.333508139 L272.461385,29.4811987 L308.468087,29.4811987 L312.484964,21.930721 L293.707275,21.930721 L295.788308,18.1554822 L312.630152,18.1554822 L316.50184,10.8470069 L299.6116,10.8470069 L301.644236,7.21696957 L319.792776,7.21696957 L323.809652,-0.333508139 Z" id="Path" fill="#F6AA3C"></path>
                    <path d="M364.413984,8.42698203 C364.413984,6.10375811 363.736439,4.50654168 362.381348,3.15132773 C360.009939,0.779703318 356.13825,-0.333508139 347.81412,-0.333508139 L328.165302,-0.333508139 L312.291379,29.4811987 L337.070185,29.4811987 C347.233367,29.4811987 353.379673,27.3999773 356.912588,23.8667409 C358.654848,22.124323 360.445504,19.5590966 362.671725,14.8642483 C364.075212,11.9118179 364.413984,10.4114024 364.413984,8.42698203 Z M346.797802,9.0561885 C346.797802,9.87899697 346.555822,10.5566039 345.975068,11.6214149 L342.296964,18.4942856 C341.087062,20.7691091 339.973951,21.930721 337.602542,21.930721 L333.972834,21.930721 L341.813003,7.21696957 L344.184413,7.21696957 C345.975068,7.21696957 346.797802,7.89457655 346.797802,9.0561885 Z" id="Path" fill="#E56535"></path>
                </g>
            </g>
        </g>
    </g>
</svg>