<?xml version="1.0" encoding="UTF-8" standalone="no"?>
<svg width="731px" height="55px" viewBox="0 0 731 55" version="1.1" xmlns="http://www.w3.org/2000/svg" xmlns:xlink="http://www.w3.org/1999/xlink" xmlns:sketch="http://www.bohemiancoding.com/sketch/ns">
    <!-- Generator: Sketch 3.0.4 (8053) - http://www.bohemiancoding.com/sketch -->
    <title>workshop_en</title>
    <desc>Created with Sketch.</desc>
    <defs></defs>
    <g id="Page-1" stroke="none" stroke-width="1" fill="none" fill-rule="evenodd" sketch:type="MSPage">
        <g id="柯P-unlimited-desktop" sketch:type="MSArtboardGroup" transform="translate(-148.000000, -2474.000000)" fill="#E7DCD2">
            <g id="Workshop" sketch:type="MSLayerGroup" transform="translate(148.000000, 2179.000000)">
                <path d="M128.1888,297.72 L112.6304,297.72 L91.792,337.2848 L72.5024,297.72 L56.5216,297.72 L37.0912,337.4256 L16.2528,297.72 L0.0608,297.72 L26.9536,347.2816 L45.8912,347.2816 L64.1248,309.8992 L82.4288,347.2816 L101.296,347.2816 L128.1888,297.72 Z M135.44,322.36 C135.44,329.4 137.4112,335.3136 142.0576,339.96 C146.8448,344.7472 155.6448,348.8304 176.4832,348.8304 C197.3216,348.8304 206.1216,344.7472 210.9088,339.96 C215.5552,335.3136 217.5264,329.4 217.5264,322.36 C217.5264,315.32 215.5552,309.4064 210.9088,304.76 C206.1216,299.9728 197.3216,295.8896 176.4832,295.8896 C155.6448,295.8896 146.8448,299.9728 142.0576,304.76 C137.4112,309.4064 135.44,315.32 135.44,322.36 Z M203.2352,322.36 C203.2352,327.64 201.616,330.7376 199.504,332.8496 C196.6176,335.736 190.5632,338.2 176.4832,338.2 C162.4032,338.2 156.3488,335.736 153.4624,332.8496 C151.3504,330.7376 149.7312,327.64 149.7312,322.36 C149.7312,317.08 151.3504,313.9824 153.4624,311.8704 C156.3488,308.984 162.4032,306.52 176.4832,306.52 C190.5632,306.52 196.6176,308.984 199.504,311.8704 C201.616,313.9824 203.2352,317.08 203.2352,322.36 Z M301.3728,314.3344 C301.3728,310.4624 300.528,306.168 297.4304,303.0704 C293.84,299.48 288.8416,297.72 273.9872,297.72 L231.0432,297.72 L231.0432,347 L245.0528,347 L245.0528,331.16 L262.6528,331.16 L286.3776,347 L306.864,347 L306.864,346.7888 L282.0128,330.9488 C290.4608,330.3152 294.4032,328.4848 297.2192,325.6688 C300.5984,322.2896 301.3728,318.0656 301.3728,314.3344 Z M285.8144,310.8848 C286.8704,311.9408 287.2928,313.1376 287.2928,314.7568 C287.2928,316.1648 286.8,317.5728 285.8848,318.488 C284.0544,320.3184 280.2528,320.8112 273.776,320.8112 L245.0528,320.8112 L245.0528,309.0544 L273.776,309.0544 C280.9568,309.0544 284.2656,309.336 285.8144,310.8848 Z M330.0256,316.4464 L330.0256,297.72 L316.016,297.72 L316.016,347 L330.0256,347 L330.0256,327.7808 L338.2624,327.7808 L367.4784,347 L388.7392,347 L388.7392,346.7888 L351.216,322.0784 L388.176,297.9312 L388.176,297.72 L367.9008,297.72 L339.248,316.4464 L330.0256,316.4464 Z M397.1872,313.1376 C397.1872,316.728 398.3136,319.8256 400.2144,321.7264 C404.368,325.88 413.2384,327.64 431.2608,328.1328 C448.2272,328.6256 450.128,329.4 451.2544,330.5264 C451.8176,331.0896 452.0288,331.7232 452.0288,332.6384 C452.0288,333.4128 451.888,334.1872 451.184,334.8912 C449.1424,336.9328 441.68,337.2848 431.0496,337.2848 C418.8704,337.2848 403.1008,334.2576 395.8496,331.0192 L395.8496,342.5648 C403.3824,345.7328 416.9696,347.9152 431.0496,347.9152 C450.128,347.9152 458.1536,345.0288 461.8144,341.368 C464.56,338.6224 465.3344,334.9616 465.3344,331.16 C465.3344,327.64 464.208,324.3312 462.1664,322.2896 C458.224,318.3472 450.0576,316.728 431.1904,316.3056 C418.3776,316.024 412.816,315.6016 411.3376,314.1232 C410.7744,313.56 410.4928,312.856 410.4928,311.8704 C410.4928,310.9552 410.8448,310.2512 411.408,309.688 C412.9568,308.1392 418.096,307.4352 429.9936,307.4352 C440.7648,307.4352 453.7888,309.7584 461.2512,312.9264 L461.2512,301.3808 C454.704,298.776 442.2432,296.8048 429.8528,296.8048 C413.2384,296.8048 405.072,298.8464 400.9888,302.9296 C397.8912,306.0272 397.1872,309.4064 397.1872,313.1376 Z M492.72,316.5168 L492.72,297.72 L478.7104,297.72 L478.7104,347 L492.72,347 L492.72,327.7104 L538.2688,327.7104 L538.2688,347 L552.2784,347 L552.2784,297.72 L538.2688,297.72 L538.2688,316.5168 L492.72,316.5168 Z M565.7952,322.36 C565.7952,329.4 567.7664,335.3136 572.4128,339.96 C577.2,344.7472 586,348.8304 606.8384,348.8304 C627.6768,348.8304 636.4768,344.7472 641.264,339.96 C645.9104,335.3136 647.8816,329.4 647.8816,322.36 C647.8816,315.32 645.9104,309.4064 641.264,304.76 C636.4768,299.9728 627.6768,295.8896 606.8384,295.8896 C586,295.8896 577.2,299.9728 572.4128,304.76 C567.7664,309.4064 565.7952,315.32 565.7952,322.36 Z M633.5904,322.36 C633.5904,327.64 631.9712,330.7376 629.8592,332.8496 C626.9728,335.736 620.9184,338.2 606.8384,338.2 C592.7584,338.2 586.704,335.736 583.8176,332.8496 C581.7056,330.7376 580.0864,327.64 580.0864,322.36 C580.0864,317.08 581.7056,313.9824 583.8176,311.8704 C586.704,308.984 592.7584,306.52 606.8384,306.52 C620.9184,306.52 626.9728,308.984 629.8592,311.8704 C631.9712,313.9824 633.5904,317.08 633.5904,322.36 Z M729.968,314.616 C729.968,310.4624 729.1232,306.168 726.0256,303.0704 C722.4352,299.48 717.4368,297.72 702.5824,297.72 L661.3984,297.72 L661.3984,347 L675.408,347 L675.408,331.7232 L702.9344,331.7232 C716.8736,331.7232 722.2944,329.752 725.8144,326.232 C729.1936,322.8528 729.968,318.6288 729.968,314.616 Z M714.4096,310.8848 C715.4656,311.9408 715.888,313.1376 715.888,315.0384 C715.888,316.728 715.3952,318.136 714.48,319.0512 C712.6496,320.8816 708.848,321.3744 702.3712,321.3744 L675.408,321.3744 L675.408,309.0544 L702.3712,309.0544 C709.552,309.0544 712.8608,309.336 714.4096,310.8848 Z" id="workshop_en" sketch:type="MSShapeGroup"></path>
            </g>
        </g>
    </g>
</svg>