<?xml version="1.0" encoding="UTF-8" standalone="no"?>
<svg width="472px" height="33px" viewBox="0 0 472 33" version="1.1" xmlns="http://www.w3.org/2000/svg" xmlns:xlink="http://www.w3.org/1999/xlink" xmlns:sketch="http://www.bohemiancoding.com/sketch/ns">
    <!-- Generator: Sketch 3.0.4 (8053) - http://www.bohemiancoding.com/sketch -->
    <title>workshop_zh</title>
    <desc>Created with Sketch.</desc>
    <defs></defs>
    <g id="Page-1" stroke="none" stroke-width="1" fill="none" fill-rule="evenodd" sketch:type="MSPage">
        <g id="柯P-unlimited-desktop" sketch:type="MSArtboardGroup" transform="translate(-278.000000, -2562.000000)" fill="#FFEC9F">
            <g id="Workshop" sketch:type="MSLayerGroup" transform="translate(148.000000, 2179.000000)">
                <path d="M160.450002,388.263 L160.450002,386.283 L140.848002,386.283 L140.848002,388.263 L155.434002,388.263 L155.434002,410.901 C155.434002,411.528 155.236002,411.627 154.345002,411.627 C153.388002,411.627 152.101002,411.462 150.550002,411.198 L150.715002,413.409 C152.167002,413.64 153.322002,413.673 154.345002,413.673 C156.721002,413.673 157.480002,413.079 157.480002,410.802 L157.480002,388.263 L160.450002,388.263 L160.450002,388.263 Z M152.662002,406.446 L152.662002,393.081 L144.148002,393.081 L144.148002,406.512 L146.062002,406.512 L146.062002,404.763 L150.715002,404.763 L150.715002,406.446 L152.662002,406.446 L152.662002,406.446 Z M150.715002,402.882 L146.062002,402.882 L146.062002,394.962 L150.715002,394.962 L150.715002,402.882 L150.715002,402.882 Z M143.290002,402.387 C142.234002,399.615 141.706002,398.262 140.485002,395.49 L138.769002,396.315 C139.924002,398.856 140.419002,400.308 141.475002,403.311 L143.290002,402.387 L143.290002,402.387 Z M143.158002,392.388 L143.158002,390.408 L138.472002,390.408 L138.472002,384.039 L136.459002,384.039 L136.459002,390.408 L130.915002,390.408 L130.915002,392.388 L136.129002,392.388 C134.974002,396.711 133.060002,401.463 130.288002,405.951 L131.938002,407.205 C134.182002,403.344 135.436002,399.78 136.459002,397.107 L136.459002,414.267 L138.472002,414.267 L138.472002,392.388 L143.158002,392.388 L143.158002,392.388 Z M193.673002,394.236 C193.673002,389.253 190.934002,386.514 185.423002,386.514 L177.272002,386.514 L177.272002,411 L179.648002,411 L179.648002,401.925 L185.423002,401.925 C190.934002,401.925 193.673002,399.219 193.673002,394.236 L193.673002,394.236 L193.673002,394.236 Z M191.198002,394.236 C191.198002,398.163 189.284002,399.747 184.928002,399.747 L179.648002,399.747 L179.648002,388.692 L184.928002,388.692 C189.284002,388.692 191.198002,390.309 191.198002,394.236 L191.198002,394.236 L191.198002,394.236 Z M235.080001,402.519 C236.697001,399.483 237.291001,398.031 238.446001,394.929 L232.341001,394.929 C231.945001,394.434 231.615001,394.071 231.252001,393.642 C233.232001,391.761 234.948001,389.913 237.027001,387.372 L237.027001,385.92 L224.190001,385.92 L224.190001,387.735 L234.288001,387.735 C232.869001,389.418 231.582001,390.804 230.031001,392.157 C229.272001,391.365 228.579001,390.54 227.556001,389.484 L226.071001,390.771 C227.754001,392.52 228.711001,393.609 229.866001,394.929 L223.332001,394.929 L223.332001,396.777 L229.206001,396.777 L229.206001,410.736 C229.206001,411.396 229.140001,411.66 228.381001,411.66 C227.424001,411.66 226.269001,411.627 224.454001,411.33 L224.652001,413.442 C226.335001,413.673 227.424001,413.706 228.216001,413.706 C230.427001,413.706 231.120001,413.079 231.120001,410.736 L231.120001,396.777 L235.839001,396.777 C235.179001,398.328 234.486001,399.516 233.463001,401.463 L235.080001,402.519 L235.080001,402.519 Z M209.043001,413.178 C214.719001,412.122 219.405001,411.198 224.223001,409.977 L224.025001,408.063 C221.385001,408.723 219.405001,409.185 217.128001,409.614 L217.128001,405.258 L223.200001,405.258 L223.200001,403.377 L217.128001,403.377 L217.128001,399.747 L222.276001,399.747 L222.276001,385.821 L209.934001,385.821 L209.934001,399.747 L215.214001,399.747 L215.214001,403.377 L209.307001,403.377 L209.307001,405.258 L215.214001,405.258 L215.214001,410.01 C212.970001,410.505 211.089001,410.802 208.449001,411.231 L209.043001,413.178 L209.043001,413.178 Z M220.362001,391.662 L217.128001,391.662 L217.128001,387.702 L220.362001,387.702 L220.362001,391.662 L220.362001,391.662 Z M215.214001,391.662 L211.848001,391.662 L211.848001,387.702 L215.214001,387.702 L215.214001,391.662 L215.214001,391.662 Z M220.362001,397.833 L217.128001,397.833 L217.128001,393.444 L220.362001,393.444 L220.362001,397.833 L220.362001,397.833 Z M215.214001,397.833 L211.848001,397.833 L211.848001,393.444 L215.214001,393.444 L215.214001,397.833 L215.214001,397.833 Z M283.318001,412.485 L283.318001,410.439 L270.052001,410.439 L270.052001,402.189 L279.556001,402.189 L279.556001,400.143 L270.052001,400.143 L270.052001,393.015 L280.810001,393.015 L280.810001,390.969 L270.052001,390.969 L270.052001,384.039 L267.874001,384.039 L267.874001,390.969 L261.142001,390.969 C261.901001,389.286 262.561001,387.669 263.188001,385.788 L261.241001,384.996 C259.624001,389.88 257.314001,394.863 253.618001,399.582 L255.334001,400.836 C257.413001,398.097 258.898001,395.655 260.218001,393.015 L267.874001,393.015 L267.874001,400.143 L258.370001,400.143 L258.370001,402.189 L267.874001,402.189 L267.874001,410.439 L254.146001,410.439 L254.146001,412.485 L283.318001,412.485 L283.318001,412.485 Z M327.629,394.269 L327.629,387.801 L315.221,387.801 C314.693,386.382 314.363,385.59 313.406,383.643 L311.426,384.6 L312.944,387.801 L300.404,387.801 L300.404,394.401 L302.549,394.401 L302.549,389.847 L325.484,389.847 L325.484,394.269 L327.629,394.269 L327.629,394.269 Z M324.131,414.3 L324.131,403.311 L307.532,403.311 L307.532,400.638 L322.25,400.638 L322.25,392.454 L305.486,392.454 L305.486,414.3 L307.532,414.3 L307.532,412.551 L322.052,412.551 L322.052,414.3 L324.131,414.3 L324.131,414.3 Z M320.171,398.592 L307.532,398.592 L307.532,394.5 L320.171,394.5 L320.171,398.592 L320.171,398.592 Z M322.052,410.505 L307.532,410.505 L307.532,405.39 L322.052,405.39 L322.052,410.505 L322.052,410.505 Z M370.059,413.706 C371.907,413.706 372.897,413.343 372.897,411.231 L372.897,385.656 L356.727,385.656 L356.727,414.102 L358.674,414.102 L358.674,387.636 L370.95,387.636 L370.95,411.066 C370.95,411.693 370.851,411.759 370.059,411.759 C369.3,411.759 368.112,411.693 366.891,411.462 L367.089,413.541 C368.013,413.64 369.234,413.706 370.059,413.706 L370.059,413.706 L370.059,413.706 Z M370.356,401.628 L370.356,399.747 L366.462,399.747 C365.934,398.559 365.505,397.8 364.548,396.051 L369.993,396.051 L369.993,394.17 L367.023,394.17 C368.178,392.124 368.772,390.969 369.729,388.857 L368.046,388.131 C367.089,390.243 366.396,391.497 365.175,393.576 L366.198,394.17 L363.327,394.17 L364.515,393.279 C363.459,391.53 362.832,390.408 361.413,388.296 L359.862,389.319 C361.182,391.365 361.743,392.322 362.799,394.17 L359.466,394.17 L359.466,396.051 L364.383,396.051 L362.766,396.909 C363.558,398.328 363.921,398.955 364.317,399.747 L359.169,399.747 L359.169,401.628 L361.479,401.628 L361.479,406.413 C361.479,407.7 362.238,408.525 363.657,408.525 L369.729,408.525 L369.729,406.545 L363.723,406.545 C363.558,406.545 363.459,406.479 363.459,406.347 L363.459,401.628 L370.356,401.628 L370.356,401.628 Z M356.562,403.971 C355.671,401.397 354.945,399.615 353.889,397.173 L352.173,397.998 C352.668,399.153 352.932,399.714 353.229,400.473 C351.678,400.704 350.721,400.836 349.302,401.001 C351.546,397.668 353.79,393.741 355.737,390.144 L353.724,389.352 C353.097,390.771 352.569,391.893 351.942,392.982 C350.787,393.147 349.929,393.246 348.774,393.378 C350.061,390.87 351.282,387.999 352.569,384.963 L350.589,384.204 C349.236,387.768 348.048,390.606 346.497,393.51 C346.002,393.543 345.474,393.543 344.649,393.642 L345.21,395.589 C347.553,395.358 349.137,395.226 350.853,394.995 C349.533,397.206 348.378,398.955 346.761,401.199 C346.134,401.232 345.573,401.298 344.55,401.331 L344.946,403.377 C348.972,403.014 351.183,402.684 353.922,402.255 L354.813,404.763 L356.562,403.971 L356.562,403.971 Z M356.298,410.538 C355.506,407.964 354.846,406.215 353.889,403.74 L352.173,404.433 C353.064,406.809 353.658,408.657 354.351,411.165 L356.298,410.538 L356.298,410.538 Z M351.744,412.518 C351.645,409.614 351.579,407.238 351.348,404.367 L349.5,404.565 C349.632,407.073 349.698,409.515 349.731,412.683 L351.744,412.518 L351.744,412.518 Z M346.167,413.805 C347.223,410.637 347.916,408.096 348.609,404.763 L346.794,404.367 C346.101,407.37 345.408,409.845 344.319,413.013 L346.167,413.805 L346.167,413.805 Z M420.178,412.254 C417.175,411.231 414.469,409.977 412.093,408.294 C414.37,405.885 416.02,402.816 417.043,398.823 L402.292,398.823 L402.292,400.704 L404.338,400.704 C405.493,403.872 407.11,406.347 409.222,408.36 C407.011,410.175 404.239,411.462 400.774,412.485 L400.774,402.684 L391.699,402.684 L391.699,413.838 L393.613,413.838 L393.613,412.056 L398.893,412.056 L398.893,413.871 L400.774,413.871 L400.774,412.881 L401.665,414.465 C405.361,413.178 408.43,411.495 410.674,409.647 C413.05,411.495 415.789,412.848 419.122,414.267 L420.178,412.254 L420.178,412.254 Z M415.657,397.041 C416.812,397.041 418.297,396.909 419.518,396.612 L419.518,394.566 C418.099,394.83 416.713,394.995 415.657,394.995 C414.733,394.995 414.601,394.83 414.601,394.071 L414.601,385.425 L405.361,385.425 L405.295,389.649 C405.13,392.949 404.008,394.764 400.906,396.348 L402.259,398.097 C405.856,396.084 407.044,393.213 407.209,389.913 C407.308,388.956 407.275,387.933 407.275,387.24 L412.555,387.24 L412.555,394.071 C412.555,396.249 413.149,397.041 415.657,397.041 L415.657,397.041 L415.657,397.041 Z M402.457,391.101 L402.457,389.154 L397.54,389.154 L398.002,388.956 C397.309,387.075 396.748,385.755 395.824,383.808 L394.141,384.6 C394.933,386.448 395.428,387.471 395.956,389.154 L389.818,389.154 L389.818,391.101 L402.457,391.101 L402.457,391.101 Z M414.37,400.704 C413.578,403.212 412.324,405.324 410.608,407.073 C408.628,405.291 407.209,403.179 406.318,400.704 L414.37,400.704 L414.37,400.704 Z M398.893,410.274 L393.613,410.274 L393.613,404.565 L398.893,404.565 L398.893,410.274 L398.893,410.274 Z M400.906,399.813 L400.906,397.998 L391.138,397.998 L391.138,399.813 L400.906,399.813 L400.906,399.813 Z M401.005,395.391 L401.005,393.609 L391.138,393.609 L391.138,395.391 L401.005,395.391 L401.005,395.391 Z M465.082999,395.919 L465.082999,393.873 L458.482999,393.873 L458.482999,384.039 L456.337999,384.039 L456.337999,393.873 L449.803999,393.873 L449.803999,395.919 L456.337999,395.919 L456.337999,414.3 L458.482999,414.3 L458.482999,395.919 L465.082999,395.919 L465.082999,395.919 Z M449.572999,390.969 L449.572999,388.989 L443.962999,388.989 L444.358999,388.824 C443.632999,386.943 443.071999,385.656 442.180999,383.61 L440.299999,384.402 C441.190999,386.25 441.586999,387.339 442.180999,388.989 L435.415999,388.989 L435.415999,390.969 L449.572999,390.969 L449.572999,390.969 Z M448.417999,395.523 L448.417999,393.609 L436.801999,393.609 L436.801999,395.523 L448.417999,395.523 L448.417999,395.523 Z M448.417999,400.077 L448.417999,398.163 L436.801999,398.163 L436.801999,400.077 L448.417999,400.077 L448.417999,400.077 Z M448.054999,413.838 L448.054999,402.882 L437.461999,402.882 L437.461999,413.838 L439.474999,413.838 L439.474999,412.155 L446.041999,412.155 L446.041999,413.838 L448.054999,413.838 L448.054999,413.838 Z M446.041999,410.241 L439.474999,410.241 L439.474999,404.829 L446.041999,404.829 L446.041999,410.241 L446.041999,410.241 Z M510.086999,411.594 L510.086999,409.449 L496.853999,409.449 L496.853999,390.573 L508.403999,390.573 L508.403999,388.428 L482.762999,388.428 L482.762999,390.573 L494.477999,390.573 L494.477999,409.449 L481.310999,409.449 L481.310999,411.594 L510.086999,411.594 L510.086999,411.594 Z M555.882998,391.629 L555.882998,389.517 L540.735998,389.517 C541.428998,387.801 541.956998,386.547 542.583998,384.6 L540.603998,383.94 C538.920998,388.923 536.643998,394.005 533.871998,398.196 L535.719998,399.384 C537.534998,396.612 538.722998,394.236 539.910998,391.629 L542.319998,391.629 L542.319998,414.168 L544.464998,414.168 L544.464998,405.423 L554.298998,405.423 L554.298998,403.41 L544.464998,403.41 L544.464998,398.361 L554.331998,398.361 L554.331998,396.348 L544.464998,396.348 L544.464998,391.629 L555.882998,391.629 L555.882998,391.629 Z M532.914998,393.18 C533.970998,390.903 535.191998,388.131 536.379998,384.534 L534.300998,383.808 C532.287998,389.847 529.383998,395.787 525.687998,401.298 L527.502998,402.585 C528.789998,400.836 529.779998,398.724 530.802998,396.975 L530.802998,414.102 L532.914998,414.102 L532.914998,393.18 L532.914998,393.18 Z M597.124998,414.234 L597.124998,405.885 L586.432998,405.885 C586.663998,405.456 586.927998,404.895 587.158998,404.268 L595.078998,404.268 L595.078998,398.13 L577.786998,398.13 L577.786998,404.268 L585.046998,404.268 C584.815998,404.829 584.551998,405.357 584.287998,405.885 L575.608998,405.885 L575.608998,414.234 L577.522998,414.234 L577.522998,412.815 L595.210998,412.815 L595.210998,414.234 L597.124998,414.234 L597.124998,414.234 Z M600.193998,400.539 L600.193998,394.797 L599.368998,394.797 L600.226998,393.279 C597.685998,391.959 595.771998,391.002 593.296998,390.045 C593.395998,389.913 593.362998,389.748 593.461998,389.649 C595.738998,388.494 596.893998,387.9 599.005998,386.679 L597.916998,385.128 C596.431998,386.151 595.408998,386.679 593.989998,387.438 C594.121998,386.547 594.187998,385.524 594.286998,384.105 L592.471998,383.94 C592.108998,389.649 591.316998,391.662 586.366998,393.609 L587.092998,394.797 L575.311998,394.797 C577.588998,393.972 579.106998,392.916 580.129998,391.497 C581.746998,392.388 583.198998,393.246 585.145998,394.467 L586.333998,392.817 C584.353998,391.629 582.868998,390.804 581.020998,389.913 L581.218998,389.418 C583.231998,388.527 584.452998,387.834 586.333998,386.778 L585.112998,385.26 C583.825998,386.151 583.066998,386.613 581.779998,387.24 C581.911998,386.349 581.977998,385.425 582.076998,384.105 L580.162998,383.94 C579.733998,389.715 578.908998,391.563 573.760998,393.411 L574.420998,394.797 L572.638998,394.797 L572.638998,400.539 L574.618998,400.539 L574.618998,396.678 L598.246998,396.678 L598.246998,400.539 L600.193998,400.539 L600.193998,400.539 Z M595.210998,410.967 L577.522998,410.967 L577.522998,407.733 L595.210998,407.733 L595.210998,410.967 L595.210998,410.967 Z M593.263998,402.486 L579.667998,402.486 L579.667998,399.945 L593.263998,399.945 L593.263998,402.486 L593.263998,402.486 Z M592.471998,391.629 C594.715998,392.586 596.596998,393.576 598.939998,394.797 L588.247998,394.797 C590.161998,393.972 591.580998,392.916 592.471998,391.629 L592.471998,391.629 L592.471998,391.629 Z M578.512998,389.715 C577.423998,387.735 576.796998,386.745 575.575998,384.831 L574.057998,385.821 C575.179998,387.57 575.839998,388.758 576.895998,390.705 L578.512998,389.715 L578.512998,389.715 Z M590.656998,389.814 C589.765998,387.834 589.237998,386.679 588.247998,384.831 L586.663998,385.656 C587.620998,387.471 588.148998,388.659 588.940998,390.606 L590.656998,389.814 L590.656998,389.814 Z" id="Workshop_zh" sketch:type="MSShapeGroup"></path>
            </g>
        </g>
    </g>
</svg>