<?xml version="1.0" encoding="UTF-8" standalone="no"?>
<svg width="594px" height="65px" viewBox="0 0 594 65" version="1.1" xmlns="http://www.w3.org/2000/svg" xmlns:xlink="http://www.w3.org/1999/xlink" xmlns:sketch="http://www.bohemiancoding.com/sketch/ns">
    <!-- Generator: Sketch 3.0.4 (8053) - http://www.bohemiancoding.com/sketch -->
    <title>workshop_date</title>
    <desc>Created with Sketch.</desc>
    <defs></defs>
    <g id="Page-1" stroke="none" stroke-width="1" fill="none" fill-rule="evenodd" sketch:type="MSPage">
        <g id="柯P-unlimited-desktop" sketch:type="MSArtboardGroup" transform="translate(-218.000000, -2626.000000)" fill="#FFF3E7">
            <g id="Workshop" sketch:type="MSLayerGroup" transform="translate(148.000000, 2179.000000)">
                <path d="M145.3312,479.36 C145.3312,472.32 143.2192,466.2656 138.8544,461.9008 C133.9968,457.0432 126.2528,453.312 108.0192,453.312 C89.7856,453.312 82.0416,457.0432 77.184,461.9008 C72.8192,466.2656 70.7072,472.32 70.7072,479.36 C70.7072,486.4 72.8192,492.4544 77.184,496.8192 C82.0416,501.6768 89.7856,505.408 108.0192,505.408 C126.2528,505.408 133.9968,501.6768 138.8544,496.8192 C143.2192,492.4544 145.3312,486.4 145.3312,479.36 Z M143.2192,479.36 C143.2192,486.6112 141.4592,491.3984 136.8832,495.9744 C132.9408,499.9168 124.9856,503.4368 108.0192,503.4368 C91.0528,503.4368 83.0976,499.9168 79.1552,495.9744 C74.5792,491.3984 72.8192,486.6112 72.8192,479.36 C72.8192,472.1088 74.5792,467.3216 79.1552,462.7456 C83.0976,458.8032 91.0528,455.2832 108.0192,455.2832 C124.9856,455.2832 132.9408,458.8032 136.8832,462.7456 C141.4592,467.3216 143.2192,472.1088 143.2192,479.36 Z M192.9216,453.5936 C175.5328,453.5936 167.1552,455.6352 162.8608,459.9296 C160.3264,462.464 159.1296,465.4912 159.1296,469.4336 C159.1296,473.376 160.6784,476.896 162.5792,478.7968 C166.6624,482.88 175.392,485.0624 192.3584,485.0624 C207.9872,485.0624 217.4208,483.3024 222.0672,478.656 C224.0384,476.6848 225.0944,474.5728 225.4464,472.32 C225.6576,474.432 225.728,476.9664 225.728,479.5008 C225.728,486.752 223.616,492.032 219.8848,495.7632 C214.9568,500.6912 206.4384,503.4368 191.1616,503.4368 C179.968,503.4368 169.6896,501.6064 161.7344,498.368 L161.7344,500.5504 C167.7184,502.8736 177.504,505.408 191.1616,505.408 C208.48,505.408 216.224,502.3104 221.7152,496.8192 C226.08,492.4544 227.84,485.696 227.84,478.7968 C227.84,470.912 226.7136,464.4352 222.7712,460.4928 C218.4768,456.1984 210.3104,453.5936 192.9216,453.5936 Z M192.9216,455.5648 C209.536,455.5648 217.28,457.888 221.3632,461.9712 C223.3344,463.9424 224.3904,466.4064 224.3904,469.3632 C224.3904,472.4608 222.7712,475.2768 220.9408,477.1072 C215.872,482.176 203.9744,483.0912 192.3584,483.0912 C175.392,483.0912 167.7888,480.9792 164.2688,477.4592 C162.2976,475.488 161.2416,472.672 161.2416,469.4336 C161.2416,465.984 162.368,463.3792 164.2688,461.4784 C168.6336,457.1136 176.3072,455.5648 192.9216,455.5648 Z M238.2592,510.9696 L287.5392,447.7504 L285.0048,447.7504 L235.5136,510.9696 L238.2592,510.9696 Z M368.7808,479.36 C368.7808,472.32 366.6688,466.2656 362.304,461.9008 C357.4464,457.0432 349.7024,453.312 331.4688,453.312 C313.2352,453.312 305.4912,457.0432 300.6336,461.9008 C296.2688,466.2656 294.1568,472.32 294.1568,479.36 C294.1568,486.4 296.2688,492.4544 300.6336,496.8192 C305.4912,501.6768 313.2352,505.408 331.4688,505.408 C349.7024,505.408 357.4464,501.6768 362.304,496.8192 C366.6688,492.4544 368.7808,486.4 368.7808,479.36 Z M366.6688,479.36 C366.6688,486.6112 364.9088,491.3984 360.3328,495.9744 C356.3904,499.9168 348.4352,503.4368 331.4688,503.4368 C314.5024,503.4368 306.5472,499.9168 302.6048,495.9744 C298.0288,491.3984 296.2688,486.6112 296.2688,479.36 C296.2688,472.1088 298.0288,467.3216 302.6048,462.7456 C306.5472,458.8032 314.5024,455.2832 331.4688,455.2832 C348.4352,455.2832 356.3904,458.8032 360.3328,462.7456 C364.9088,467.3216 366.6688,472.1088 366.6688,479.36 Z M418.2016,505.408 C435.5904,505.408 443.968,503.3664 448.2624,499.072 C450.7968,496.5376 451.9936,493.5104 451.9936,489.568 C451.9936,485.6256 450.4448,482.1056 448.544,480.2048 C444.4608,476.1216 435.7312,473.9392 418.7648,473.9392 C403.136,473.9392 393.7024,475.6992 389.056,480.3456 C387.0848,482.3168 386.0288,484.4288 385.6064,486.6816 C385.3952,484.64 385.3952,482.0352 385.3952,479.5008 C385.3952,472.2496 387.5072,466.9696 391.2384,463.2384 C396.1664,458.3104 404.6848,455.5648 419.9616,455.5648 C430.8032,455.5648 439.9552,457.3248 447.9104,460.4224 L447.9104,458.24 C441.9264,456.0576 433.2672,453.5936 419.9616,453.5936 C402.6432,453.5936 394.8992,456.6912 389.408,462.1824 C385.0432,466.5472 383.2832,473.3056 383.2832,480.2048 C383.2832,488.0896 384.4096,494.5664 388.352,498.5088 C392.6464,502.8032 400.8128,505.408 418.2016,505.408 Z M418.2016,503.4368 C401.5872,503.4368 393.8432,501.1136 389.76,497.0304 C387.7888,495.0592 386.7328,492.5952 386.7328,489.6384 C386.7328,486.5408 388.352,483.7248 390.1824,481.8944 C395.2512,476.8256 407.1488,475.9104 418.7648,475.9104 C435.7312,475.9104 443.3344,478.0224 446.8544,481.5424 C448.8256,483.5136 449.8816,486.3296 449.8816,489.568 C449.8816,493.0176 448.7552,495.6224 446.8544,497.5232 C442.4896,501.888 434.816,503.4368 418.2016,503.4368 Z M461.7088,510.9696 L510.9888,447.7504 L508.4544,447.7504 L458.9632,510.9696 L461.7088,510.9696 Z M515.2128,469.3632 L537.7408,456.7616 L537.7408,504 L539.7824,504 L539.7824,454.72 L537.248,454.72 L515.2128,467.1808 L515.2128,469.3632 Z M616.1664,454.72 L558.2272,489.8496 L558.2272,490.7648 L617.7856,490.7648 L617.7856,504 L619.968,504 L619.968,490.7648 L637.7088,490.7648 L637.7088,488.7232 L619.968,488.7232 L619.968,454.72 L616.1664,454.72 Z M563.7888,488.7232 L617.7856,455.9168 L617.7856,488.7232 L563.7888,488.7232 Z M645.1008,476.0512 L662.912,453.5936 L660.0256,453.5936 L642.9888,476.0512 L645.1008,476.0512 L645.1008,476.0512 Z" id="workshop_date" sketch:type="MSShapeGroup"></path>
            </g>
        </g>
    </g>
</svg>