<?xml version="1.0" encoding="UTF-8" standalone="no"?>
<svg width="186px" height="210px" viewBox="0 0 186 210" version="1.1" xmlns="http://www.w3.org/2000/svg" xmlns:xlink="http://www.w3.org/1999/xlink" xmlns:sketch="http://www.bohemiancoding.com/sketch/ns">
    <!-- Generator: Sketch 3.0.4 (8053) - http://www.bohemiancoding.com/sketch -->
    <title>footer-rgba-logo</title>
    <desc>Created with Sketch.</desc>
    <defs></defs>
    <g id="Page-1" stroke="none" stroke-width="1" fill="none" fill-rule="evenodd" sketch:type="MSPage">
        <g id="柯P-unlimited-desktop" sketch:type="MSArtboardGroup" transform="translate(-532.000000, -2868.000000)" fill="#FFFFFF">
            <g id="逛了一個官網..." sketch:type="MSLayerGroup" transform="translate(-1.000000, 2868.000000)">
                <g id="logos" transform="translate(105.000000, 0.000000)" sketch:type="MSShapeGroup">
                    <g id="RGBA" transform="translate(428.000000, 0.000000)">
                        <path d="M49.2304423,110.358964 L49.2304423,129.216278 L40.785349,129.216278 L40.785349,110.517247 C40.785349,108.061 39.6803041,106.95177 37.2337595,106.95177 L33.445197,106.95177 L33.445197,129.216278 L25,129.216278 L25,73.7529412 L38.8912232,73.7529412 C45.7577402,73.7529412 49.1515549,77.1599265 49.1515549,84.0532989 L49.1515549,94.5120436 C49.1515549,99.4244339 47.4152039,101.801488 44.3370422,103.069104 C47.809848,104.02005 49.2304423,106.159523 49.2304423,110.358964 Z M37.5494126,81.2800696 L33.445197,81.2800696 L33.445197,99.5829249 L37.2337595,99.5829249 C39.6014167,99.5829249 40.7064616,98.4736956 40.7064616,96.1759396 L40.7064616,84.4493704 C40.7064616,82.3102095 39.6803041,81.2800696 37.5494126,81.2800696 Z M66.3572909,106.238613 L66.3572909,98.9491688 L78.9855909,98.9491688 L78.9855909,119.391497 C78.9855909,126.284557 75.5915688,129.691647 68.7249482,129.691647 L64.2261921,129.691647 C57.3595715,129.691647 53.9656531,126.284557 53.9656531,119.391497 L53.9656531,83.5778257 C53.9656531,76.6846615 57.3595715,73.277468 64.2261921,73.277468 L68.6460608,73.277468 C75.5126814,73.277468 78.8276088,76.6846615 78.8276088,83.4986322 L78.8276088,92.4519721 L70.5401866,92.4519721 L70.5401866,83.9738973 C70.5401866,81.7555428 69.5142364,80.725403 67.3832412,80.725403 L65.6468901,80.725403 C63.4369039,80.725403 62.4109537,81.7555428 62.4109537,83.9738973 L62.4109537,118.995009 C62.4109537,121.213572 63.4369039,122.243816 65.6468901,122.243816 L67.5411196,122.243816 C69.7511057,122.243816 70.777056,121.213572 70.777056,118.995009 L70.777056,106.238613 L66.3572909,106.238613 Z M107.872771,108.69486 L107.872771,118.916024 C107.872771,125.809084 104.47906,129.216278 97.6122322,129.216278 L83.8001037,129.216278 L83.8001037,73.7529412 L97.4544575,73.7529412 C104.321285,73.7529412 107.714997,77.1599265 107.714997,84.0532989 L107.714997,92.2142875 C107.714997,97.1266778 106.057636,99.5829249 102.979578,100.692154 C106.294506,101.801488 107.872771,104.178749 107.872771,108.69486 Z M96.1915342,81.2008761 L92.1663096,81.2008761 L92.1663096,97.3643623 L95.8758811,97.3643623 C98.2435384,97.3643623 99.3485833,96.255133 99.3485833,93.8781835 L99.3485833,84.3701769 C99.3485833,82.2308078 98.322633,81.2008761 96.1915342,81.2008761 Z M92.1663096,121.768447 L96.3494126,121.768447 C98.4804077,121.768447 99.5064616,120.738099 99.5064616,118.598938 L99.5064616,108.061 C99.5064616,105.68405 98.4015204,104.574821 96.0337595,104.574821 L92.1663096,104.574821 L92.1663096,121.768447 Z M137.628023,129.216278 L129.262025,129.216278 L128.157084,120.500727 L119.395923,120.500727 L118.369972,129.216278 L110.556289,129.216278 L118.448963,73.6737477 L129.656565,73.6737477 L137.628023,129.216278 Z M120.343089,112.973598 L127.209813,112.973598 L123.815791,85.2417217 L120.343089,112.973598 Z M138.417415,130.959367 L174.881617,130.959367 L174.881617,137.139582 L138.417415,137.139582 L138.417415,130.959367 Z"></path>
                    </g>
                </g>
            </g>
        </g>
    </g>
</svg>