<?xml version="1.0" encoding="UTF-8" standalone="no"?>
<svg width="186px" height="210px" viewBox="0 0 186 210" version="1.1" xmlns="http://www.w3.org/2000/svg" xmlns:xlink="http://www.w3.org/1999/xlink" xmlns:sketch="http://www.bohemiancoding.com/sketch/ns">
    <!-- Generator: Sketch 3.0.4 (8053) - http://www.bohemiancoding.com/sketch -->
    <title>footer-kp-ton-logo</title>
    <desc>Created with Sketch.</desc>
    <defs></defs>
    <g id="Page-1" stroke="none" stroke-width="1" fill="none" fill-rule="evenodd" sketch:type="MSPage">
        <g id="柯P-unlimited-desktop" sketch:type="MSArtboardGroup" transform="translate(-318.000000, -2868.000000)" fill="#FFFFFF">
            <g id="逛了一個官網..." sketch:type="MSLayerGroup" transform="translate(-1.000000, 2868.000000)">
                <g id="logos" transform="translate(105.000000, 0.000000)" sketch:type="MSShapeGroup">
                    <g id="kp-ton" transform="translate(214.000000, 0.000000)">
                        <g id="Group" transform="translate(28.000000, 15.000000)">
                            <path d="M117.45,35.057 L103.982,35.057 C103.013,35.057 102.281,35.788 102.281,36.758 L102.281,76.264 C102.281,77.202 103.044,77.965 103.982,77.965 C104.888,77.965 105.683,77.17 105.683,76.264 L105.683,38.46 L117.45,38.46 C121.854,38.46 125.436,42.012 125.436,46.378 C125.436,50.782 121.854,54.364 117.45,54.364 L109.887,54.364 C108.949,54.364 108.186,55.127 108.186,56.065 C108.186,56.971 108.98,57.765 109.887,57.765 L117.45,57.765 C123.693,57.765 128.771,52.657 128.771,46.378 C128.771,40.136 123.693,35.057 117.45,35.057" id="Fill-1"></path>
                            <path d="M69.671,33.345 L69.671,32.623 C69.671,31.65 68.883,30.862 67.91,30.862 C66.937,30.862 66.149,31.65 66.149,32.623 L66.149,33.331 C49.937,34.4 44.664,50.811 44.612,50.982 C44.535,51.229 44.626,51.496 44.835,51.647 C44.94,51.721 45.062,51.758 45.184,51.758 C45.308,51.758 45.431,51.72 45.536,51.643 C47.732,50.044 49.805,49.233 51.696,49.233 C54.239,49.233 55.558,50.7 55.61,50.76 C55.718,50.885 55.872,50.96 56.036,50.968 C56.193,50.967 56.36,50.915 56.479,50.802 C57.681,49.649 58.941,49.065 60.226,49.065 C62.241,49.065 63.696,50.512 63.709,50.525 C63.927,50.748 64.281,50.767 64.521,50.566 C65.059,50.116 65.603,49.781 66.149,49.526 L66.149,73.399 C66.121,74.356 65.644,74.841 64.729,74.841 C63.814,74.841 63.337,74.356 63.309,73.422 L63.309,72.251 C63.309,71.278 62.521,70.489 61.548,70.489 C60.576,70.489 59.787,71.278 59.787,72.251 L59.787,73.422 C59.787,75.409 61.103,78.364 64.729,78.364 C68.355,78.364 69.671,75.409 69.671,73.422 L69.671,49.258 C71.248,49.762 72.266,50.917 72.279,50.932 C72.39,51.063 72.553,51.14 72.725,51.144 C72.862,51.132 73.061,51.078 73.177,50.95 C74.32,49.703 75.639,49.071 77.097,49.071 C79.135,49.071 80.779,50.306 80.796,50.319 C81.004,50.479 81.298,50.483 81.51,50.328 C82.492,49.619 83.583,49.259 84.755,49.259 C87.268,49.259 89.363,50.908 89.385,50.925 C89.587,51.087 89.872,51.102 90.089,50.956 C90.306,50.813 90.406,50.546 90.336,50.296 C90.29,50.132 85.704,34.477 69.671,33.345" id="Fill-2"></path>
                            <path d="M32.128,51.762 C32.459,51.762 32.728,51.495 32.728,51.164 C32.728,50.992 32.654,50.836 32.538,50.727 L19.252,31.134 C19.03,30.806 18.483,30.806 18.261,31.134 L4.908,50.827 C4.783,51.011 4.77,51.248 4.874,51.444 C4.978,51.64 5.181,51.762 5.403,51.762 L14.745,51.762 L4.893,67.765 C4.78,67.95 4.775,68.182 4.88,68.372 C4.986,68.561 5.187,68.678 5.403,68.678 L16.995,68.678 L16.995,77.483 C16.995,78.456 17.784,79.245 18.757,79.245 C19.729,79.245 20.518,78.456 20.518,77.483 L20.518,68.678 L32.111,68.678 L32.128,68.678 C32.459,68.678 32.728,68.41 32.728,68.079 C32.728,67.916 32.662,67.768 32.556,67.66 L22.769,51.762 L32.111,51.762 C32.117,51.762 32.124,51.763 32.128,51.762" id="Fill-3"></path>
                            <path d="M54.05,59.023 C52.359,59.023 50.988,60.394 50.988,62.084 C50.988,63.775 52.359,65.146 54.05,65.146 C55.74,65.146 57.111,63.775 57.111,62.084 C57.111,60.394 55.74,59.023 54.05,59.023" id="Fill-4"></path>
                            <path d="M100.944,6.887 L103.944,6.887 L103.944,14.593 L100.944,14.593 L100.944,6.887 Z" id="Fill-5"></path>
                            <path d="M96.926,7.711 L99.926,7.711 L99.926,13.769 L96.926,13.769 L96.926,7.711 Z" id="Fill-6"></path>
                            <path d="M104.961,7.156 L107.961,7.156 L107.961,14.324 L104.961,14.324 L104.961,7.156 Z" id="Fill-7"></path>
                            <path d="M112.998,8.628 L115.998,8.628 L115.998,12.852 L112.998,12.852 L112.998,8.628 Z" id="Fill-8"></path>
                            <path d="M108.98,6.887 L111.98,6.887 L111.98,14.593 L108.98,14.593 L108.98,6.887 Z" id="Fill-9"></path>
                            <path d="M117.016,5.739 L120.016,5.739 L120.016,15.742 L117.016,15.742 L117.016,5.739 Z" id="Fill-10"></path>
                            <path d="M121.034,7.901 L124.034,7.901 L124.034,13.579 L121.034,13.579 L121.034,7.901 Z" id="Fill-11"></path>
                            <path d="M125.051,7.901 L128.051,7.901 L128.051,13.579 L125.051,13.579 L125.051,7.901 Z" id="Fill-12"></path>
                            <path d="M0.495,7.901 L3.495,7.901 L3.495,13.579 L0.495,13.579 L0.495,7.901 Z" id="Fill-13"></path>
                            <path d="M4.512,4.302 L7.512,4.302 L7.512,17.178 L4.512,17.178 L4.512,4.302 Z" id="Fill-14"></path>
                            <path d="M8.53,7.299 L11.53,7.299 L11.53,14.181 L8.53,14.181 L8.53,7.299 Z" id="Fill-15"></path>
                            <path d="M16.566,1.952 L19.566,1.952 L19.566,19.528 L16.566,19.528 L16.566,1.952 Z" id="Fill-16"></path>
                            <path d="M12.548,4.038 L15.548,4.038 L15.548,17.443 L12.548,17.443 L12.548,4.038 Z" id="Fill-17"></path>
                            <path d="M20.585,5.437 L23.585,5.437 L23.585,16.044 L20.585,16.044 L20.585,5.437 Z" id="Fill-18"></path>
                            <path d="M32.638,6.683 L35.638,6.683 L35.638,14.798 L32.638,14.798 L32.638,6.683 Z" id="Fill-19"></path>
                            <path d="M44.692,6.102 L47.692,6.102 L47.692,15.379 L44.692,15.379 L44.692,6.102 Z" id="Fill-20"></path>
                            <path d="M28.62,9.15 L31.62,9.15 L31.62,12.33 L28.62,12.33 L28.62,9.15 Z" id="Fill-21"></path>
                            <path d="M40.674,3.857 L43.674,3.857 L43.674,17.623 L40.674,17.623 L40.674,3.857 Z" id="Fill-22"></path>
                            <path d="M56.746,6.887 L59.746,6.887 L59.746,14.593 L56.746,14.593 L56.746,6.887 Z" id="Fill-23"></path>
                            <path d="M72.818,6.887 L75.818,6.887 L75.818,14.593 L72.818,14.593 L72.818,6.887 Z" id="Fill-24"></path>
                            <path d="M60.764,7.901 L63.764,7.901 L63.764,13.579 L60.764,13.579 L60.764,7.901 Z" id="Fill-25"></path>
                            <path d="M76.836,7.901 L79.836,7.901 L79.836,13.579 L76.836,13.579 L76.836,7.901 Z" id="Fill-26"></path>
                            <path d="M88.89,0.491 L91.89,0.491 L91.89,20.989 L88.89,20.989 L88.89,0.491 Z" id="Fill-27"></path>
                            <path d="M24.602,8.29 L27.602,8.29 L27.602,13.192 L24.602,13.192 L24.602,8.29 Z" id="Fill-28"></path>
                            <path d="M36.656,6.185 L39.656,6.185 L39.656,15.296 L36.656,15.296 L36.656,6.185 Z" id="Fill-29"></path>
                            <path d="M48.71,6.887 L51.71,6.887 L51.71,14.593 L48.71,14.593 L48.71,6.887 Z" id="Fill-30"></path>
                            <path d="M64.782,8.787 L67.782,8.787 L67.782,12.694 L64.782,12.694 L64.782,8.787 Z" id="Fill-31"></path>
                            <path d="M52.728,5.286 L55.728,5.286 L55.728,16.196 L52.728,16.196 L52.728,5.286 Z" id="Fill-32"></path>
                            <path d="M68.8,7.901 L71.8,7.901 L71.8,13.579 L68.8,13.579 L68.8,7.901 Z" id="Fill-33"></path>
                            <path d="M84.872,3.822 L87.872,3.822 L87.872,17.659 L84.872,17.659 L84.872,3.822 Z" id="Fill-34"></path>
                            <path d="M80.854,5.912 L83.854,5.912 L83.854,15.569 L80.854,15.569 L80.854,5.912 Z" id="Fill-35"></path>
                            <path d="M92.908,3.773 L95.908,3.773 L95.908,17.707 L92.908,17.707 L92.908,3.773 Z" id="Fill-36"></path>
                            <path d="M1.652,100.644 L4.652,100.644 L4.652,104.888 L1.652,104.888 L1.652,100.644 Z" id="Fill-37"></path>
                            <path d="M5.67,97.954 L8.67,97.954 L8.67,107.579 L5.67,107.579 L5.67,97.954 Z" id="Fill-38"></path>
                            <path d="M9.688,101.481 L12.688,101.481 L12.688,104.053 L9.688,104.053 L9.688,101.481 Z" id="Fill-39"></path>
                            <path d="M29.778,96.197 L32.778,96.197 L32.778,109.336 L29.778,109.336 L29.778,96.197 Z" id="Fill-40"></path>
                            <path d="M17.725,97.756 L20.725,97.756 L20.725,107.776 L17.725,107.776 L17.725,97.756 Z" id="Fill-41"></path>
                            <path d="M41.832,100.784 L44.832,100.784 L44.832,104.749 L41.832,104.749 L41.832,100.784 Z" id="Fill-42"></path>
                            <path d="M45.85,100.656 L48.85,100.656 L48.85,104.877 L45.85,104.877 L45.85,100.656 Z" id="Fill-43"></path>
                            <path d="M90.048,99.299 L93.048,99.299 L93.048,106.233 L90.048,106.233 L90.048,99.299 Z" id="Fill-44"></path>
                            <path d="M36.728,104.037 L33.732,103.871 L33.865,101.496 L36.86,101.663 L36.728,104.037" id="Fill-45"></path>
                            <path d="M82.012,95.429 L85.012,95.429 L85.012,110.105 L82.012,110.105 L82.012,95.429 Z" id="Fill-46"></path>
                            <path d="M73.976,99.4 L76.976,99.4 L76.976,106.133 L73.976,106.133 L73.976,99.4 Z" id="Fill-47"></path>
                            <path d="M13.707,100.654 L16.707,100.654 L16.707,104.879 L13.707,104.879 L13.707,100.654 Z" id="Fill-48"></path>
                            <path d="M69.958,100.286 L72.958,100.286 L72.958,105.247 L69.958,105.247 L69.958,100.286 Z" id="Fill-49"></path>
                            <path d="M25.76,99.299 L28.76,99.299 L28.76,106.233 L25.76,106.233 L25.76,99.299 Z" id="Fill-50"></path>
                            <path d="M57.904,95.105 L60.904,95.105 L60.904,110.428 L57.904,110.428 L57.904,95.105 Z" id="Fill-51"></path>
                            <path d="M21.742,99.868 L24.742,99.868 L24.742,105.665 L21.742,105.665 L21.742,99.868 Z" id="Fill-52"></path>
                            <path d="M53.886,97.779 L56.886,97.779 L56.886,107.754 L53.886,107.754 L53.886,97.779 Z" id="Fill-53"></path>
                            <path d="M98.084,99.886 L101.084,99.886 L101.084,105.646 L98.084,105.646 L98.084,99.886 Z" id="Fill-54"></path>
                            <path d="M65.94,101.06 L68.94,101.06 L68.94,104.474 L65.94,104.474 L65.94,101.06 Z" id="Fill-55"></path>
                            <path d="M77.994,98 L80.994,98 L80.994,107.533 L77.994,107.533 L77.994,98 Z" id="Fill-56"></path>
                            <path d="M61.922,98.922 L64.922,98.922 L64.922,106.61 L61.922,106.61 L61.922,98.922 Z" id="Fill-57"></path>
                            <path d="M49.868,97.595 L52.868,97.595 L52.868,107.939 L49.868,107.939 L49.868,97.595 Z" id="Fill-58"></path>
                            <path d="M37.815,99.157 L40.815,99.157 L40.815,106.376 L37.815,106.376 L37.815,99.157 Z" id="Fill-59"></path>
                            <path d="M86.03,97.559 L89.03,97.559 L89.03,107.975 L86.03,107.975 L86.03,97.559 Z" id="Fill-60"></path>
                            <path d="M102.102,98.723 L105.102,98.723 L105.102,106.811 L102.102,106.811 L102.102,98.723 Z" id="Fill-61"></path>
                            <path d="M94.066,100.502 L97.066,100.502 L97.066,105.03 L94.066,105.03 L94.066,100.502 Z" id="Fill-62"></path>
                            <path d="M106.12,96.295 L109.12,96.295 L109.12,109.237 L106.12,109.237 L106.12,96.295 Z" id="Fill-63"></path>
                            <path d="M114.156,101.188 L117.156,101.188 L117.156,104.346 L114.156,104.346 L114.156,101.188 Z" id="Fill-64"></path>
                            <path d="M110.138,93.404 L113.138,93.404 L113.138,112.13 L110.138,112.13 L110.138,93.404 Z" id="Fill-65"></path>
                            <path d="M118.173,99.028 L121.173,99.028 L121.173,106.505 L118.173,106.505 L118.173,99.028 Z" id="Fill-66"></path>
                            <path d="M122.191,100.644 L125.191,100.644 L125.191,104.888 L122.191,104.888 L122.191,100.644 Z" id="Fill-67"></path>
                            <path d="M126.21,100.644 L129.21,100.644 L129.21,104.888 L126.21,104.888 L126.21,100.644 Z" id="Fill-68"></path>
                            <path d="M118.266,167.016 L121.266,167.016 L121.266,171.26 L118.266,171.26 L118.266,167.016 Z" id="Fill-69"></path>
                            <path d="M122.284,164.325 L125.284,164.325 L125.284,173.951 L122.284,173.951 L122.284,164.325 Z" id="Fill-70"></path>
                            <path d="M5.762,167.852 L8.762,167.852 L8.762,170.424 L5.762,170.424 L5.762,167.852 Z" id="Fill-71"></path>
                            <path d="M53.978,162.568 L56.978,162.568 L56.978,175.707 L53.978,175.707 L53.978,162.568 Z" id="Fill-72"></path>
                            <path d="M29.535,161.639 L33.205,161.639 L33.205,176.638 L29.535,176.638 L29.535,161.639 Z" id="Fill-73"></path>
                            <path d="M74.068,167.156 L77.068,167.156 L77.068,171.12 L74.068,171.12 L74.068,167.156 Z" id="Fill-74"></path>
                            <path d="M78.086,167.027 L81.086,167.027 L81.086,171.249 L78.086,171.249 L78.086,167.027 Z" id="Fill-75"></path>
                            <path d="M62.014,165.671 L65.014,165.671 L65.014,172.606 L62.014,172.606 L62.014,165.671 Z" id="Fill-76"></path>
                            <path d="M60.927,170.409 L57.932,170.243 L58.065,167.867 L61.06,168.034 L60.927,170.409" id="Fill-77"></path>
                            <path d="M41.924,161.801 L44.924,161.801 L44.924,176.476 L41.924,176.476 L41.924,161.801 Z" id="Fill-78"></path>
                            <path d="M25.517,164.099 L29.187,164.099 L29.187,174.178 L25.517,174.178 L25.517,164.099 Z" id="Fill-79"></path>
                            <path d="M21.5,165.976 L25.17,165.976 L25.17,172.301 L21.5,172.301 L21.5,165.976 Z" id="Fill-80"></path>
                            <path d="M13.463,165.426 L17.133,165.426 L17.133,172.851 L13.463,172.851 L13.463,165.426 Z" id="Fill-81"></path>
                            <path d="M45.942,165.671 L48.942,165.671 L48.942,172.606 L45.942,172.606 L45.942,165.671 Z" id="Fill-82"></path>
                            <path d="M102.402,163.456 L104.985,163.456 L104.985,174.819 L102.402,174.819 L102.402,163.456 Z" id="Fill-83"></path>
                            <path d="M37.906,166.24 L40.906,166.24 L40.906,172.036 L37.906,172.036 L37.906,166.24 Z" id="Fill-84"></path>
                            <path d="M94.366,165.44 L96.949,165.44 L96.949,172.838 L94.366,172.838 L94.366,165.44 Z" id="Fill-85"></path>
                            <path d="M82.104,166.258 L85.104,166.258 L85.104,172.019 L82.104,172.019 L82.104,166.258 Z" id="Fill-86"></path>
                            <path d="M126.301,167.431 L129.301,167.431 L129.301,170.845 L126.301,170.845 L126.301,167.431 Z" id="Fill-87"></path>
                            <path d="M33.888,164.372 L36.888,164.372 L36.888,173.904 L33.888,173.904 L33.888,164.372 Z" id="Fill-88"></path>
                            <path d="M110.438,166.287 L113.021,166.287 L113.021,171.989 L110.438,171.989 L110.438,166.287 Z" id="Fill-89"></path>
                            <path d="M86.122,163.967 L89.122,163.967 L89.122,174.31 L86.122,174.31 L86.122,163.967 Z" id="Fill-90"></path>
                            <path d="M70.05,165.529 L73.05,165.529 L73.05,172.748 L70.05,172.748 L70.05,165.529 Z" id="Fill-91"></path>
                            <path d="M49.96,163.931 L52.96,163.931 L52.96,174.346 L49.96,174.346 L49.96,163.931 Z" id="Fill-92"></path>
                            <path d="M90.348,166.139 L92.931,166.139 L92.931,172.137 L90.348,172.137 L90.348,166.139 Z" id="Fill-93"></path>
                            <path d="M66.032,166.874 L69.032,166.874 L69.032,171.402 L66.032,171.402 L66.032,166.874 Z" id="Fill-94"></path>
                            <path d="M98.384,164.339 L100.967,164.339 L100.967,173.938 L98.384,173.938 L98.384,164.339 Z" id="Fill-95"></path>
                            <path d="M114.248,167.56 L117.248,167.56 L117.248,170.717 L114.248,170.717 L114.248,167.56 Z" id="Fill-96"></path>
                            <path d="M106.42,162.195 L109.003,162.195 L109.003,176.082 L106.42,176.082 L106.42,162.195 Z" id="Fill-97"></path>
                            <path d="M1.745,165.4 L4.745,165.4 L4.745,172.877 L1.745,172.877 L1.745,165.4 Z" id="Fill-98"></path>
                            <path d="M9.78,167.016 L12.78,167.016 L12.78,171.26 L9.78,171.26 L9.78,167.016 Z" id="Fill-99"></path>
                            <path d="M17.481,165.962 L21.151,165.962 L21.151,172.314 L17.481,172.314 L17.481,165.962 Z" id="Fill-100"></path>
                            <path d="M14.264,149.254 C7.773,149.254 2.493,143.973 2.493,137.482 C2.493,130.99 7.773,125.709 14.264,125.709 C20.756,125.709 26.037,130.99 26.037,137.482 C26.037,143.973 20.756,149.254 14.264,149.254 L14.264,149.254 Z M14.264,126.943 C8.454,126.943 3.726,131.671 3.726,137.482 C3.726,143.293 8.454,148.02 14.264,148.02 C20.076,148.02 24.803,143.293 24.803,137.482 C24.803,131.671 20.076,126.943 14.264,126.943 L14.264,126.943 Z" id="Fill-101"></path>
                            <path d="M14.264,146.822 C9.115,146.822 4.924,142.632 4.924,137.482 C4.924,132.332 9.115,128.142 14.264,128.142 C19.415,128.142 23.605,132.332 23.605,137.482 C23.605,142.632 19.415,146.822 14.264,146.822 L14.264,146.822 Z M14.264,129.376 C9.795,129.376 6.158,133.012 6.158,137.482 C6.158,141.951 9.795,145.588 14.264,145.588 C18.734,145.588 22.371,141.951 22.371,137.482 C22.371,133.012 18.734,129.376 14.264,129.376 L14.264,129.376 Z" id="Fill-102"></path>
                            <path d="M14.264,139.534 C13.133,139.534 12.213,138.613 12.213,137.482 C12.213,136.351 13.133,135.43 14.264,135.43 C15.396,135.43 16.316,136.351 16.316,137.482 C16.316,138.613 15.396,139.534 14.264,139.534 L14.264,139.534 Z M14.264,136.664 C13.813,136.664 13.447,137.031 13.447,137.482 C13.447,137.932 13.813,138.3 14.264,138.3 C14.715,138.3 15.082,137.932 15.082,137.482 C15.082,137.031 14.715,136.664 14.264,136.664 L14.264,136.664 Z" id="Fill-103"></path>
                            <path d="M74.953,149.257 C74.612,149.257 74.336,148.981 74.336,148.64 L74.336,127.8 C74.336,127.459 74.612,127.183 74.953,127.183 C75.293,127.183 75.57,127.459 75.57,127.8 L75.57,148.64 C75.57,148.981 75.293,149.257 74.953,149.257" id="Fill-104"></path>
                            <path d="M77.48,146.38 L72.425,146.38 C71.525,146.38 70.792,145.647 70.792,144.748 L70.792,143.901 C70.792,143.001 71.525,142.269 72.425,142.269 L77.48,142.269 C78.38,142.269 79.113,143.001 79.113,143.901 L79.113,144.748 C79.113,145.647 78.38,146.38 77.48,146.38 L77.48,146.38 Z M72.425,143.502 C72.204,143.502 72.026,143.682 72.026,143.901 L72.026,144.748 C72.026,144.967 72.204,145.146 72.425,145.146 L77.48,145.146 C77.7,145.146 77.879,144.967 77.879,144.748 L77.879,143.901 C77.879,143.682 77.7,143.502 77.48,143.502 L72.425,143.502 L72.425,143.502 Z" id="Fill-105"></path>
                            <path d="M83.307,149.257 C82.966,149.257 82.69,148.981 82.69,148.64 L82.69,127.8 C82.69,127.459 82.966,127.183 83.307,127.183 C83.648,127.183 83.924,127.459 83.924,127.8 L83.924,148.64 C83.924,148.981 83.648,149.257 83.307,149.257" id="Fill-106"></path>
                            <path d="M85.338,134.381 L81.276,134.381 C80.376,134.381 79.644,133.648 79.644,132.748 L79.644,132.052 C79.644,131.153 80.376,130.42 81.276,130.42 L85.338,130.42 C86.238,130.42 86.971,131.153 86.971,132.052 L86.971,132.748 C86.971,133.648 86.238,134.381 85.338,134.381 L85.338,134.381 Z M81.276,131.654 C81.056,131.654 80.878,131.833 80.878,132.052 L80.878,132.748 C80.878,132.968 81.056,133.147 81.276,133.147 L85.338,133.147 C85.558,133.147 85.737,132.968 85.737,132.748 L85.737,132.052 C85.737,131.833 85.558,131.654 85.338,131.654 L81.276,131.654 L81.276,131.654 Z" id="Fill-107"></path>
                            <path d="M91.662,149.257 C91.321,149.257 91.045,148.981 91.045,148.64 L91.045,127.8 C91.045,127.459 91.321,127.183 91.662,127.183 C92.002,127.183 92.278,127.459 92.278,127.8 L92.278,148.64 C92.278,148.981 92.002,149.257 91.662,149.257" id="Fill-108"></path>
                            <path d="M93.778,140.791 L89.546,140.791 C88.646,140.791 87.913,140.059 87.913,139.159 L87.913,138.175 C87.913,137.275 88.646,136.543 89.546,136.543 L93.778,136.543 C94.678,136.543 95.41,137.275 95.41,138.175 L95.41,139.159 C95.41,140.059 94.678,140.791 93.778,140.791 L93.778,140.791 Z M89.546,137.777 C89.326,137.777 89.147,137.956 89.147,138.175 L89.147,139.159 C89.147,139.378 89.326,139.558 89.546,139.558 L93.778,139.558 C93.997,139.558 94.176,139.378 94.176,139.159 L94.176,138.175 C94.176,137.956 93.997,137.777 93.778,137.777 L89.546,137.777 L89.546,137.777 Z" id="Fill-109"></path>
                            <path d="M126.744,129.376 L108.294,129.376 C107.954,129.376 107.677,129.099 107.677,128.759 C107.677,128.418 107.954,128.142 108.294,128.142 L126.744,128.142 C127.085,128.142 127.361,128.418 127.361,128.759 C127.361,129.099 127.085,129.376 126.744,129.376" id="Fill-110"></path>
                            <path d="M126.744,139.315 L108.294,139.315 C107.954,139.315 107.677,139.039 107.677,138.698 C107.677,138.357 107.954,138.081 108.294,138.081 L126.744,138.081 C127.085,138.081 127.361,138.357 127.361,138.698 C127.361,139.039 127.085,139.315 126.744,139.315" id="Fill-111"></path>
                            <path d="M126.744,144.284 L108.294,144.284 C107.954,144.284 107.677,144.008 107.677,143.667 C107.677,143.327 107.954,143.05 108.294,143.05 L126.744,143.05 C127.085,143.05 127.361,143.327 127.361,143.667 C127.361,144.008 127.085,144.284 126.744,144.284" id="Fill-112"></path>
                            <path d="M126.744,149.254 L108.294,149.254 C107.954,149.254 107.677,148.978 107.677,148.637 C107.677,148.297 107.954,148.02 108.294,148.02 L126.744,148.02 C127.085,148.02 127.361,148.297 127.361,148.637 C127.361,148.978 127.085,149.254 126.744,149.254" id="Fill-113"></path>
                            <path d="M126.744,134.345 L108.294,134.345 C107.954,134.345 107.677,134.069 107.677,133.728 C107.677,133.387 107.954,133.111 108.294,133.111 L126.744,133.111 C127.085,133.111 127.361,133.387 127.361,133.728 C127.361,134.069 127.085,134.345 126.744,134.345" id="Fill-114"></path>
                            <path d="M38.841,146.738 L37.013,146.738 C36.108,146.738 35.4,146.144 35.4,145.385 L35.4,139.001 C35.4,138.242 36.108,137.647 37.013,137.647 L38.841,137.647 C39.745,137.647 40.454,138.242 40.454,139.001 L40.454,145.385 C40.454,146.144 39.745,146.738 38.841,146.738 L38.841,146.738 Z M37.013,138.881 C36.788,138.881 36.65,138.98 36.63,139.021 L36.634,145.385 C36.65,145.406 36.788,145.504 37.013,145.504 L38.841,145.504 C39.066,145.504 39.204,145.406 39.224,145.365 L39.221,139.001 C39.204,138.98 39.066,138.881 38.841,138.881 L37.013,138.881 L37.013,138.881 Z" id="Fill-115"></path>
                            <path d="M60.352,146.738 L58.525,146.738 C57.62,146.738 56.911,146.144 56.911,145.385 L56.911,139.001 C56.911,138.242 57.62,137.647 58.525,137.647 L60.352,137.647 C61.257,137.647 61.966,138.242 61.966,139.001 L61.966,145.385 C61.966,146.144 61.257,146.738 60.352,146.738 L60.352,146.738 Z M58.525,138.881 C58.3,138.881 58.161,138.98 58.142,139.021 L58.145,145.385 C58.161,145.406 58.3,145.504 58.525,145.504 L60.352,145.504 C60.578,145.504 60.716,145.406 60.735,145.365 L60.732,139.001 C60.716,138.98 60.578,138.881 60.352,138.881 L58.525,138.881 L58.525,138.881 Z" id="Fill-116"></path>
                            <path d="M39.837,142.148 C39.509,142.148 39.236,141.89 39.221,141.559 C39.209,141.279 38.96,134.671 42.536,130.934 C44.098,129.302 46.147,128.474 48.625,128.474 C51.103,128.474 53.158,129.301 54.734,130.933 C58.342,134.668 58.155,141.274 58.145,141.553 C58.133,141.893 57.842,142.188 57.507,142.147 C57.167,142.136 56.9,141.85 56.912,141.51 C56.914,141.447 57.087,135.141 53.844,131.787 C52.51,130.407 50.754,129.708 48.625,129.708 C46.498,129.708 44.75,130.406 43.43,131.784 C40.219,135.136 40.451,141.441 40.454,141.505 C40.468,141.845 40.205,142.133 39.864,142.147 C39.855,142.148 39.846,142.148 39.837,142.148" id="Fill-117"></path>
                        </g>
                    </g>
                </g>
            </g>
        </g>
    </g>
</svg>