<?xml version="1.0" encoding="UTF-8" standalone="no"?>
<svg width="1000px" height="88px" viewBox="0 0 1000 88" version="1.1" xmlns="http://www.w3.org/2000/svg" xmlns:xlink="http://www.w3.org/1999/xlink" xmlns:sketch="http://www.bohemiancoding.com/sketch/ns">
    <!-- Generator: Sketch 3.0.4 (8053) - http://www.bohemiancoding.com/sketch -->
    <title>unlimited</title>
    <desc>Created with Sketch.</desc>
    <defs></defs>
    <g id="Page-1" stroke="none" stroke-width="1" fill="none" fill-rule="evenodd" sketch:type="MSPage">
        <g id="柯P-unlimited-desktop" sketch:type="MSArtboardGroup" transform="translate(-12.000000, -307.000000)">
            <g id="title" sketch:type="MSLayerGroup" transform="translate(12.000000, 52.000000)">
                <g id="unlimited" transform="translate(0.000000, 255.255682)" sketch:type="MSShapeGroup">
                    <path d="M148.14966,1.62002273 L98.2721088,1.62002273 L69.8843537,55.1114034 C66.3027211,61.7480511 62.5884354,64.4027102 56.6190476,64.4027102 C51.8435374,64.4027102 49.7210884,62.14625 49.7210884,59.7570568 C49.7210884,58.0315284 50.1190476,56.306 51.1802721,54.1822727 L79.170068,1.62002273 L28.7619048,1.62002273 L5.68027211,45.0236989 C1.56802721,52.5894773 0.108843537,57.7660625 0.108843537,63.0753807 C0.108843537,76.746875 13.5068027,85.50725 53.9659864,85.50725 C80.7619048,85.50725 97.6088435,80.3306648 107.955782,69.9774943 C114.721088,63.2081136 118.037415,58.0315284 124.670068,45.6873636 L148.14966,1.62002273 Z" id="Path" fill="#B52829"></path>
                    <path d="M273.108844,1.62002273 L232.64966,1.62002273 L214.608844,36.6615227 L206.914966,1.62002273 L160.088435,1.62002273 L116.578231,83.3835227 L157.037415,83.3835227 L176.670068,45.4218977 L184.894558,83.3835227 L229.598639,83.3835227 L273.108844,1.62002273 Z" id="Path" fill="#F6AA3C"></path>
                    <path d="M347.659864,61.8807841 L304.680272,61.8807841 L336.782313,1.62002273 L286.37415,1.62002273 L242.863946,83.3835227 L336.251701,83.3835227 L347.659864,61.8807841 Z" id="Path" fill="#E46536"></path>
                    <path d="M439.853741,1.62002273 L388.119048,1.62002273 L344.608844,83.3835227 L396.343537,83.3835227 L439.853741,1.62002273 Z" id="Path" fill="#2D7734"></path>
                    <path d="M602.486395,1.62002273 L534.435374,1.62002273 L504.721088,40.9089773 L514.670068,1.62002273 L453.64966,1.62002273 L410.139456,83.3835227 L448.608844,83.3835227 L471.292517,38.652517 L462.139456,83.3835227 L498.619048,83.3835227 L536.159864,39.7143807 L512.547619,83.3835227 L558.97619,83.3835227 L602.486395,1.62002273 Z" id="Path" fill="#3382B6"></path>
                    <path d="M668.017007,1.62002273 L616.282313,1.62002273 L572.772109,83.3835227 L624.506803,83.3835227 L668.017007,1.62002273 Z" id="Path" fill="#6854B0"></path>
                    <path d="M781.70068,1.62002273 L677.170068,1.62002273 L666.027211,22.4590966 L694.017007,22.4590966 L661.517007,83.3835227 L713.251701,83.3835227 L745.751701,22.4590966 L770.557823,22.4590966 L781.70068,1.62002273 Z" id="Path" fill="#B52829"></path>
                    <path d="M887.557823,1.62002273 L790.323129,1.62002273 L746.812925,83.3835227 L845.506803,83.3835227 L856.517007,62.6771818 L805.047619,62.6771818 L810.751701,52.3240114 L856.914966,52.3240114 L867.527211,32.2813352 L821.231293,32.2813352 L826.802721,22.3263636 L876.547619,22.3263636 L887.557823,1.62002273 Z" id="Path" fill="#F6AA3C"></path>
                    <path d="M998.853741,25.6446875 C998.853741,19.2735057 996.996599,14.8933182 993.282313,11.1767955 C986.782313,4.67288068 976.170068,1.62002273 953.353741,1.62002273 L899.496599,1.62002273 L855.986395,83.3835227 L923.904762,83.3835227 C951.761905,83.3835227 968.608844,77.6760057 978.292517,67.9865 C983.068027,63.2081136 987.97619,56.173267 994.078231,43.2981705 C997.92517,35.2014602 998.853741,31.0867386 998.853741,25.6446875 Z M950.568027,27.3702159 C950.568027,29.6266761 949.904762,31.4849375 948.312925,34.4050625 L938.231293,53.253142 C934.914966,59.4915909 931.863946,62.6771818 925.363946,62.6771818 L915.414966,62.6771818 L936.904762,22.3263636 L943.404762,22.3263636 C948.312925,22.3263636 950.568027,24.184625 950.568027,27.3702159 Z" id="Path" fill="#E56535"></path>
                </g>
            </g>
        </g>
    </g>
</svg>